<?xml version="1.0" encoding="utf-8"?>
<svg version="1.1" xmlns="http://www.w3.org/2000/svg" xmlns:xlink="http://www.w3.org/1999/xlink" x="0px" y="0px"
	 viewBox="0 0 24 24" style="enable-background:new 0 0 24 24;" xml:space="preserve">
<style type="text/css">
	.st0{fill:#B0B0B0;}
</style>
<g>
	<g transform="translate(-1306.000000, -24.000000)">
		<path class="st0" d="M1318,26c-5.5,0-10,4.5-10,10s4.5,10,10,10s10-4.5,10-10S1323.5,26,1318,26z M1318,30.6
			c1.8,0,3.3,1.5,3.3,3.4s-1.5,3.4-3.3,3.4s-3.3-1.5-3.3-3.4S1316.2,30.6,1318,30.6z M1318,44.9c-2.3,0-4.5-0.9-6.2-2.5
			c1.7-2.3,3.9-3.5,6.2-3.5s4.5,1.2,6.2,3.5C1322.5,44,1320.3,44.9,1318,44.9z"/>
	</g>
</g>
</svg>
