<svg xmlns="http://www.w3.org/2000/svg" xmlns:xlink="http://www.w3.org/1999/xlink" width="5911pt" height="643pt" viewBox="0 0 5911 643"><g id="graph0" class="graph" transform="scale(1 1) rotate(0) translate(4 639)"><title>%3</title><polygon fill="#fff" stroke="transparent" points="-4 4 -4 -639 5907 -639 5907 4 -4 4"/><g id="node1" class="node"><title>RecordField</title><polygon fill="none" stroke="#000" points="263 -567.5 164 -567.5 164 -499.5 263 -499.5 263 -567.5"/><text x="213.5" y="-552.3" fill="#000" font-family="Times,serif" font-size="14" text-anchor="middle">RecordField</text><text x="172" y="-537.3" fill="#000" font-family="Times,serif" font-size="14" text-anchor="start">* name</text><text x="172" y="-522.3" fill="#000" font-family="Times,serif" font-size="14" text-anchor="start">* doc</text><text x="172" y="-507.3" fill="#000" font-family="Times,serif" font-size="14" text-anchor="start">* type</text></g><g id="node13" class="node"><title>InputRecordField</title><polygon fill="none" stroke="#000" points="176 -343.5 39 -343.5 39 -290.5 176 -290.5 176 -343.5"/><text x="107.5" y="-328.3" fill="#000" font-family="Times,serif" font-size="14" text-anchor="middle">InputRecordField</text><text x="47" y="-313.3" fill="#000" font-family="Times,serif" font-size="14" text-anchor="start">* inputBinding</text><text x="47" y="-298.3" fill="#000" font-family="Times,serif" font-size="14" text-anchor="start">* label</text></g><g id="edge4" class="edge"><title>RecordField-&gt;InputRecordField</title><path fill="none" stroke="#000" d="M196.704,-499.1949C177.0986,-459.1518 144.8327,-393.2502 124.9505,-352.6419"/><polygon fill="#000" stroke="#000" points="128.083 -351.079 120.542 -343.637 121.796 -354.157 128.083 -351.079"/></g><g id="node17" class="node"><title>OutputRecordField</title><polygon fill="none" stroke="#000" points="364.5 -336 220.5 -336 220.5 -298 364.5 -298 364.5 -336"/><text x="292.5" y="-320.8" fill="#000" font-family="Times,serif" font-size="14" text-anchor="middle">OutputRecordField</text><text x="228.5" y="-305.8" fill="#000" font-family="Times,serif" font-size="14" text-anchor="start">* outputBinding</text></g><g id="edge11" class="edge"><title>RecordField-&gt;OutputRecordField</title><path fill="none" stroke="#000" d="M226.0178,-499.1949C241.5069,-456.7469 267.5991,-385.2411 282.0603,-345.6101"/><polygon fill="#000" stroke="#000" points="285.418 -346.619 285.558 -336.025 278.842 -344.22 285.418 -346.619"/></g><g id="node2" class="node"><title>RecordSchema</title><polygon fill="none" stroke="#000" points="631 -343.5 524 -343.5 524 -290.5 631 -290.5 631 -343.5"/><text x="577.5" y="-328.3" fill="#000" font-family="Times,serif" font-size="14" text-anchor="middle">RecordSchema</text><text x="532" y="-313.3" fill="#000" font-family="Times,serif" font-size="14" text-anchor="start">* fields</text><text x="532" y="-298.3" fill="#000" font-family="Times,serif" font-size="14" text-anchor="start">* type</text></g><g id="node14" class="node"><title>InputRecordSchema</title><polygon fill="none" stroke="#000" points="566.5 -172 422.5 -172 422.5 -134 566.5 -134 566.5 -172"/><text x="494.5" y="-156.8" fill="#000" font-family="Times,serif" font-size="14" text-anchor="middle">InputRecordSchema</text><text x="430.5" y="-141.8" fill="#000" font-family="Times,serif" font-size="14" text-anchor="start">* name</text></g><g id="edge5" class="edge"><title>RecordSchema-&gt;InputRecordSchema</title><path fill="none" stroke="#000" d="M563.9799,-290.2856C548.8093,-260.3099 524.3013,-211.8846 508.8139,-181.2829"/><polygon fill="#000" stroke="#000" points="511.764 -179.361 504.126 -172.019 505.519 -182.522 511.764 -179.361"/></g><g id="node18" class="node"><title>OutputRecordSchema</title><polygon fill="none" stroke="#000" points="736.5 -171 584.5 -171 584.5 -135 736.5 -135 736.5 -171"/><text x="660.5" y="-149.3" fill="#000" font-family="Times,serif" font-size="14" text-anchor="middle">OutputRecordSchema</text></g><g id="edge12" class="edge"><title>RecordSchema-&gt;OutputRecordSchema</title><path fill="none" stroke="#000" d="M591.0201,-290.2856C606.3565,-259.9823 631.2355,-210.8239 646.6906,-180.286"/><polygon fill="#000" stroke="#000" points="649.961 -181.576 651.353 -171.073 643.715 -178.415 649.961 -181.576"/></g><g id="node3" class="node"><title>EnumSchema</title><polygon fill="none" stroke="#000" points="1067.5 -343.5 975.5 -343.5 975.5 -290.5 1067.5 -290.5 1067.5 -343.5"/><text x="1021.5" y="-328.3" fill="#000" font-family="Times,serif" font-size="14" text-anchor="middle">EnumSchema</text><text x="983.5" y="-313.3" fill="#000" font-family="Times,serif" font-size="14" text-anchor="start">* symbols</text><text x="983.5" y="-298.3" fill="#000" font-family="Times,serif" font-size="14" text-anchor="start">* type</text></g><g id="node15" class="node"><title>InputEnumSchema</title><polygon fill="none" stroke="#000" points="936 -179.5 807 -179.5 807 -126.5 936 -126.5 936 -179.5"/><text x="871.5" y="-164.3" fill="#000" font-family="Times,serif" font-size="14" text-anchor="middle">InputEnumSchema</text><text x="815" y="-149.3" fill="#000" font-family="Times,serif" font-size="14" text-anchor="start">* name</text><text x="815" y="-134.3" fill="#000" font-family="Times,serif" font-size="14" text-anchor="start">* inputBinding</text></g><g id="edge7" class="edge"><title>EnumSchema-&gt;InputEnumSchema</title><path fill="none" stroke="#000" d="M1000.04,-290.1961C987.3866,-274.6781 970.8866,-254.9281 955.5,-238 939.79,-220.7162 921.6527,-202.1958 906.261,-186.869"/><polygon fill="#000" stroke="#000" points="908.515 -184.175 898.948 -179.621 903.587 -189.146 908.515 -184.175"/></g><g id="node19" class="node"><title>OutputEnumSchema</title><polygon fill="none" stroke="#000" points="1246 -172 1109 -172 1109 -134 1246 -134 1246 -172"/><text x="1177.5" y="-156.8" fill="#000" font-family="Times,serif" font-size="14" text-anchor="middle">OutputEnumSchema</text><text x="1117" y="-141.8" fill="#000" font-family="Times,serif" font-size="14" text-anchor="start">* outputBinding</text></g><g id="edge14" class="edge"><title>EnumSchema-&gt;OutputEnumSchema</title><path fill="none" stroke="#000" d="M1046.9113,-290.2856C1076.0419,-259.6611 1123.4902,-209.7796 1152.4628,-179.3212"/><polygon fill="#000" stroke="#000" points="1155.052 -181.677 1159.408 -172.019 1149.98 -176.853 1155.052 -181.677"/></g><g id="node4" class="node"><title>ArraySchema</title><polygon fill="none" stroke="#000" points="1375 -343.5 1276 -343.5 1276 -290.5 1375 -290.5 1375 -343.5"/><text x="1325.5" y="-328.3" fill="#000" font-family="Times,serif" font-size="14" text-anchor="middle">ArraySchema</text><text x="1284" y="-313.3" fill="#000" font-family="Times,serif" font-size="14" text-anchor="start">* items</text><text x="1284" y="-298.3" fill="#000" font-family="Times,serif" font-size="14" text-anchor="start">* type</text></g><g id="node16" class="node"><title>InputArraySchema</title><polygon fill="none" stroke="#000" points="1091 -172 954 -172 954 -134 1091 -134 1091 -172"/><text x="1022.5" y="-156.8" fill="#000" font-family="Times,serif" font-size="14" text-anchor="middle">InputArraySchema</text><text x="962" y="-141.8" fill="#000" font-family="Times,serif" font-size="14" text-anchor="start">* inputBinding</text></g><g id="edge9" class="edge"><title>ArraySchema-&gt;InputArraySchema</title><path fill="none" stroke="#000" d="M1308.7803,-290.3428C1296.4312,-272.8501 1278.0654,-250.9015 1256.5,-238 1195.0659,-201.2469 1165.5467,-229.6183 1099.5,-202 1084.5342,-195.7418 1069.2241,-186.6528 1056.2385,-177.9979"/><polygon fill="#000" stroke="#000" points="1057.88 -174.88 1047.653 -172.115 1053.924 -180.655 1057.88 -174.88"/></g><g id="node20" class="node"><title>OutputArraySchema</title><polygon fill="none" stroke="#000" points="1408.5 -172 1264.5 -172 1264.5 -134 1408.5 -134 1408.5 -172"/><text x="1336.5" y="-156.8" fill="#000" font-family="Times,serif" font-size="14" text-anchor="middle">OutputArraySchema</text><text x="1272.5" y="-141.8" fill="#000" font-family="Times,serif" font-size="14" text-anchor="start">* outputBinding</text></g><g id="edge16" class="edge"><title>ArraySchema-&gt;OutputArraySchema</title><path fill="none" stroke="#000" d="M1327.2918,-290.2856C1329.285,-260.5695 1332.4943,-212.7217 1334.5494,-182.0817"/><polygon fill="#000" stroke="#000" points="1338.047 -182.231 1335.224 -172.019 1331.063 -181.763 1338.047 -182.231"/></g><g id="node5" class="node"><title>File</title><polygon fill="none" stroke="#000" points="1454 -635 1317 -635 1317 -432 1454 -432 1454 -635"/><text x="1385.5" y="-619.8" fill="#000" font-family="Times,serif" font-size="14" text-anchor="middle">File</text><text x="1325" y="-604.8" fill="#000" font-family="Times,serif" font-size="14" text-anchor="start">* class</text><text x="1325" y="-589.8" fill="#000" font-family="Times,serif" font-size="14" text-anchor="start">* location</text><text x="1325" y="-574.8" fill="#000" font-family="Times,serif" font-size="14" text-anchor="start">* path</text><text x="1325" y="-559.8" fill="#000" font-family="Times,serif" font-size="14" text-anchor="start">* basename</text><text x="1325" y="-544.8" fill="#000" font-family="Times,serif" font-size="14" text-anchor="start">* dirname</text><text x="1325" y="-529.8" fill="#000" font-family="Times,serif" font-size="14" text-anchor="start">* nameroot</text><text x="1325" y="-514.8" fill="#000" font-family="Times,serif" font-size="14" text-anchor="start">* nameext</text><text x="1325" y="-499.8" fill="#000" font-family="Times,serif" font-size="14" text-anchor="start">* checksum</text><text x="1325" y="-484.8" fill="#000" font-family="Times,serif" font-size="14" text-anchor="start">* size</text><text x="1325" y="-469.8" fill="#000" font-family="Times,serif" font-size="14" text-anchor="start">* secondaryFiles</text><text x="1325" y="-454.8" fill="#000" font-family="Times,serif" font-size="14" text-anchor="start">* format</text><text x="1325" y="-439.8" fill="#000" font-family="Times,serif" font-size="14" text-anchor="start">* contents</text></g><g id="node6" class="node"><title>Directory</title><polygon fill="none" stroke="#000" points="1675.5 -582.5 1583.5 -582.5 1583.5 -484.5 1675.5 -484.5 1675.5 -582.5"/><text x="1629.5" y="-567.3" fill="#000" font-family="Times,serif" font-size="14" text-anchor="middle">Directory</text><text x="1591.5" y="-552.3" fill="#000" font-family="Times,serif" font-size="14" text-anchor="start">* class</text><text x="1591.5" y="-537.3" fill="#000" font-family="Times,serif" font-size="14" text-anchor="start">* location</text><text x="1591.5" y="-522.3" fill="#000" font-family="Times,serif" font-size="14" text-anchor="start">* path</text><text x="1591.5" y="-507.3" fill="#000" font-family="Times,serif" font-size="14" text-anchor="start">* basename</text><text x="1591.5" y="-492.3" fill="#000" font-family="Times,serif" font-size="14" text-anchor="start">* listing</text></g><g id="node7" class="node"><title>SchemaBase</title><ellipse cx="1177.5" cy="-533.5" fill="none" stroke="#000" rx="65.108" ry="26.741"/><text x="1177.5" y="-537.3" fill="#000" font-family="Times,serif" font-size="14" text-anchor="middle">SchemaBase</text><text x="1139.5" y="-522.3" fill="#000" font-family="Times,serif" font-size="14" text-anchor="start">* label</text></g><g id="node8" class="node"><title>Parameter</title><ellipse cx="1644.5" cy="-317" fill="none" stroke="#000" rx="96.747" ry="48.167"/><text x="1644.5" y="-335.8" fill="#000" font-family="Times,serif" font-size="14" text-anchor="middle">Parameter</text><text x="1584" y="-320.8" fill="#000" font-family="Times,serif" font-size="14" text-anchor="start">* secondaryFiles</text><text x="1584" y="-305.8" fill="#000" font-family="Times,serif" font-size="14" text-anchor="start">* streamable</text><text x="1584" y="-290.8" fill="#000" font-family="Times,serif" font-size="14" text-anchor="start">* doc</text></g><g id="edge1" class="edge"><title>SchemaBase-&gt;Parameter</title><path fill="none" stroke="#000" d="M1203.5272,-508.8659C1228.5319,-486.2952 1268.2115,-453.2537 1307.5,-432 1383.9416,-390.6478 1478.058,-360.0321 1547.3832,-340.8317"/><polygon fill="#000" stroke="#000" points="1548.706 -344.098 1557.427 -338.082 1546.857 -337.347 1548.706 -344.098"/></g><g id="node11" class="node"><title>InputSchema</title><ellipse cx="882.5" cy="-317" fill="none" stroke="#000" rx="64.189" ry="18"/><text x="882.5" y="-313.3" fill="#000" font-family="Times,serif" font-size="14" text-anchor="middle">InputSchema</text></g><g id="edge2" class="edge"><title>SchemaBase-&gt;InputSchema</title><path fill="none" stroke="#000" d="M1139.5406,-511.5595C1096.2081,-485.8873 1023.9081,-441.1219 966.5,-396 945.2637,-379.3086 923.0795,-358.2674 906.8453,-342.0978"/><polygon fill="#000" stroke="#000" points="908.916 -339.216 899.384 -334.592 903.952 -344.151 908.916 -339.216"/></g><g id="node12" class="node"><title>OutputSchema</title><ellipse cx="1177.5" cy="-317" fill="none" stroke="#000" rx="69.588" ry="18"/><text x="1177.5" y="-313.3" fill="#000" font-family="Times,serif" font-size="14" text-anchor="middle">OutputSchema</text></g><g id="edge3" class="edge"><title>SchemaBase-&gt;OutputSchema</title><path fill="none" stroke="#000" d="M1177.5,-506.5179C1177.5,-465.329 1177.5,-387.1473 1177.5,-345.227"/><polygon fill="#000" stroke="#000" points="1181 -345.152 1177.5 -335.152 1174 -345.152 1181 -345.152"/></g><g id="node21" class="node"><title>InputParameter</title><polygon fill="none" stroke="#000" points="1705.5 -202 1583.5 -202 1583.5 -104 1705.5 -104 1705.5 -202"/><text x="1644.5" y="-186.8" fill="#000" font-family="Times,serif" font-size="14" text-anchor="middle">InputParameter</text><text x="1591.5" y="-171.8" fill="#000" font-family="Times,serif" font-size="14" text-anchor="start">* id</text><text x="1591.5" y="-156.8" fill="#000" font-family="Times,serif" font-size="14" text-anchor="start">* format</text><text x="1591.5" y="-141.8" fill="#000" font-family="Times,serif" font-size="14" text-anchor="start">* inputBinding</text><text x="1591.5" y="-126.8" fill="#000" font-family="Times,serif" font-size="14" text-anchor="start">* default</text><text x="1591.5" y="-111.8" fill="#000" font-family="Times,serif" font-size="14" text-anchor="start">* type</text></g><g id="edge18" class="edge"><title>Parameter-&gt;InputParameter</title><path fill="none" stroke="#000" d="M1644.5,-268.6816C1644.5,-250.9835 1644.5,-230.7518 1644.5,-212.2091"/><polygon fill="#000" stroke="#000" points="1648 -212.108 1644.5 -202.108 1641 -212.108 1648 -212.108"/></g><g id="node22" class="node"><title>OutputParameter</title><polygon fill="none" stroke="#000" points="2018 -187 1889 -187 1889 -119 2018 -119 2018 -187"/><text x="1953.5" y="-171.8" fill="#000" font-family="Times,serif" font-size="14" text-anchor="middle">OutputParameter</text><text x="1897" y="-156.8" fill="#000" font-family="Times,serif" font-size="14" text-anchor="start">* id</text><text x="1897" y="-141.8" fill="#000" font-family="Times,serif" font-size="14" text-anchor="start">* outputBinding</text><text x="1897" y="-126.8" fill="#000" font-family="Times,serif" font-size="14" text-anchor="start">* format</text></g><g id="edge19" class="edge"><title>Parameter-&gt;OutputParameter</title><path fill="none" stroke="#000" d="M1694.5343,-275.7923C1711.6721,-262.7586 1731.3626,-248.9194 1750.5,-238 1791.3419,-214.6964 1839.831,-194.1542 1879.1755,-179.1041"/><polygon fill="#000" stroke="#000" points="1880.857 -182.21 1888.971 -175.398 1878.38 -175.663 1880.857 -182.21"/></g><g id="node9" class="node"><title>InputBinding</title><ellipse cx="1835.5" cy="-533.5" fill="none" stroke="#000" rx="86.035" ry="26.741"/><text x="1835.5" y="-537.3" fill="#000" font-family="Times,serif" font-size="14" text-anchor="middle">InputBinding</text><text x="1782.5" y="-522.3" fill="#000" font-family="Times,serif" font-size="14" text-anchor="start">* loadContents</text></g><g id="node28" class="node"><title>CommandLineBinding</title><polygon fill="none" stroke="#000" points="1911.5 -373.5 1759.5 -373.5 1759.5 -260.5 1911.5 -260.5 1911.5 -373.5"/><text x="1835.5" y="-358.3" fill="#000" font-family="Times,serif" font-size="14" text-anchor="middle">CommandLineBinding</text><text x="1767.5" y="-343.3" fill="#000" font-family="Times,serif" font-size="14" text-anchor="start">* position</text><text x="1767.5" y="-328.3" fill="#000" font-family="Times,serif" font-size="14" text-anchor="start">* prefix</text><text x="1767.5" y="-313.3" fill="#000" font-family="Times,serif" font-size="14" text-anchor="start">* separate</text><text x="1767.5" y="-298.3" fill="#000" font-family="Times,serif" font-size="14" text-anchor="start">* itemSeparator</text><text x="1767.5" y="-283.3" fill="#000" font-family="Times,serif" font-size="14" text-anchor="start">* valueFrom</text><text x="1767.5" y="-268.3" fill="#000" font-family="Times,serif" font-size="14" text-anchor="start">* shellQuote</text></g><g id="edge22" class="edge"><title>InputBinding-&gt;CommandLineBinding</title><path fill="none" stroke="#000" d="M1835.5,-506.5179C1835.5,-475.9401 1835.5,-424.9746 1835.5,-383.5929"/><polygon fill="#000" stroke="#000" points="1839 -383.569 1835.5 -373.569 1832 -383.569 1839 -383.569"/></g><g id="node10" class="node"><title>OutputBinding</title><ellipse cx="2013.5" cy="-533.5" fill="none" stroke="#000" rx="74.187" ry="18"/><text x="2013.5" y="-529.8" fill="#000" font-family="Times,serif" font-size="14" text-anchor="middle">OutputBinding</text></g><g id="node29" class="node"><title>CommandOutputBinding</title><polygon fill="none" stroke="#000" points="2097 -351 1930 -351 1930 -283 2097 -283 2097 -351"/><text x="2013.5" y="-335.8" fill="#000" font-family="Times,serif" font-size="14" text-anchor="middle">CommandOutputBinding</text><text x="1938" y="-320.8" fill="#000" font-family="Times,serif" font-size="14" text-anchor="start">* glob</text><text x="1938" y="-305.8" fill="#000" font-family="Times,serif" font-size="14" text-anchor="start">* loadContents</text><text x="1938" y="-290.8" fill="#000" font-family="Times,serif" font-size="14" text-anchor="start">* outputEval</text></g><g id="edge23" class="edge"><title>OutputBinding-&gt;CommandOutputBinding</title><path fill="none" stroke="#000" d="M2013.5,-515.4137C2013.5,-481.802 2013.5,-408.8226 2013.5,-361.3607"/><polygon fill="#000" stroke="#000" points="2017 -361.351 2013.5 -351.351 2010 -361.351 2017 -361.351"/></g><g id="edge6" class="edge"><title>InputSchema-&gt;InputRecordSchema</title><path fill="none" stroke="#000" d="M839.2485,-303.6187C778.8449,-284.3034 666.4134,-246.054 575.5,-202 560.698,-194.8274 545.0902,-185.7743 531.5687,-177.4071"/><polygon fill="#000" stroke="#000" points="533.344 -174.389 523.014 -172.034 529.621 -180.317 533.344 -174.389"/></g><g id="edge8" class="edge"><title>InputSchema-&gt;InputEnumSchema</title><path fill="none" stroke="#000" d="M881.2808,-298.8225C879.5217,-272.5967 876.2338,-223.5767 873.9586,-189.6562"/><polygon fill="#000" stroke="#000" points="877.449 -189.399 873.288 -179.656 870.465 -189.868 877.449 -189.399"/></g><g id="edge10" class="edge"><title>InputSchema-&gt;InputArraySchema</title><path fill="none" stroke="#000" d="M897.4825,-299.4491C921.9715,-270.762 970.7295,-213.6455 999.5854,-179.8428"/><polygon fill="#000" stroke="#000" points="1002.288 -182.067 1006.119 -172.189 996.964 -177.523 1002.288 -182.067"/></g><g id="edge13" class="edge"><title>OutputSchema-&gt;OutputRecordSchema</title><path fill="none" stroke="#000" d="M1160.7934,-299.1817C1142.16,-280.5447 1110.1828,-252.0843 1076.5,-238 961.1502,-189.7669 919.0651,-231.2219 797.5,-202 768.9703,-195.142 738.1245,-184.4191 712.9384,-174.7506"/><polygon fill="#000" stroke="#000" points="714.168 -171.473 703.579 -171.107 711.628 -177.996 714.168 -171.473"/></g><g id="edge15" class="edge"><title>OutputSchema-&gt;OutputEnumSchema</title><path fill="none" stroke="#000" d="M1177.5,-298.8225C1177.5,-270.6026 1177.5,-215.9907 1177.5,-182.1974"/><polygon fill="#000" stroke="#000" points="1181 -182.017 1177.5 -172.017 1174 -182.017 1181 -182.017"/></g><g id="edge17" class="edge"><title>OutputSchema-&gt;OutputArraySchema</title><path fill="none" stroke="#000" d="M1194.5158,-299.4491C1222.4457,-270.6409 1278.1713,-213.163 1310.8892,-179.4162"/><polygon fill="#000" stroke="#000" points="1313.448 -181.805 1317.896 -172.189 1308.422 -176.933 1313.448 -181.805"/></g><g id="node30" class="node"><title>CommandInputRecordField</title><polygon fill="none" stroke="#000" points="189 -171 0 -171 0 -135 189 -135 189 -171"/><text x="94.5" y="-149.3" fill="#000" font-family="Times,serif" font-size="14" text-anchor="middle">CommandInputRecordField</text></g><g id="edge24" class="edge"><title>InputRecordField-&gt;CommandInputRecordField</title><path fill="none" stroke="#000" d="M105.3824,-290.2856C103.0011,-260.2447 99.151,-211.6737 96.7261,-181.0833"/><polygon fill="#000" stroke="#000" points="100.212 -180.765 95.933 -171.073 93.234 -181.318 100.212 -180.765"/></g><g id="node31" class="node"><title>CommandInputRecordSchema</title><polygon fill="none" stroke="#000" points="487 -52 290 -52 290 -16 487 -16 487 -52"/><text x="388.5" y="-30.3" fill="#000" font-family="Times,serif" font-size="14" text-anchor="middle">CommandInputRecordSchema</text></g><g id="edge25" class="edge"><title>InputRecordSchema-&gt;CommandInputRecordSchema</title><path fill="none" stroke="#000" d="M477.4693,-133.8806C459.6435,-113.8687 431.5394,-82.3179 411.6952,-60.0399"/><polygon fill="#000" stroke="#000" points="414.057 -57.429 404.792 -52.29 408.83 -62.086 414.057 -57.429"/></g><g id="node32" class="node"><title>CommandInputEnumSchema</title><polygon fill="none" stroke="#000" points="909.5 -52 727.5 -52 727.5 -16 909.5 -16 909.5 -52"/><text x="818.5" y="-30.3" fill="#000" font-family="Times,serif" font-size="14" text-anchor="middle">CommandInputEnumSchema</text></g><g id="edge26" class="edge"><title>InputEnumSchema-&gt;CommandInputEnumSchema</title><path fill="none" stroke="#000" d="M859.6058,-126.2941C850.9899,-106.949 839.3784,-80.8779 830.694,-61.3791"/><polygon fill="#000" stroke="#000" points="833.837 -59.834 826.572 -52.123 827.443 -62.682 833.837 -59.834"/></g><g id="node33" class="node"><title>CommandInputArraySchema</title><polygon fill="none" stroke="#000" points="1117 -52 928 -52 928 -16 1117 -16 1117 -52"/><text x="1022.5" y="-30.3" fill="#000" font-family="Times,serif" font-size="14" text-anchor="middle">CommandInputArraySchema</text></g><g id="edge27" class="edge"><title>InputArraySchema-&gt;CommandInputArraySchema</title><path fill="none" stroke="#000" d="M1022.5,-133.8806C1022.5,-114.5709 1022.5,-84.5177 1022.5,-62.4183"/><polygon fill="#000" stroke="#000" points="1026 -62.29 1022.5 -52.29 1019 -62.29 1026 -62.29"/></g><g id="node34" class="node"><title>CommandOutputRecordField</title><polygon fill="none" stroke="#000" points="404 -171 207 -171 207 -135 404 -135 404 -171"/><text x="305.5" y="-149.3" fill="#000" font-family="Times,serif" font-size="14" text-anchor="middle">CommandOutputRecordField</text></g><g id="edge28" class="edge"><title>OutputRecordField-&gt;CommandOutputRecordField</title><path fill="none" stroke="#000" d="M294.0167,-297.8661C296.3012,-269.0461 300.6382,-214.3333 303.2792,-181.0167"/><polygon fill="#000" stroke="#000" points="306.771 -181.257 304.072 -171.011 299.793 -180.703 306.771 -181.257"/></g><g id="node35" class="node"><title>CommandOutputRecordSchema</title><polygon fill="none" stroke="#000" points="709.5 -53 505.5 -53 505.5 -15 709.5 -15 709.5 -53"/><text x="607.5" y="-37.8" fill="#000" font-family="Times,serif" font-size="14" text-anchor="middle">CommandOutputRecordSchema</text><text x="513.5" y="-22.8" fill="#000" font-family="Times,serif" font-size="14" text-anchor="start">* name</text></g><g id="edge29" class="edge"><title>OutputRecordSchema-&gt;CommandOutputRecordSchema</title><path fill="none" stroke="#000" d="M652.4504,-134.9265C643.8738,-115.6696 630.1785,-84.9197 620.1563,-62.417"/><polygon fill="#000" stroke="#000" points="623.243 -60.744 615.977 -53.033 616.848 -63.592 623.243 -60.744"/></g><g id="node36" class="node"><title>CommandOutputEnumSchema</title><polygon fill="none" stroke="#000" points="1324 -52 1135 -52 1135 -16 1324 -16 1324 -52"/><text x="1229.5" y="-30.3" fill="#000" font-family="Times,serif" font-size="14" text-anchor="middle">CommandOutputEnumSchema</text></g><g id="edge30" class="edge"><title>OutputEnumSchema-&gt;CommandOutputEnumSchema</title><path fill="none" stroke="#000" d="M1185.8547,-133.8806C1194.4076,-114.3076 1207.7841,-83.6961 1217.475,-61.5187"/><polygon fill="#000" stroke="#000" points="1220.711 -62.855 1221.508 -52.29 1214.296 -60.052 1220.711 -62.855"/></g><g id="node37" class="node"><title>CommandOutputArraySchema</title><polygon fill="none" stroke="#000" points="1539 -52 1342 -52 1342 -16 1539 -16 1539 -52"/><text x="1440.5" y="-30.3" fill="#000" font-family="Times,serif" font-size="14" text-anchor="middle">CommandOutputArraySchema</text></g><g id="edge31" class="edge"><title>OutputArraySchema-&gt;CommandOutputArraySchema</title><path fill="none" stroke="#000" d="M1353.2094,-133.8806C1370.6988,-113.8687 1398.2726,-82.3179 1417.7425,-60.0399"/><polygon fill="#000" stroke="#000" points="1420.57 -62.123 1424.515 -52.29 1415.299 -57.517 1420.57 -62.123"/></g><g id="node38" class="node"><title>CommandInputParameter</title><polygon fill="none" stroke="#000" points="1731.5 -52 1557.5 -52 1557.5 -16 1731.5 -16 1731.5 -52"/><text x="1644.5" y="-30.3" fill="#000" font-family="Times,serif" font-size="14" text-anchor="middle">CommandInputParameter</text></g><g id="edge32" class="edge"><title>InputParameter-&gt;CommandInputParameter</title><path fill="none" stroke="#000" d="M1644.5,-103.9111C1644.5,-89.749 1644.5,-74.7746 1644.5,-62.3333"/><polygon fill="#000" stroke="#000" points="1648 -62.136 1644.5 -52.136 1641 -62.136 1648 -62.136"/></g><g id="node39" class="node"><title>CommandOutputParameter</title><polygon fill="none" stroke="#000" points="1931.5 -53 1749.5 -53 1749.5 -15 1931.5 -15 1931.5 -53"/><text x="1840.5" y="-37.8" fill="#000" font-family="Times,serif" font-size="14" text-anchor="middle">CommandOutputParameter</text><text x="1757.5" y="-22.8" fill="#000" font-family="Times,serif" font-size="14" text-anchor="start">* type</text></g><g id="edge33" class="edge"><title>OutputParameter-&gt;CommandOutputParameter</title><path fill="none" stroke="#000" d="M1921.1187,-118.8994C1903.5865,-100.4362 1882.2398,-77.9561 1865.9177,-60.7673"/><polygon fill="#000" stroke="#000" points="1868.228 -58.117 1858.804 -53.276 1863.151 -62.937 1868.228 -58.117"/></g><g id="node49" class="node"><title>ExpressionToolOutputParameter</title><polygon fill="none" stroke="#000" points="2183.5 -53 1949.5 -53 1949.5 -15 2183.5 -15 2183.5 -53"/><text x="2066.5" y="-37.8" fill="#000" font-family="Times,serif" font-size="14" text-anchor="middle">ExpressionToolOutputParameter</text><text x="1957.5" y="-22.8" fill="#000" font-family="Times,serif" font-size="14" text-anchor="start">* type</text></g><g id="edge41" class="edge"><title>OutputParameter-&gt;ExpressionToolOutputParameter</title><path fill="none" stroke="#000" d="M1985.8813,-118.8994C2003.4135,-100.4362 2024.7602,-77.9561 2041.0823,-60.7673"/><polygon fill="#000" stroke="#000" points="2043.849 -62.937 2048.196 -53.276 2038.772 -58.117 2043.849 -62.937"/></g><g id="node51" class="node"><title>WorkflowOutputParameter</title><polygon fill="none" stroke="#000" points="2391 -68 2202 -68 2202 0 2391 0 2391 -68"/><text x="2296.5" y="-52.8" fill="#000" font-family="Times,serif" font-size="14" text-anchor="middle">WorkflowOutputParameter</text><text x="2210" y="-37.8" fill="#000" font-family="Times,serif" font-size="14" text-anchor="start">* outputSource</text><text x="2210" y="-22.8" fill="#000" font-family="Times,serif" font-size="14" text-anchor="start">* linkMerge</text><text x="2210" y="-7.8" fill="#000" font-family="Times,serif" font-size="14" text-anchor="start">* type</text></g><g id="edge43" class="edge"><title>OutputParameter-&gt;WorkflowOutputParameter</title><path fill="none" stroke="#000" d="M2018.0157,-130.617C2066.9961,-113.6238 2135.3611,-89.9053 2192.0959,-70.2218"/><polygon fill="#000" stroke="#000" points="2193.519 -73.433 2201.82 -66.848 2191.225 -66.819 2193.519 -73.433"/></g><g id="node23" class="node"><title>ProcessRequirement</title><ellipse cx="3306.5" cy="-533.5" fill="none" stroke="#000" rx="98.583" ry="18"/><text x="3306.5" y="-529.8" fill="#000" font-family="Times,serif" font-size="14" text-anchor="middle">ProcessRequirement</text></g><g id="node25" class="node"><title>InlineJavascriptRequirement</title><polygon fill="none" stroke="#000" points="2334 -343.5 2115 -343.5 2115 -290.5 2334 -290.5 2334 -343.5"/><text x="2224.5" y="-328.3" fill="#000" font-family="Times,serif" font-size="14" text-anchor="middle">InlineJavascriptRequirement</text><text x="2123" y="-313.3" fill="#000" font-family="Times,serif" font-size="14" text-anchor="start">* class</text><text x="2123" y="-298.3" fill="#000" font-family="Times,serif" font-size="14" text-anchor="start">* expressionLib</text></g><g id="edge20" class="edge"><title>ProcessRequirement-&gt;InlineJavascriptRequirement</title><path fill="none" stroke="#000" d="M3216.8156,-525.8455C3009.3437,-507.3152 2501.8489,-457.0401 2342.5,-396 2314.1243,-385.1304 2285.7193,-366.4149 2263.8908,-349.928"/><polygon fill="#000" stroke="#000" points="2265.918 -347.071 2255.86 -343.739 2261.645 -352.616 2265.918 -347.071"/></g><g id="node26" class="node"><title>SchemaDefRequirement</title><polygon fill="none" stroke="#000" points="2519 -343.5 2352 -343.5 2352 -290.5 2519 -290.5 2519 -343.5"/><text x="2435.5" y="-328.3" fill="#000" font-family="Times,serif" font-size="14" text-anchor="middle">SchemaDefRequirement</text><text x="2360" y="-313.3" fill="#000" font-family="Times,serif" font-size="14" text-anchor="start">* class</text><text x="2360" y="-298.3" fill="#000" font-family="Times,serif" font-size="14" text-anchor="start">* types</text></g><g id="edge21" class="edge"><title>ProcessRequirement-&gt;SchemaDefRequirement</title><path fill="none" stroke="#000" d="M3221.5916,-524.255C3046.1683,-504.2297 2649.9221,-453.9505 2527.5,-396 2504.5632,-385.1425 2482.8293,-366.9949 2466.2508,-350.8296"/><polygon fill="#000" stroke="#000" points="2468.552 -348.181 2459.011 -343.575 2463.597 -353.126 2468.552 -348.181"/></g><g id="node41" class="node"><title>DockerRequirement</title><polygon fill="none" stroke="#000" points="2726 -381 2537 -381 2537 -253 2726 -253 2726 -381"/><text x="2631.5" y="-365.8" fill="#000" font-family="Times,serif" font-size="14" text-anchor="middle">DockerRequirement</text><text x="2545" y="-350.8" fill="#000" font-family="Times,serif" font-size="14" text-anchor="start">* class</text><text x="2545" y="-335.8" fill="#000" font-family="Times,serif" font-size="14" text-anchor="start">* dockerPull</text><text x="2545" y="-320.8" fill="#000" font-family="Times,serif" font-size="14" text-anchor="start">* dockerLoad</text><text x="2545" y="-305.8" fill="#000" font-family="Times,serif" font-size="14" text-anchor="start">* dockerFile</text><text x="2545" y="-290.8" fill="#000" font-family="Times,serif" font-size="14" text-anchor="start">* dockerImport</text><text x="2545" y="-275.8" fill="#000" font-family="Times,serif" font-size="14" text-anchor="start">* dockerImageId</text><text x="2545" y="-260.8" fill="#000" font-family="Times,serif" font-size="14" text-anchor="start">* dockerOutputDirectory</text></g><g id="edge35" class="edge"><title>ProcessRequirement-&gt;DockerRequirement</title><path fill="none" stroke="#000" d="M3221.366,-524.283C3106.2611,-509.3612 2896.7427,-473.3935 2734.5,-396 2728.4869,-393.1316 2722.489,-389.8722 2716.5831,-386.3504"/><polygon fill="#000" stroke="#000" points="2718.345 -383.325 2708.005 -381.018 2714.65 -389.27 2718.345 -383.325"/></g><g id="node42" class="node"><title>SoftwareRequirement</title><polygon fill="none" stroke="#000" points="2903 -343.5 2744 -343.5 2744 -290.5 2903 -290.5 2903 -343.5"/><text x="2823.5" y="-328.3" fill="#000" font-family="Times,serif" font-size="14" text-anchor="middle">SoftwareRequirement</text><text x="2752" y="-313.3" fill="#000" font-family="Times,serif" font-size="14" text-anchor="start">* class</text><text x="2752" y="-298.3" fill="#000" font-family="Times,serif" font-size="14" text-anchor="start">* packages</text></g><g id="edge36" class="edge"><title>ProcessRequirement-&gt;SoftwareRequirement</title><path fill="none" stroke="#000" d="M3242.9736,-519.6494C3162.0349,-500.2021 3019.6772,-459.859 2911.5,-396 2890.9882,-383.8915 2870.9945,-366.533 2855.262,-351.1697"/><polygon fill="#000" stroke="#000" points="2857.448 -348.406 2847.897 -343.82 2852.503 -353.361 2857.448 -348.406"/></g><g id="node45" class="node"><title>InitialWorkDirRequirement</title><polygon fill="none" stroke="#000" points="3124.5 -343.5 2920.5 -343.5 2920.5 -290.5 3124.5 -290.5 3124.5 -343.5"/><text x="3022.5" y="-328.3" fill="#000" font-family="Times,serif" font-size="14" text-anchor="middle">InitialWorkDirRequirement</text><text x="2928.5" y="-313.3" fill="#000" font-family="Times,serif" font-size="14" text-anchor="start">* class</text><text x="2928.5" y="-298.3" fill="#000" font-family="Times,serif" font-size="14" text-anchor="start">* listing</text></g><g id="edge37" class="edge"><title>ProcessRequirement-&gt;InitialWorkDirRequirement</title><path fill="none" stroke="#000" d="M3283.2591,-515.7829C3235.6859,-479.5167 3126.5687,-396.3341 3065.6429,-349.8889"/><polygon fill="#000" stroke="#000" points="3067.452 -346.867 3057.377 -343.588 3063.208 -352.434 3067.452 -346.867"/></g><g id="node46" class="node"><title>EnvVarRequirement</title><polygon fill="none" stroke="#000" points="3286.5 -343.5 3142.5 -343.5 3142.5 -290.5 3286.5 -290.5 3286.5 -343.5"/><text x="3214.5" y="-328.3" fill="#000" font-family="Times,serif" font-size="14" text-anchor="middle">EnvVarRequirement</text><text x="3150.5" y="-313.3" fill="#000" font-family="Times,serif" font-size="14" text-anchor="start">* class</text><text x="3150.5" y="-298.3" fill="#000" font-family="Times,serif" font-size="14" text-anchor="start">* envDef</text></g><g id="edge38" class="edge"><title>ProcessRequirement-&gt;EnvVarRequirement</title><path fill="none" stroke="#000" d="M3298.8144,-515.4137C3283.695,-479.834 3249.8303,-400.1414 3229.925,-353.2991"/><polygon fill="#000" stroke="#000" points="3233.033 -351.664 3225.901 -343.83 3226.591 -354.402 3233.033 -351.664"/></g><g id="node47" class="node"><title>ShellCommandRequirement</title><polygon fill="none" stroke="#000" points="3494 -336 3305 -336 3305 -298 3494 -298 3494 -336"/><text x="3399.5" y="-320.8" fill="#000" font-family="Times,serif" font-size="14" text-anchor="middle">ShellCommandRequirement</text><text x="3313" y="-305.8" fill="#000" font-family="Times,serif" font-size="14" text-anchor="start">* class</text></g><g id="edge39" class="edge"><title>ProcessRequirement-&gt;ShellCommandRequirement</title><path fill="none" stroke="#000" d="M3314.2692,-515.4137C3330.4563,-477.7307 3367.8991,-390.5655 3387.3209,-345.3524"/><polygon fill="#000" stroke="#000" points="3390.559 -346.683 3391.29 -336.113 3384.127 -343.92 3390.559 -346.683"/></g><g id="node48" class="node"><title>ResourceRequirement</title><polygon fill="none" stroke="#000" points="3671 -396 3512 -396 3512 -238 3671 -238 3671 -396"/><text x="3591.5" y="-380.8" fill="#000" font-family="Times,serif" font-size="14" text-anchor="middle">ResourceRequirement</text><text x="3520" y="-365.8" fill="#000" font-family="Times,serif" font-size="14" text-anchor="start">* class</text><text x="3520" y="-350.8" fill="#000" font-family="Times,serif" font-size="14" text-anchor="start">* coresMin</text><text x="3520" y="-335.8" fill="#000" font-family="Times,serif" font-size="14" text-anchor="start">* coresMax</text><text x="3520" y="-320.8" fill="#000" font-family="Times,serif" font-size="14" text-anchor="start">* ramMin</text><text x="3520" y="-305.8" fill="#000" font-family="Times,serif" font-size="14" text-anchor="start">* ramMax</text><text x="3520" y="-290.8" fill="#000" font-family="Times,serif" font-size="14" text-anchor="start">* tmpdirMin</text><text x="3520" y="-275.8" fill="#000" font-family="Times,serif" font-size="14" text-anchor="start">* tmpdirMax</text><text x="3520" y="-260.8" fill="#000" font-family="Times,serif" font-size="14" text-anchor="start">* outdirMin</text><text x="3520" y="-245.8" fill="#000" font-family="Times,serif" font-size="14" text-anchor="start">* outdirMax</text></g><g id="edge40" class="edge"><title>ProcessRequirement-&gt;ResourceRequirement</title><path fill="none" stroke="#000" d="M3333.5088,-515.9745C3371.9651,-490.7057 3444.291,-442.0073 3502.5,-396 3502.9812,-395.6197 3503.4632,-395.2375 3503.9459,-394.8537"/><polygon fill="#000" stroke="#000" points="3506.234 -397.505 3511.816 -388.5 3501.837 -392.058 3506.234 -397.505"/></g><g id="node57" class="node"><title>SubworkflowFeatureRequirement</title><polygon fill="none" stroke="#000" points="3923.5 -336 3689.5 -336 3689.5 -298 3923.5 -298 3923.5 -336"/><text x="3806.5" y="-320.8" fill="#000" font-family="Times,serif" font-size="14" text-anchor="middle">SubworkflowFeatureRequirement</text><text x="3697.5" y="-305.8" fill="#000" font-family="Times,serif" font-size="14" text-anchor="start">* class</text></g><g id="edge46" class="edge"><title>ProcessRequirement-&gt;SubworkflowFeatureRequirement</title><path fill="none" stroke="#000" d="M3358.2362,-518.11C3431.5331,-495.4903 3568.9844,-450.0443 3679.5,-396 3711.6341,-380.2858 3745.9598,-358.6077 3770.8133,-341.9347"/><polygon fill="#000" stroke="#000" points="3772.871 -344.768 3779.19 -336.264 3768.947 -338.971 3772.871 -344.768"/></g><g id="node58" class="node"><title>ScatterFeatureRequirement</title><polygon fill="none" stroke="#000" points="4145.5 -336 3941.5 -336 3941.5 -298 4145.5 -298 4145.5 -336"/><text x="4043.5" y="-320.8" fill="#000" font-family="Times,serif" font-size="14" text-anchor="middle">ScatterFeatureRequirement</text><text x="3949.5" y="-305.8" fill="#000" font-family="Times,serif" font-size="14" text-anchor="start">* class</text></g><g id="edge47" class="edge"><title>ProcessRequirement-&gt;ScatterFeatureRequirement</title><path fill="none" stroke="#000" d="M3394.7416,-525.3741C3519.1951,-511.4505 3751.3127,-476.3444 3932.5,-396 3962.7937,-382.5668 3993.1748,-360.1758 4014.4746,-342.6551"/><polygon fill="#000" stroke="#000" points="4016.754 -345.311 4022.174 -336.207 4012.26 -339.944 4016.754 -345.311"/></g><g id="node59" class="node"><title>MultipleInputFeatureRequirement</title><polygon fill="none" stroke="#000" points="4412 -336 4163 -336 4163 -298 4412 -298 4412 -336"/><text x="4287.5" y="-320.8" fill="#000" font-family="Times,serif" font-size="14" text-anchor="middle">MultipleInputFeatureRequirement</text><text x="4171" y="-305.8" fill="#000" font-family="Times,serif" font-size="14" text-anchor="start">* class</text></g><g id="edge48" class="edge"><title>ProcessRequirement-&gt;MultipleInputFeatureRequirement</title><path fill="none" stroke="#000" d="M3402.9027,-529.5582C3563.3652,-520.4525 3893.4033,-490.8245 4154.5,-396 4190.5604,-382.9037 4227.7898,-359.8242 4253.6552,-341.981"/><polygon fill="#000" stroke="#000" points="4255.792 -344.757 4261.973 -336.153 4251.775 -339.025 4255.792 -344.757"/></g><g id="node60" class="node"><title>StepInputExpressionRequirement</title><polygon fill="none" stroke="#000" points="4672.5 -336 4430.5 -336 4430.5 -298 4672.5 -298 4672.5 -336"/><text x="4551.5" y="-320.8" fill="#000" font-family="Times,serif" font-size="14" text-anchor="middle">StepInputExpressionRequirement</text><text x="4438.5" y="-305.8" fill="#000" font-family="Times,serif" font-size="14" text-anchor="start">* class</text></g><g id="edge49" class="edge"><title>ProcessRequirement-&gt;StepInputExpressionRequirement</title><path fill="none" stroke="#000" d="M3399.0439,-527.0709C3630.9271,-510.1667 4231.7131,-461.2416 4420.5,-396 4456.5839,-383.53 4493.4493,-360.155 4518.841,-342.0538"/><polygon fill="#000" stroke="#000" points="4520.954 -344.845 4526.994 -336.141 4516.845 -339.178 4520.954 -344.845"/></g><g id="node24" class="node"><title>Process</title><ellipse cx="4936.5" cy="-533.5" fill="none" stroke="#000" rx="86.035" ry="101.233"/><text x="4936.5" y="-589.8" fill="#000" font-family="Times,serif" font-size="14" text-anchor="middle">Process</text><text x="4883.5" y="-574.8" fill="#000" font-family="Times,serif" font-size="14" text-anchor="start">* id</text><text x="4883.5" y="-559.8" fill="#000" font-family="Times,serif" font-size="14" text-anchor="start">* inputs</text><text x="4883.5" y="-544.8" fill="#000" font-family="Times,serif" font-size="14" text-anchor="start">* outputs</text><text x="4883.5" y="-529.8" fill="#000" font-family="Times,serif" font-size="14" text-anchor="start">* requirements</text><text x="4883.5" y="-514.8" fill="#000" font-family="Times,serif" font-size="14" text-anchor="start">* hints</text><text x="4883.5" y="-499.8" fill="#000" font-family="Times,serif" font-size="14" text-anchor="start">* label</text><text x="4883.5" y="-484.8" fill="#000" font-family="Times,serif" font-size="14" text-anchor="start">* doc</text><text x="4883.5" y="-469.8" fill="#000" font-family="Times,serif" font-size="14" text-anchor="start">* cwlVersion</text></g><g id="node40" class="node"><title>CommandLineTool</title><polygon fill="none" stroke="#000" points="4857 -396 4690 -396 4690 -238 4857 -238 4857 -396"/><text x="4773.5" y="-380.8" fill="#000" font-family="Times,serif" font-size="14" text-anchor="middle">CommandLineTool</text><text x="4698" y="-365.8" fill="#000" font-family="Times,serif" font-size="14" text-anchor="start">* class</text><text x="4698" y="-350.8" fill="#000" font-family="Times,serif" font-size="14" text-anchor="start">* baseCommand</text><text x="4698" y="-335.8" fill="#000" font-family="Times,serif" font-size="14" text-anchor="start">* arguments</text><text x="4698" y="-320.8" fill="#000" font-family="Times,serif" font-size="14" text-anchor="start">* stdin</text><text x="4698" y="-305.8" fill="#000" font-family="Times,serif" font-size="14" text-anchor="start">* stderr</text><text x="4698" y="-290.8" fill="#000" font-family="Times,serif" font-size="14" text-anchor="start">* stdout</text><text x="4698" y="-275.8" fill="#000" font-family="Times,serif" font-size="14" text-anchor="start">* successCodes</text><text x="4698" y="-260.8" fill="#000" font-family="Times,serif" font-size="14" text-anchor="start">* temporaryFailCodes</text><text x="4698" y="-245.8" fill="#000" font-family="Times,serif" font-size="14" text-anchor="start">* permanentFailCodes</text></g><g id="edge34" class="edge"><title>Process-&gt;CommandLineTool</title><path fill="none" stroke="#000" d="M4879.2615,-457.4746C4866.295,-440.2523 4852.427,-421.8325 4839.1436,-404.1892"/><polygon fill="#000" stroke="#000" points="4841.898 -402.028 4833.087 -396.145 4836.306 -406.239 4841.898 -402.028"/></g><g id="node50" class="node"><title>ExpressionTool</title><polygon fill="none" stroke="#000" points="4997.5 -343.5 4875.5 -343.5 4875.5 -290.5 4997.5 -290.5 4997.5 -343.5"/><text x="4936.5" y="-328.3" fill="#000" font-family="Times,serif" font-size="14" text-anchor="middle">ExpressionTool</text><text x="4883.5" y="-313.3" fill="#000" font-family="Times,serif" font-size="14" text-anchor="start">* class</text><text x="4883.5" y="-298.3" fill="#000" font-family="Times,serif" font-size="14" text-anchor="start">* expression</text></g><g id="edge42" class="edge"><title>Process-&gt;ExpressionTool</title><path fill="none" stroke="#000" d="M4936.5,-432.2228C4936.5,-404.2284 4936.5,-375.6095 4936.5,-353.8967"/><polygon fill="#000" stroke="#000" points="4940 -353.825 4936.5 -343.825 4933 -353.825 4940 -353.825"/></g><g id="node56" class="node"><title>Workflow</title><polygon fill="none" stroke="#000" points="5093 -343.5 5016 -343.5 5016 -290.5 5093 -290.5 5093 -343.5"/><text x="5054.5" y="-328.3" fill="#000" font-family="Times,serif" font-size="14" text-anchor="middle">Workflow</text><text x="5024" y="-313.3" fill="#000" font-family="Times,serif" font-size="14" text-anchor="start">* class</text><text x="5024" y="-298.3" fill="#000" font-family="Times,serif" font-size="14" text-anchor="start">* steps</text></g><g id="edge45" class="edge"><title>Process-&gt;Workflow</title><path fill="none" stroke="#000" d="M4982.9673,-448.2442C5001.1183,-414.9418 5020.9284,-378.5953 5035.0893,-352.6137"/><polygon fill="#000" stroke="#000" points="5038.325 -353.991 5040.037 -343.535 5032.178 -350.641 5038.325 -353.991"/></g><g id="node27" class="node"><title>EnvironmentDef</title><polygon fill="none" stroke="#000" points="5162.5 -560 5040.5 -560 5040.5 -507 5162.5 -507 5162.5 -560"/><text x="5101.5" y="-544.8" fill="#000" font-family="Times,serif" font-size="14" text-anchor="middle">EnvironmentDef</text><text x="5048.5" y="-529.8" fill="#000" font-family="Times,serif" font-size="14" text-anchor="start">* envName</text><text x="5048.5" y="-514.8" fill="#000" font-family="Times,serif" font-size="14" text-anchor="start">* envValue</text></g><g id="node43" class="node"><title>SoftwarePackage</title><polygon fill="none" stroke="#000" points="5310 -567.5 5181 -567.5 5181 -499.5 5310 -499.5 5310 -567.5"/><text x="5245.5" y="-552.3" fill="#000" font-family="Times,serif" font-size="14" text-anchor="middle">SoftwarePackage</text><text x="5189" y="-537.3" fill="#000" font-family="Times,serif" font-size="14" text-anchor="start">* package</text><text x="5189" y="-522.3" fill="#000" font-family="Times,serif" font-size="14" text-anchor="start">* version</text><text x="5189" y="-507.3" fill="#000" font-family="Times,serif" font-size="14" text-anchor="start">* specs</text></g><g id="node44" class="node"><title>Dirent</title><polygon fill="none" stroke="#000" points="5427 -567.5 5328 -567.5 5328 -499.5 5427 -499.5 5427 -567.5"/><text x="5377.5" y="-552.3" fill="#000" font-family="Times,serif" font-size="14" text-anchor="middle">Dirent</text><text x="5336" y="-537.3" fill="#000" font-family="Times,serif" font-size="14" text-anchor="start">* entryname</text><text x="5336" y="-522.3" fill="#000" font-family="Times,serif" font-size="14" text-anchor="start">* entry</text><text x="5336" y="-507.3" fill="#000" font-family="Times,serif" font-size="14" text-anchor="start">* writable</text></g><g id="node52" class="node"><title>Sink</title><ellipse cx="5515.5" cy="-533.5" fill="none" stroke="#000" rx="70.007" ry="37.453"/><text x="5515.5" y="-544.8" fill="#000" font-family="Times,serif" font-size="14" text-anchor="middle">Sink</text><text x="5474" y="-529.8" fill="#000" font-family="Times,serif" font-size="14" text-anchor="start">* source</text><text x="5474" y="-514.8" fill="#000" font-family="Times,serif" font-size="14" text-anchor="start">* linkMerge</text></g><g id="node53" class="node"><title>WorkflowStepInput</title><polygon fill="none" stroke="#000" points="5587.5 -351 5443.5 -351 5443.5 -283 5587.5 -283 5587.5 -351"/><text x="5515.5" y="-335.8" fill="#000" font-family="Times,serif" font-size="14" text-anchor="middle">WorkflowStepInput</text><text x="5451.5" y="-320.8" fill="#000" font-family="Times,serif" font-size="14" text-anchor="start">* id</text><text x="5451.5" y="-305.8" fill="#000" font-family="Times,serif" font-size="14" text-anchor="start">* default</text><text x="5451.5" y="-290.8" fill="#000" font-family="Times,serif" font-size="14" text-anchor="start">* valueFrom</text></g><g id="edge44" class="edge"><title>Sink-&gt;WorkflowStepInput</title><path fill="none" stroke="#000" d="M5515.5,-495.7886C5515.5,-458.3102 5515.5,-400.8512 5515.5,-361.2387"/><polygon fill="#000" stroke="#000" points="5519 -361.074 5515.5 -351.074 5512 -361.074 5519 -361.074"/></g><g id="node54" class="node"><title>WorkflowStepOutput</title><polygon fill="none" stroke="#000" points="5755.5 -552.5 5603.5 -552.5 5603.5 -514.5 5755.5 -514.5 5755.5 -552.5"/><text x="5679.5" y="-537.3" fill="#000" font-family="Times,serif" font-size="14" text-anchor="middle">WorkflowStepOutput</text><text x="5611.5" y="-522.3" fill="#000" font-family="Times,serif" font-size="14" text-anchor="start">* id</text></g><g id="node55" class="node"><title>WorkflowStep</title><polygon fill="none" stroke="#000" points="5903 -620 5774 -620 5774 -447 5903 -447 5903 -620"/><text x="5838.5" y="-604.8" fill="#000" font-family="Times,serif" font-size="14" text-anchor="middle">WorkflowStep</text><text x="5782" y="-589.8" fill="#000" font-family="Times,serif" font-size="14" text-anchor="start">* id</text><text x="5782" y="-574.8" fill="#000" font-family="Times,serif" font-size="14" text-anchor="start">* in</text><text x="5782" y="-559.8" fill="#000" font-family="Times,serif" font-size="14" text-anchor="start">* out</text><text x="5782" y="-544.8" fill="#000" font-family="Times,serif" font-size="14" text-anchor="start">* requirements</text><text x="5782" y="-529.8" fill="#000" font-family="Times,serif" font-size="14" text-anchor="start">* hints</text><text x="5782" y="-514.8" fill="#000" font-family="Times,serif" font-size="14" text-anchor="start">* label</text><text x="5782" y="-499.8" fill="#000" font-family="Times,serif" font-size="14" text-anchor="start">* doc</text><text x="5782" y="-484.8" fill="#000" font-family="Times,serif" font-size="14" text-anchor="start">* run</text><text x="5782" y="-469.8" fill="#000" font-family="Times,serif" font-size="14" text-anchor="start">* scatter</text><text x="5782" y="-454.8" fill="#000" font-family="Times,serif" font-size="14" text-anchor="start">* scatterMethod</text></g></g></svg>