<?xml version="1.0" encoding="UTF-8" standalone="no"?>
<!DOCTYPE svg PUBLIC "-//W3C//DTD SVG 1.1//EN"
 "http://www.w3.org/Graphics/SVG/1.1/DTD/svg11.dtd">
<!-- Generated by graphviz version 8.0.5 (20230430.1635)
 -->
<!-- Pages: 1 -->
<svg width="1023pt" height="118146pt"
 viewBox="0.00 0.00 1022.75 118146.46" xmlns="http://www.w3.org/2000/svg" xmlns:xlink="http://www.w3.org/1999/xlink">
<g id="graph0" class="graph" transform="scale(1 1) rotate(0) translate(4 118142.46)">
<polygon fill="white" stroke="none" points="-4,4 -4,-118142.46 1018.75,-118142.46 1018.75,4 -4,4"/>
<!-- RecordField -->
<g id="node1" class="node">
<title>RecordField</title>
<polygon fill="none" stroke="black" points="121,-118106.96 22.5,-118106.96 22.5,-118033.09 121,-118033.09 121,-118106.96"/>
<text text-anchor="middle" x="71.75" y="-118089.66" font-family="Times,serif" font-size="14.00">RecordField</text>
<text text-anchor="start" x="30.5" y="-118079.16" font-family="Times,serif" font-size="14.00">* name</text>
<text text-anchor="start" x="30.5" y="-118068.66" font-family="Times,serif" font-size="14.00">* doc</text>
<text text-anchor="start" x="30.5" y="-118034.29" font-family="Times,serif" font-size="14.00">* type</text>
</g>
<!-- SaladRecordField -->
<g id="node10" class="node">
<title>SaladRecordField</title>
<polygon fill="none" stroke="black" points="143.5,-59055.98 0,-59055.98 0,-59003.11 143.5,-59003.11 143.5,-59055.98"/>
<text text-anchor="middle" x="71.75" y="-59038.68" font-family="Times,serif" font-size="14.00">SaladRecordField</text>
<text text-anchor="start" x="8" y="-59004.31" font-family="Times,serif" font-size="14.00">* jsonldPredicate</text>
</g>
<!-- RecordField&#45;&gt;SaladRecordField -->
<g id="edge2" class="edge">
<title>RecordField&#45;&gt;SaladRecordField</title>
<path fill="none" stroke="black" d="M71.75,-118032.63C71.75,-116404.61 71.75,-60695.47 71.75,-59066.96"/>
<polygon fill="black" stroke="black" points="75.25,-59067.23 71.75,-59057.23 68.25,-59067.23 75.25,-59067.23"/>
</g>
<!-- RecordSchema -->
<g id="node2" class="node">
<title>RecordSchema</title>
<polygon fill="none" stroke="black" points="267.75,-117965.59 161.75,-117965.59 161.75,-93.5 267.75,-93.5 267.75,-117965.59"/>
<text text-anchor="middle" x="214.75" y="-117948.29" font-family="Times,serif" font-size="14.00">RecordSchema</text>
<text text-anchor="start" x="169.75" y="-105.2" font-family="Times,serif" font-size="14.00">* fields</text>
<text text-anchor="start" x="169.75" y="-94.7" font-family="Times,serif" font-size="14.00">* type</text>
</g>
<!-- SaladRecordSchema -->
<g id="node11" class="node">
<title>SaladRecordSchema</title>
<polygon fill="none" stroke="black" points="367.5,-57.5 224,-57.5 224,0 367.5,0 367.5,-57.5"/>
<text text-anchor="middle" x="295.75" y="-40.2" font-family="Times,serif" font-size="14.00">SaladRecordSchema</text>
<text text-anchor="start" x="232" y="-29.7" font-family="Times,serif" font-size="14.00">* abstract</text>
<text text-anchor="start" x="232" y="-11.7" font-family="Times,serif" font-size="14.00">* extends</text>
<text text-anchor="start" x="232" y="-1.2" font-family="Times,serif" font-size="14.00">* specialize</text>
</g>
<!-- RecordSchema&#45;&gt;SaladRecordSchema -->
<g id="edge4" class="edge">
<title>RecordSchema&#45;&gt;SaladRecordSchema</title>
<path fill="none" stroke="black" d="M268.24,-337.94C272.55,-218.79 277.05,-136.61 281.75,-93.5 282.65,-85.28 284.17,-76.56 285.89,-68.3"/>
<polygon fill="black" stroke="black" points="289.48,-69.3 288.23,-58.78 282.64,-67.78 289.48,-69.3"/>
</g>
<!-- EnumSchema -->
<g id="node3" class="node">
<title>EnumSchema</title>
<polygon fill="none" stroke="black" points="767.25,-59061.23 676.25,-59061.23 676.25,-58997.86 767.25,-58997.86 767.25,-59061.23"/>
<text text-anchor="middle" x="721.75" y="-59043.93" font-family="Times,serif" font-size="14.00">EnumSchema</text>
<text text-anchor="start" x="684.25" y="-59009.56" font-family="Times,serif" font-size="14.00">* symbols</text>
<text text-anchor="start" x="684.25" y="-58999.06" font-family="Times,serif" font-size="14.00">* type</text>
</g>
<!-- SaladEnumSchema -->
<g id="node12" class="node">
<title>SaladEnumSchema</title>
<polygon fill="none" stroke="black" points="703,-46.75 574.5,-46.75 574.5,-10.75 703,-10.75 703,-46.75"/>
<text text-anchor="middle" x="638.75" y="-25.95" font-family="Times,serif" font-size="14.00">SaladEnumSchema</text>
<text text-anchor="start" x="582.5" y="-15.45" font-family="Times,serif" font-size="14.00">* extends</text>
</g>
<!-- EnumSchema&#45;&gt;SaladEnumSchema -->
<g id="edge6" class="edge">
<title>EnumSchema&#45;&gt;SaladEnumSchema</title>
<path fill="none" stroke="black" d="M722.09,-58997.57C738.44,-57514.47 1331.71,-3253.7 666.75,-93.5 664.13,-81.04 658.92,-68.04 653.71,-57.05"/>
<polygon fill="black" stroke="black" points="656.39,-55.6 648.78,-48.22 650.13,-58.73 656.39,-55.6"/>
</g>
<!-- ArraySchema -->
<g id="node4" class="node">
<title>ArraySchema</title>
<polygon fill="none" stroke="black" points="714,-118089.78 615.5,-118089.78 615.5,-118050.28 714,-118050.28 714,-118089.78"/>
<text text-anchor="middle" x="664.75" y="-118072.48" font-family="Times,serif" font-size="14.00">ArraySchema</text>
<text text-anchor="start" x="623.5" y="-118061.98" font-family="Times,serif" font-size="14.00">* items</text>
<text text-anchor="start" x="623.5" y="-118051.48" font-family="Times,serif" font-size="14.00">* type</text>
</g>
<!-- JsonldPredicate -->
<g id="node5" class="node">
<title>JsonldPredicate</title>
<polygon fill="none" stroke="black" points="861,-118138.46 732.5,-118138.46 732.5,-118001.59 861,-118001.59 861,-118138.46"/>
<text text-anchor="middle" x="796.75" y="-118121.16" font-family="Times,serif" font-size="14.00">JsonldPredicate</text>
<text text-anchor="start" x="740.5" y="-118110.66" font-family="Times,serif" font-size="14.00">* _id</text>
<text text-anchor="start" x="740.5" y="-118100.16" font-family="Times,serif" font-size="14.00">* _type</text>
<text text-anchor="start" x="740.5" y="-118089.66" font-family="Times,serif" font-size="14.00">* _container</text>
<text text-anchor="start" x="740.5" y="-118079.16" font-family="Times,serif" font-size="14.00">* identity</text>
<text text-anchor="start" x="740.5" y="-118068.66" font-family="Times,serif" font-size="14.00">* noLinkCheck</text>
<text text-anchor="start" x="740.5" y="-118058.16" font-family="Times,serif" font-size="14.00">* mapSubject</text>
<text text-anchor="start" x="740.5" y="-118047.66" font-family="Times,serif" font-size="14.00">* mapPredicate</text>
<text text-anchor="start" x="740.5" y="-118013.29" font-family="Times,serif" font-size="14.00">* refScope</text>
<text text-anchor="start" x="740.5" y="-118002.79" font-family="Times,serif" font-size="14.00">* typeDSL</text>
</g>
<!-- SpecializeDef -->
<g id="node6" class="node">
<title>SpecializeDef</title>
<polygon fill="none" stroke="black" points="1014.75,-118093.53 878.75,-118093.53 878.75,-118046.53 1014.75,-118046.53 1014.75,-118093.53"/>
<text text-anchor="middle" x="946.75" y="-118076.23" font-family="Times,serif" font-size="14.00">SpecializeDef</text>
<text text-anchor="start" x="886.75" y="-118065.73" font-family="Times,serif" font-size="14.00">* specializeFrom</text>
<text text-anchor="start" x="886.75" y="-118055.23" font-family="Times,serif" font-size="14.00">* specializeTo</text>
</g>
<!-- NamedType -->
<g id="node7" class="node">
<title>NamedType</title>
<ellipse fill="none" stroke="black" cx="323.75" cy="-118070.03" rx="59.04" ry="27.93"/>
<text text-anchor="middle" x="323.75" y="-118072.48" font-family="Times,serif" font-size="14.00">NamedType</text>
<text text-anchor="start" x="290" y="-118061.98" font-family="Times,serif" font-size="14.00">* name</text>
<text text-anchor="start" x="290" y="-118051.48" font-family="Times,serif" font-size="14.00">* inVocab</text>
</g>
<!-- NamedType&#45;&gt;SaladRecordSchema -->
<g id="edge3" class="edge">
<title>NamedType&#45;&gt;SaladRecordSchema</title>
<path fill="none" stroke="black" d="M320.74,-118041.85C318.58,-118021.01 315.88,-117991.52 314.75,-117965.59 244.31,-116346.4 294.66,-2469.72 295.73,-68.27"/>
<polygon fill="black" stroke="black" points="299.23,-68.67 295.74,-58.67 292.23,-68.67 299.23,-68.67"/>
</g>
<!-- Documentation -->
<g id="node13" class="node">
<title>Documentation</title>
<polygon fill="none" stroke="black" points="437.5,-59047.8 324,-59047.8 324,-59011.3 437.5,-59011.3 437.5,-59047.8"/>
<text text-anchor="middle" x="380.75" y="-59030.5" font-family="Times,serif" font-size="14.00">Documentation</text>
<text text-anchor="start" x="332" y="-59020" font-family="Times,serif" font-size="14.00">* type</text>
</g>
<!-- NamedType&#45;&gt;Documentation -->
<g id="edge8" class="edge">
<title>NamedType&#45;&gt;Documentation</title>
<path fill="none" stroke="black" d="M323.78,-118041.8C325.14,-116626.49 379.32,-60507.95 380.72,-59059.1"/>
<polygon fill="black" stroke="black" points="384.22,-59059.16 380.73,-59049.16 377.22,-59059.16 384.22,-59059.16"/>
</g>
<!-- DocType -->
<g id="node8" class="node">
<title>DocType</title>
<ellipse fill="none" stroke="black" cx="527.75" cy="-118070.03" rx="69.65" ry="59.65"/>
<text text-anchor="middle" x="527.75" y="-118094.91" font-family="Times,serif" font-size="14.00">DocType</text>
<text text-anchor="start" x="486.5" y="-118084.41" font-family="Times,serif" font-size="14.00">* doc</text>
<text text-anchor="start" x="486.5" y="-118073.91" font-family="Times,serif" font-size="14.00">* docParent</text>
<text text-anchor="start" x="486.5" y="-118063.41" font-family="Times,serif" font-size="14.00">* docChild</text>
<text text-anchor="start" x="486.5" y="-118029.04" font-family="Times,serif" font-size="14.00">* docAfter</text>
</g>
<!-- SchemaDefinedType -->
<g id="node9" class="node">
<title>SchemaDefinedType</title>
<ellipse fill="none" stroke="black" cx="556.75" cy="-59029.55" rx="101.47" ry="27.93"/>
<text text-anchor="middle" x="556.75" y="-59032" font-family="Times,serif" font-size="14.00">SchemaDefinedType</text>
<text text-anchor="start" x="493" y="-59021.5" font-family="Times,serif" font-size="14.00">* jsonldPredicate</text>
<text text-anchor="start" x="493" y="-59011" font-family="Times,serif" font-size="14.00">* documentRoot</text>
</g>
<!-- DocType&#45;&gt;SchemaDefinedType -->
<g id="edge1" class="edge">
<title>DocType&#45;&gt;SchemaDefinedType</title>
<path fill="none" stroke="black" d="M527.78,-118009.98C528.79,-115951.14 555.92,-60729.99 556.73,-59068.8"/>
<polygon fill="black" stroke="black" points="560.23,-59068.83 556.74,-59058.82 553.23,-59068.82 560.23,-59068.83"/>
</g>
<!-- DocType&#45;&gt;Documentation -->
<g id="edge9" class="edge">
<title>DocType&#45;&gt;Documentation</title>
<path fill="none" stroke="black" d="M482.26,-118024.37C468.05,-118007.44 454.16,-117987.04 446.75,-117965.59 314.77,-117583.69 379.06,-60511.63 380.72,-59058.76"/>
<polygon fill="black" stroke="black" points="384.22,-59059.03 380.73,-59049.03 377.22,-59059.02 384.22,-59059.03"/>
</g>
<!-- SchemaDefinedType&#45;&gt;SaladRecordSchema -->
<g id="edge5" class="edge">
<title>SchemaDefinedType&#45;&gt;SaladRecordSchema</title>
<path fill="none" stroke="black" d="M556.8,-59001.26C559.61,-57571.38 670.46,-430.09 446.75,-93.5 430.97,-69.75 404.41,-54.83 377.92,-45.46"/>
<polygon fill="black" stroke="black" points="379.39,-41.93 368.8,-42.13 377.21,-48.58 379.39,-41.93"/>
</g>
<!-- SchemaDefinedType&#45;&gt;SaladEnumSchema -->
<g id="edge7" class="edge">
<title>SchemaDefinedType&#45;&gt;SaladEnumSchema</title>
<path fill="none" stroke="black" d="M556.79,-59001.33C558.75,-57586.81 636.72,-1492.33 638.71,-57.75"/>
<polygon fill="black" stroke="black" points="642.21,-57.94 638.73,-47.93 635.21,-57.93 642.21,-57.94"/>
</g>
</g>
</svg>
