<svg xmlns="http://www.w3.org/2000/svg" xmlns:xlink="http://www.w3.org/1999/xlink" width="1372" height="508" viewBox="0 0 1028.5 380.95"><g id="graph0" class="graph" transform="scale(1 1) rotate(0) translate(4 376.9533)"><title>%3</title><polygon fill="#fff" stroke="transparent" points="-4 4 -4 -376.953 1024.5 -376.953 1024.5 4 -4 4"/><g id="node1" class="node"><title>RecordField</title><polygon fill="none" stroke="#000" points="121.5 -327.953 22.5 -327.953 22.5 -259.953 121.5 -259.953 121.5 -327.953"/><text x="72" y="-312.753" fill="#000" font-family="Times,serif" font-size="14" text-anchor="middle">RecordField</text><text x="30.5" y="-297.753" fill="#000" font-family="Times,serif" font-size="14" text-anchor="start">* name</text><text x="30.5" y="-282.753" fill="#000" font-family="Times,serif" font-size="14" text-anchor="start">* doc</text><text x="30.5" y="-267.753" fill="#000" font-family="Times,serif" font-size="14" text-anchor="start">* type</text></g><g id="node10" class="node"><title>SaladRecordField</title><polygon fill="none" stroke="#000" points="144 -160.477 0 -160.477 0 -122.477 144 -122.477 144 -160.477"/><text x="72" y="-145.277" fill="#000" font-family="Times,serif" font-size="14" text-anchor="middle">SaladRecordField</text><text x="8" y="-130.277" fill="#000" font-family="Times,serif" font-size="14" text-anchor="start">* jsonldPredicate</text></g><g id="edge2" class="edge"><title>RecordField-&gt;SaladRecordField</title><path fill="none" stroke="#000" d="M72,-259.7346C72,-232.9985 72,-196.236 72,-170.8295"/><polygon fill="#000" stroke="#000" points="75.5 -170.699 72 -160.699 68.5 -170.699 75.5 -170.699"/></g><g id="node2" class="node"><title>RecordSchema</title><polygon fill="none" stroke="#000" points="269.5 -167.977 162.5 -167.977 162.5 -114.977 269.5 -114.977 269.5 -167.977"/><text x="216" y="-152.777" fill="#000" font-family="Times,serif" font-size="14" text-anchor="middle">RecordSchema</text><text x="170.5" y="-137.777" fill="#000" font-family="Times,serif" font-size="14" text-anchor="start">* fields</text><text x="170.5" y="-122.777" fill="#000" font-family="Times,serif" font-size="14" text-anchor="start">* type</text></g><g id="node11" class="node"><title>SaladRecordSchema</title><polygon fill="none" stroke="#000" points="370 -68 226 -68 226 0 370 0 370 -68"/><text x="298" y="-52.8" fill="#000" font-family="Times,serif" font-size="14" text-anchor="middle">SaladRecordSchema</text><text x="234" y="-37.8" fill="#000" font-family="Times,serif" font-size="14" text-anchor="start">* abstract</text><text x="234" y="-22.8" fill="#000" font-family="Times,serif" font-size="14" text-anchor="start">* extends</text><text x="234" y="-7.8" fill="#000" font-family="Times,serif" font-size="14" text-anchor="start">* specialize</text></g><g id="edge4" class="edge"><title>RecordSchema-&gt;SaladRecordSchema</title><path fill="none" stroke="#000" d="M236.2697,-114.9094C245.0622,-103.3851 255.5807,-89.5985 265.4226,-76.6989"/><polygon fill="#000" stroke="#000" points="268.484 -78.456 271.767 -68.383 262.919 -74.21 268.484 -78.456"/></g><g id="node3" class="node"><title>EnumSchema</title><polygon fill="none" stroke="#000" points="772 -167.977 680 -167.977 680 -114.977 772 -114.977 772 -167.977"/><text x="726" y="-152.777" fill="#000" font-family="Times,serif" font-size="14" text-anchor="middle">EnumSchema</text><text x="688" y="-137.777" fill="#000" font-family="Times,serif" font-size="14" text-anchor="start">* symbols</text><text x="688" y="-122.777" fill="#000" font-family="Times,serif" font-size="14" text-anchor="start">* type</text></g><g id="node12" class="node"><title>SaladEnumSchema</title><polygon fill="none" stroke="#000" points="707.5 -53 578.5 -53 578.5 -15 707.5 -15 707.5 -53"/><text x="643" y="-37.8" fill="#000" font-family="Times,serif" font-size="14" text-anchor="middle">SaladEnumSchema</text><text x="586.5" y="-22.8" fill="#000" font-family="Times,serif" font-size="14" text-anchor="start">* extends</text></g><g id="edge6" class="edge"><title>EnumSchema-&gt;SaladEnumSchema</title><path fill="none" stroke="#000" d="M705.4831,-114.9094C692.8923,-98.6055 676.8045,-77.7734 664.1065,-61.3308"/><polygon fill="#000" stroke="#000" points="666.694 -58.955 657.812 -53.18 661.154 -63.234 666.694 -58.955"/></g><g id="node4" class="node"><title>ArraySchema</title><polygon fill="none" stroke="#000" points="718.5 -320.453 619.5 -320.453 619.5 -267.453 718.5 -267.453 718.5 -320.453"/><text x="669" y="-305.253" fill="#000" font-family="Times,serif" font-size="14" text-anchor="middle">ArraySchema</text><text x="627.5" y="-290.253" fill="#000" font-family="Times,serif" font-size="14" text-anchor="start">* items</text><text x="627.5" y="-275.253" fill="#000" font-family="Times,serif" font-size="14" text-anchor="start">* type</text></g><g id="node5" class="node"><title>JsonldPredicate</title><polygon fill="none" stroke="#000" points="865.5 -372.953 736.5 -372.953 736.5 -214.953 865.5 -214.953 865.5 -372.953"/><text x="801" y="-357.753" fill="#000" font-family="Times,serif" font-size="14" text-anchor="middle">JsonldPredicate</text><text x="744.5" y="-342.753" fill="#000" font-family="Times,serif" font-size="14" text-anchor="start">* _id</text><text x="744.5" y="-327.753" fill="#000" font-family="Times,serif" font-size="14" text-anchor="start">* _type</text><text x="744.5" y="-312.753" fill="#000" font-family="Times,serif" font-size="14" text-anchor="start">* _container</text><text x="744.5" y="-297.753" fill="#000" font-family="Times,serif" font-size="14" text-anchor="start">* identity</text><text x="744.5" y="-282.753" fill="#000" font-family="Times,serif" font-size="14" text-anchor="start">* noLinkCheck</text><text x="744.5" y="-267.753" fill="#000" font-family="Times,serif" font-size="14" text-anchor="start">* mapSubject</text><text x="744.5" y="-252.753" fill="#000" font-family="Times,serif" font-size="14" text-anchor="start">* mapPredicate</text><text x="744.5" y="-237.753" fill="#000" font-family="Times,serif" font-size="14" text-anchor="start">* refScope</text><text x="744.5" y="-222.753" fill="#000" font-family="Times,serif" font-size="14" text-anchor="start">* typeDSL</text></g><g id="node6" class="node"><title>SpecializeDef</title><polygon fill="none" stroke="#000" points="1020.5 -320.453 883.5 -320.453 883.5 -267.453 1020.5 -267.453 1020.5 -320.453"/><text x="952" y="-305.253" fill="#000" font-family="Times,serif" font-size="14" text-anchor="middle">SpecializeDef</text><text x="891.5" y="-290.253" fill="#000" font-family="Times,serif" font-size="14" text-anchor="start">* specializeFrom</text><text x="891.5" y="-275.253" fill="#000" font-family="Times,serif" font-size="14" text-anchor="start">* specializeTo</text></g><g id="node7" class="node"><title>NamedType</title><ellipse cx="327" cy="-293.953" fill="none" stroke="#000" rx="59.294" ry="37.453"/><text x="327" y="-305.253" fill="#000" font-family="Times,serif" font-size="14" text-anchor="middle">NamedType</text><text x="293" y="-290.253" fill="#000" font-family="Times,serif" font-size="14" text-anchor="start">* name</text><text x="293" y="-275.253" fill="#000" font-family="Times,serif" font-size="14" text-anchor="start">* inVocab</text></g><g id="edge3" class="edge"><title>NamedType-&gt;SaladRecordSchema</title><path fill="none" stroke="#000" d="M322.8141,-256.4315C317.557,-209.3068 308.5494,-128.5637 302.9543,-78.4096"/><polygon fill="#000" stroke="#000" points="306.402 -77.745 301.815 -68.195 299.445 -78.521 306.402 -77.745"/></g><g id="node13" class="node"><title>Documentation</title><polygon fill="none" stroke="#000" points="440 -160.477 326 -160.477 326 -122.477 440 -122.477 440 -160.477"/><text x="383" y="-145.277" fill="#000" font-family="Times,serif" font-size="14" text-anchor="middle">Documentation</text><text x="334" y="-130.277" fill="#000" font-family="Times,serif" font-size="14" text-anchor="start">* type</text></g><g id="edge8" class="edge"><title>NamedType-&gt;Documentation</title><path fill="none" stroke="#000" d="M340.4134,-257.4314C350.2534,-230.639 363.428,-194.7673 372.5047,-170.0533"/><polygon fill="#000" stroke="#000" points="375.841 -171.12 376.004 -160.526 369.271 -168.707 375.841 -171.12"/></g><g id="node8" class="node"><title>DocType</title><ellipse cx="531" cy="-293.953" fill="none" stroke="#000" rx="70.007" ry="58.88"/><text x="531" y="-320.253" fill="#000" font-family="Times,serif" font-size="14" text-anchor="middle">DocType</text><text x="489.5" y="-305.253" fill="#000" font-family="Times,serif" font-size="14" text-anchor="start">* doc</text><text x="489.5" y="-290.253" fill="#000" font-family="Times,serif" font-size="14" text-anchor="start">* docParent</text><text x="489.5" y="-275.253" fill="#000" font-family="Times,serif" font-size="14" text-anchor="start">* docChild</text><text x="489.5" y="-260.253" fill="#000" font-family="Times,serif" font-size="14" text-anchor="start">* docAfter</text></g><g id="node9" class="node"><title>SchemaDefinedType</title><ellipse cx="560" cy="-141.477" fill="none" stroke="#000" rx="101.647" ry="37.453"/><text x="560" y="-152.777" fill="#000" font-family="Times,serif" font-size="14" text-anchor="middle">SchemaDefinedType</text><text x="496" y="-137.777" fill="#000" font-family="Times,serif" font-size="14" text-anchor="start">* jsonldPredicate</text><text x="496" y="-122.777" fill="#000" font-family="Times,serif" font-size="14" text-anchor="start">* documentRoot</text></g><g id="edge1" class="edge"><title>DocType-&gt;SchemaDefinedType</title><path fill="none" stroke="#000" d="M542.0464,-235.8735C544.9856,-220.4196 548.1258,-203.9088 550.9448,-189.087"/><polygon fill="#000" stroke="#000" points="554.409 -189.607 552.839 -179.129 547.532 -188.299 554.409 -189.607"/></g><g id="edge9" class="edge"><title>DocType-&gt;Documentation</title><path fill="none" stroke="#000" d="M486.5951,-248.2053C461.156,-221.9967 430.1301,-190.0324 408.7003,-167.9543"/><polygon fill="#000" stroke="#000" points="411.022 -165.321 401.545 -160.583 405.999 -170.196 411.022 -165.321"/></g><g id="edge5" class="edge"><title>SchemaDefinedType-&gt;SaladRecordSchema</title><path fill="none" stroke="#000" d="M491.8465,-113.519C457.6077,-99.4737 415.8623,-82.3491 379.8926,-67.5937"/><polygon fill="#000" stroke="#000" points="380.978 -64.256 370.397 -63.699 378.321 -70.732 380.978 -64.256"/></g><g id="edge7" class="edge"><title>SchemaDefinedType-&gt;SaladEnumSchema</title><path fill="none" stroke="#000" d="M587.8687,-105.3895C599.0227,-90.9461 611.6547,-74.5891 622.0104,-61.1794"/><polygon fill="#000" stroke="#000" points="624.788 -63.308 628.131 -53.254 619.248 -59.03 624.788 -63.308"/></g></g></svg>