<?xml version="1.0" encoding="UTF-8" standalone="no"?>
<!DOCTYPE svg PUBLIC "-//W3C//DTD SVG 1.1//EN"
 "http://www.w3.org/Graphics/SVG/1.1/DTD/svg11.dtd">
<!-- Generated by graphviz version 7.0.5 (20221223.1930)
 -->
<!-- Pages: 1 -->
<svg width="1029pt" height="381pt"
 viewBox="0.00 0.00 1028.50 380.95" xmlns="http://www.w3.org/2000/svg" xmlns:xlink="http://www.w3.org/1999/xlink">
<g id="graph0" class="graph" transform="scale(1 1) rotate(0) translate(4 376.95)">
<polygon fill="white" stroke="none" points="-4,4 -4,-376.95 1024.5,-376.95 1024.5,4 -4,4"/>
<!-- RecordField -->
<g id="node1" class="node">
<title>RecordField</title>
<polygon fill="none" stroke="black" points="121.5,-327.95 22.5,-327.95 22.5,-259.95 121.5,-259.95 121.5,-327.95"/>
<text text-anchor="middle" x="72" y="-312.75" font-family="Times,serif" font-size="14.00">RecordField</text>
<text text-anchor="start" x="30.5" y="-297.75" font-family="Times,serif" font-size="14.00">* name</text>
<text text-anchor="start" x="30.5" y="-282.75" font-family="Times,serif" font-size="14.00">* doc</text>
<text text-anchor="start" x="30.5" y="-267.75" font-family="Times,serif" font-size="14.00">* type</text>
</g>
<!-- SaladRecordField -->
<g id="node10" class="node">
<title>SaladRecordField</title>
<polygon fill="none" stroke="black" points="144,-160.48 0,-160.48 0,-122.48 144,-122.48 144,-160.48"/>
<text text-anchor="middle" x="72" y="-145.28" font-family="Times,serif" font-size="14.00">SaladRecordField</text>
<text text-anchor="start" x="8" y="-130.28" font-family="Times,serif" font-size="14.00">* jsonldPredicate</text>
</g>
<!-- RecordField&#45;&gt;SaladRecordField -->
<g id="edge2" class="edge">
<title>RecordField&#45;&gt;SaladRecordField</title>
<path fill="none" stroke="black" d="M72,-259.56C72,-233.37 72,-197.25 72,-172.09"/>
<polygon fill="black" stroke="black" points="75.5,-172.22 72,-162.22 68.5,-172.22 75.5,-172.22"/>
</g>
<!-- RecordSchema -->
<g id="node2" class="node">
<title>RecordSchema</title>
<polygon fill="none" stroke="black" points="269.5,-167.98 162.5,-167.98 162.5,-114.98 269.5,-114.98 269.5,-167.98"/>
<text text-anchor="middle" x="216" y="-152.78" font-family="Times,serif" font-size="14.00">RecordSchema</text>
<text text-anchor="start" x="170.5" y="-137.78" font-family="Times,serif" font-size="14.00">* fields</text>
<text text-anchor="start" x="170.5" y="-122.78" font-family="Times,serif" font-size="14.00">* type</text>
</g>
<!-- SaladRecordSchema -->
<g id="node11" class="node">
<title>SaladRecordSchema</title>
<polygon fill="none" stroke="black" points="370,-68 226,-68 226,0 370,0 370,-68"/>
<text text-anchor="middle" x="298" y="-52.8" font-family="Times,serif" font-size="14.00">SaladRecordSchema</text>
<text text-anchor="start" x="234" y="-37.8" font-family="Times,serif" font-size="14.00">* abstract</text>
<text text-anchor="start" x="234" y="-22.8" font-family="Times,serif" font-size="14.00">* extends</text>
<text text-anchor="start" x="234" y="-7.8" font-family="Times,serif" font-size="14.00">* specialize</text>
</g>
<!-- RecordSchema&#45;&gt;SaladRecordSchema -->
<g id="edge4" class="edge">
<title>RecordSchema&#45;&gt;SaladRecordSchema</title>
<path fill="none" stroke="black" d="M236.06,-114.67C244.83,-103.39 255.36,-89.85 265.22,-77.16"/>
<polygon fill="black" stroke="black" points="267.95,-79.36 271.32,-69.31 262.42,-75.06 267.95,-79.36"/>
</g>
<!-- EnumSchema -->
<g id="node3" class="node">
<title>EnumSchema</title>
<polygon fill="none" stroke="black" points="772,-167.98 680,-167.98 680,-114.98 772,-114.98 772,-167.98"/>
<text text-anchor="middle" x="726" y="-152.78" font-family="Times,serif" font-size="14.00">EnumSchema</text>
<text text-anchor="start" x="688" y="-137.78" font-family="Times,serif" font-size="14.00">* symbols</text>
<text text-anchor="start" x="688" y="-122.78" font-family="Times,serif" font-size="14.00">* type</text>
</g>
<!-- SaladEnumSchema -->
<g id="node12" class="node">
<title>SaladEnumSchema</title>
<polygon fill="none" stroke="black" points="707.5,-53 578.5,-53 578.5,-15 707.5,-15 707.5,-53"/>
<text text-anchor="middle" x="643" y="-37.8" font-family="Times,serif" font-size="14.00">SaladEnumSchema</text>
<text text-anchor="start" x="586.5" y="-22.8" font-family="Times,serif" font-size="14.00">* extends</text>
</g>
<!-- EnumSchema&#45;&gt;SaladEnumSchema -->
<g id="edge6" class="edge">
<title>EnumSchema&#45;&gt;SaladEnumSchema</title>
<path fill="none" stroke="black" d="M705.7,-114.67C693.18,-98.77 677.15,-78.39 664.43,-62.23"/>
<polygon fill="black" stroke="black" points="667.24,-60.15 658.31,-54.45 661.74,-64.48 667.24,-60.15"/>
</g>
<!-- ArraySchema -->
<g id="node4" class="node">
<title>ArraySchema</title>
<polygon fill="none" stroke="black" points="718.5,-320.45 619.5,-320.45 619.5,-267.45 718.5,-267.45 718.5,-320.45"/>
<text text-anchor="middle" x="669" y="-305.25" font-family="Times,serif" font-size="14.00">ArraySchema</text>
<text text-anchor="start" x="627.5" y="-290.25" font-family="Times,serif" font-size="14.00">* items</text>
<text text-anchor="start" x="627.5" y="-275.25" font-family="Times,serif" font-size="14.00">* type</text>
</g>
<!-- JsonldPredicate -->
<g id="node5" class="node">
<title>JsonldPredicate</title>
<polygon fill="none" stroke="black" points="865.5,-372.95 736.5,-372.95 736.5,-214.95 865.5,-214.95 865.5,-372.95"/>
<text text-anchor="middle" x="801" y="-357.75" font-family="Times,serif" font-size="14.00">JsonldPredicate</text>
<text text-anchor="start" x="744.5" y="-342.75" font-family="Times,serif" font-size="14.00">* _id</text>
<text text-anchor="start" x="744.5" y="-327.75" font-family="Times,serif" font-size="14.00">* _type</text>
<text text-anchor="start" x="744.5" y="-312.75" font-family="Times,serif" font-size="14.00">* _container</text>
<text text-anchor="start" x="744.5" y="-297.75" font-family="Times,serif" font-size="14.00">* identity</text>
<text text-anchor="start" x="744.5" y="-282.75" font-family="Times,serif" font-size="14.00">* noLinkCheck</text>
<text text-anchor="start" x="744.5" y="-267.75" font-family="Times,serif" font-size="14.00">* mapSubject</text>
<text text-anchor="start" x="744.5" y="-252.75" font-family="Times,serif" font-size="14.00">* mapPredicate</text>
<text text-anchor="start" x="744.5" y="-237.75" font-family="Times,serif" font-size="14.00">* refScope</text>
<text text-anchor="start" x="744.5" y="-222.75" font-family="Times,serif" font-size="14.00">* typeDSL</text>
</g>
<!-- SpecializeDef -->
<g id="node6" class="node">
<title>SpecializeDef</title>
<polygon fill="none" stroke="black" points="1020.5,-320.45 883.5,-320.45 883.5,-267.45 1020.5,-267.45 1020.5,-320.45"/>
<text text-anchor="middle" x="952" y="-305.25" font-family="Times,serif" font-size="14.00">SpecializeDef</text>
<text text-anchor="start" x="891.5" y="-290.25" font-family="Times,serif" font-size="14.00">* specializeFrom</text>
<text text-anchor="start" x="891.5" y="-275.25" font-family="Times,serif" font-size="14.00">* specializeTo</text>
</g>
<!-- NamedType -->
<g id="node7" class="node">
<title>NamedType</title>
<ellipse fill="none" stroke="black" cx="327" cy="-293.95" rx="59.29" ry="37.45"/>
<text text-anchor="middle" x="327" y="-305.25" font-family="Times,serif" font-size="14.00">NamedType</text>
<text text-anchor="start" x="293" y="-290.25" font-family="Times,serif" font-size="14.00">* name</text>
<text text-anchor="start" x="293" y="-275.25" font-family="Times,serif" font-size="14.00">* inVocab</text>
</g>
<!-- NamedType&#45;&gt;SaladRecordSchema -->
<g id="edge3" class="edge">
<title>NamedType&#45;&gt;SaladRecordSchema</title>
<path fill="none" stroke="black" d="M322.88,-256.27C317.65,-209.78 308.65,-129.71 303.03,-79.7"/>
<polygon fill="black" stroke="black" points="306.51,-79.33 301.91,-69.79 299.55,-80.12 306.51,-79.33"/>
</g>
<!-- Documentation -->
<g id="node13" class="node">
<title>Documentation</title>
<polygon fill="none" stroke="black" points="440,-160.48 326,-160.48 326,-122.48 440,-122.48 440,-160.48"/>
<text text-anchor="middle" x="383" y="-145.28" font-family="Times,serif" font-size="14.00">Documentation</text>
<text text-anchor="start" x="334" y="-130.28" font-family="Times,serif" font-size="14.00">* type</text>
</g>
<!-- NamedType&#45;&gt;Documentation -->
<g id="edge8" class="edge">
<title>NamedType&#45;&gt;Documentation</title>
<path fill="none" stroke="black" d="M340.27,-257.29C349.99,-231.18 363.01,-196.18 372.12,-171.72"/>
<polygon fill="black" stroke="black" points="375.39,-172.97 375.59,-162.38 368.83,-170.53 375.39,-172.97"/>
</g>
<!-- DocType -->
<g id="node8" class="node">
<title>DocType</title>
<ellipse fill="none" stroke="black" cx="531" cy="-293.95" rx="70.01" ry="58.88"/>
<text text-anchor="middle" x="531" y="-320.25" font-family="Times,serif" font-size="14.00">DocType</text>
<text text-anchor="start" x="489.5" y="-305.25" font-family="Times,serif" font-size="14.00">* doc</text>
<text text-anchor="start" x="489.5" y="-290.25" font-family="Times,serif" font-size="14.00">* docParent</text>
<text text-anchor="start" x="489.5" y="-275.25" font-family="Times,serif" font-size="14.00">* docChild</text>
<text text-anchor="start" x="489.5" y="-260.25" font-family="Times,serif" font-size="14.00">* docAfter</text>
</g>
<!-- SchemaDefinedType -->
<g id="node9" class="node">
<title>SchemaDefinedType</title>
<ellipse fill="none" stroke="black" cx="560" cy="-141.48" rx="101.65" ry="37.45"/>
<text text-anchor="middle" x="560" y="-152.78" font-family="Times,serif" font-size="14.00">SchemaDefinedType</text>
<text text-anchor="start" x="496" y="-137.78" font-family="Times,serif" font-size="14.00">* jsonldPredicate</text>
<text text-anchor="start" x="496" y="-122.78" font-family="Times,serif" font-size="14.00">* documentRoot</text>
</g>
<!-- DocType&#45;&gt;SchemaDefinedType -->
<g id="edge1" class="edge">
<title>DocType&#45;&gt;SchemaDefinedType</title>
<path fill="none" stroke="black" d="M542.05,-235.64C544.93,-220.69 548,-204.75 550.77,-190.35"/>
<polygon fill="black" stroke="black" points="554.18,-191.16 552.64,-180.67 547.31,-189.83 554.18,-191.16"/>
</g>
<!-- DocType&#45;&gt;Documentation -->
<g id="edge9" class="edge">
<title>DocType&#45;&gt;Documentation</title>
<path fill="none" stroke="black" d="M487,-248.21C461.57,-222.36 430.46,-190.73 408.92,-168.83"/>
<polygon fill="black" stroke="black" points="411.46,-166.42 401.95,-161.75 406.47,-171.33 411.46,-166.42"/>
</g>
<!-- SchemaDefinedType&#45;&gt;SaladRecordSchema -->
<g id="edge5" class="edge">
<title>SchemaDefinedType&#45;&gt;SaladRecordSchema</title>
<path fill="none" stroke="black" d="M492.19,-113.18C458.1,-99.45 416.51,-82.71 380.58,-68.24"/>
<polygon fill="black" stroke="black" points="382.1,-65.09 371.52,-64.6 379.49,-71.58 382.1,-65.09"/>
</g>
<!-- SchemaDefinedType&#45;&gt;SaladEnumSchema -->
<g id="edge7" class="edge">
<title>SchemaDefinedType&#45;&gt;SaladEnumSchema</title>
<path fill="none" stroke="black" d="M587.87,-105.06C598.86,-91.09 611.28,-75.31 621.55,-62.26"/>
<polygon fill="black" stroke="black" points="624.23,-64.52 627.66,-54.49 618.73,-60.19 624.23,-64.52"/>
</g>
</g>
</svg>
