<?xml version="1.0" encoding="UTF-8" standalone="no"?>
<!DOCTYPE svg PUBLIC "-//W3C//DTD SVG 1.1//EN"
 "http://www.w3.org/Graphics/SVG/1.1/DTD/svg11.dtd">
<!-- Generated by graphviz version 2.38.0 (20140413.2041)
 -->
<!-- Title: %3 Pages: 1 -->
<svg width="1029pt" height="381pt"
 viewBox="0.00 0.00 1028.50 380.95" xmlns="http://www.w3.org/2000/svg" xmlns:xlink="http://www.w3.org/1999/xlink">
<g id="graph0" class="graph" transform="scale(1 1) rotate(0) translate(4 376.953)">
<title>%3</title>
<polygon fill="white" stroke="none" points="-4,4 -4,-376.953 1024.5,-376.953 1024.5,4 -4,4"/>
<!-- RecordField -->
<g id="node1" class="node"><title>RecordField</title>
<polygon fill="none" stroke="black" points="121.5,-327.953 22.5,-327.953 22.5,-259.953 121.5,-259.953 121.5,-327.953"/>
<text text-anchor="middle" x="72" y="-312.753" font-family="Times,serif" font-size="14.00">RecordField</text>
<text text-anchor="start" x="30.5" y="-297.753" font-family="Times,serif" font-size="14.00">* name</text>
<text text-anchor="start" x="30.5" y="-282.753" font-family="Times,serif" font-size="14.00">* doc</text>
<text text-anchor="start" x="30.5" y="-267.753" font-family="Times,serif" font-size="14.00">* type</text>
</g>
<!-- SaladRecordField -->
<g id="node10" class="node"><title>SaladRecordField</title>
<polygon fill="none" stroke="black" points="144,-160.477 0,-160.477 0,-122.477 144,-122.477 144,-160.477"/>
<text text-anchor="middle" x="72" y="-145.277" font-family="Times,serif" font-size="14.00">SaladRecordField</text>
<text text-anchor="start" x="8" y="-130.277" font-family="Times,serif" font-size="14.00">* jsonldPredicate</text>
</g>
<!-- RecordField&#45;&gt;SaladRecordField -->
<g id="edge2" class="edge"><title>RecordField&#45;&gt;SaladRecordField</title>
<path fill="none" stroke="black" d="M72,-259.931C72,-233.284 72,-196.193 72,-170.866"/>
<polygon fill="black" stroke="black" points="75.5001,-170.796 72,-160.796 68.5001,-170.796 75.5001,-170.796"/>
</g>
<!-- RecordSchema -->
<g id="node2" class="node"><title>RecordSchema</title>
<polygon fill="none" stroke="black" points="269.5,-167.977 162.5,-167.977 162.5,-114.977 269.5,-114.977 269.5,-167.977"/>
<text text-anchor="middle" x="216" y="-152.777" font-family="Times,serif" font-size="14.00">RecordSchema</text>
<text text-anchor="start" x="170.5" y="-137.777" font-family="Times,serif" font-size="14.00">* fields</text>
<text text-anchor="start" x="170.5" y="-122.777" font-family="Times,serif" font-size="14.00">* type</text>
</g>
<!-- SaladRecordSchema -->
<g id="node11" class="node"><title>SaladRecordSchema</title>
<polygon fill="none" stroke="black" points="370,-68 226,-68 226,-0 370,-0 370,-68"/>
<text text-anchor="middle" x="298" y="-52.8" font-family="Times,serif" font-size="14.00">SaladRecordSchema</text>
<text text-anchor="start" x="234" y="-37.8" font-family="Times,serif" font-size="14.00">* abstract</text>
<text text-anchor="start" x="234" y="-22.8" font-family="Times,serif" font-size="14.00">* extends</text>
<text text-anchor="start" x="234" y="-7.8" font-family="Times,serif" font-size="14.00">* specialize</text>
</g>
<!-- RecordSchema&#45;&gt;SaladRecordSchema -->
<g id="edge4" class="edge"><title>RecordSchema&#45;&gt;SaladRecordSchema</title>
<path fill="none" stroke="black" d="M235.85,-114.944C244.878,-103.331 255.79,-89.2949 265.935,-76.2455"/>
<polygon fill="black" stroke="black" points="268.754,-78.3215 272.129,-68.2784 263.228,-74.0252 268.754,-78.3215"/>
</g>
<!-- EnumSchema -->
<g id="node3" class="node"><title>EnumSchema</title>
<polygon fill="none" stroke="black" points="772,-167.977 680,-167.977 680,-114.977 772,-114.977 772,-167.977"/>
<text text-anchor="middle" x="726" y="-152.777" font-family="Times,serif" font-size="14.00">EnumSchema</text>
<text text-anchor="start" x="688" y="-137.777" font-family="Times,serif" font-size="14.00">* symbols</text>
<text text-anchor="start" x="688" y="-122.777" font-family="Times,serif" font-size="14.00">* type</text>
</g>
<!-- SaladEnumSchema -->
<g id="node12" class="node"><title>SaladEnumSchema</title>
<polygon fill="none" stroke="black" points="707.5,-53 578.5,-53 578.5,-15 707.5,-15 707.5,-53"/>
<text text-anchor="middle" x="643" y="-37.8" font-family="Times,serif" font-size="14.00">SaladEnumSchema</text>
<text text-anchor="start" x="586.5" y="-22.8" font-family="Times,serif" font-size="14.00">* extends</text>
</g>
<!-- EnumSchema&#45;&gt;SaladEnumSchema -->
<g id="edge6" class="edge"><title>EnumSchema&#45;&gt;SaladEnumSchema</title>
<path fill="none" stroke="black" d="M705.908,-114.944C693.079,-98.6412 676.493,-77.5625 663.572,-61.1428"/>
<polygon fill="black" stroke="black" points="666.123,-58.7252 657.189,-53.0309 660.622,-63.054 666.123,-58.7252"/>
</g>
<!-- ArraySchema -->
<g id="node4" class="node"><title>ArraySchema</title>
<polygon fill="none" stroke="black" points="718.5,-320.453 619.5,-320.453 619.5,-267.453 718.5,-267.453 718.5,-320.453"/>
<text text-anchor="middle" x="669" y="-305.253" font-family="Times,serif" font-size="14.00">ArraySchema</text>
<text text-anchor="start" x="627.5" y="-290.253" font-family="Times,serif" font-size="14.00">* items</text>
<text text-anchor="start" x="627.5" y="-275.253" font-family="Times,serif" font-size="14.00">* type</text>
</g>
<!-- JsonldPredicate -->
<g id="node5" class="node"><title>JsonldPredicate</title>
<polygon fill="none" stroke="black" points="865.5,-372.953 736.5,-372.953 736.5,-214.953 865.5,-214.953 865.5,-372.953"/>
<text text-anchor="middle" x="801" y="-357.753" font-family="Times,serif" font-size="14.00">JsonldPredicate</text>
<text text-anchor="start" x="744.5" y="-342.753" font-family="Times,serif" font-size="14.00">* _id</text>
<text text-anchor="start" x="744.5" y="-327.753" font-family="Times,serif" font-size="14.00">* _type</text>
<text text-anchor="start" x="744.5" y="-312.753" font-family="Times,serif" font-size="14.00">* _container</text>
<text text-anchor="start" x="744.5" y="-297.753" font-family="Times,serif" font-size="14.00">* identity</text>
<text text-anchor="start" x="744.5" y="-282.753" font-family="Times,serif" font-size="14.00">* noLinkCheck</text>
<text text-anchor="start" x="744.5" y="-267.753" font-family="Times,serif" font-size="14.00">* mapSubject</text>
<text text-anchor="start" x="744.5" y="-252.753" font-family="Times,serif" font-size="14.00">* mapPredicate</text>
<text text-anchor="start" x="744.5" y="-237.753" font-family="Times,serif" font-size="14.00">* refScope</text>
<text text-anchor="start" x="744.5" y="-222.753" font-family="Times,serif" font-size="14.00">* typeDSL</text>
</g>
<!-- SpecializeDef -->
<g id="node6" class="node"><title>SpecializeDef</title>
<polygon fill="none" stroke="black" points="1020.5,-320.453 883.5,-320.453 883.5,-267.453 1020.5,-267.453 1020.5,-320.453"/>
<text text-anchor="middle" x="952" y="-305.253" font-family="Times,serif" font-size="14.00">SpecializeDef</text>
<text text-anchor="start" x="891.5" y="-290.253" font-family="Times,serif" font-size="14.00">* specializeFrom</text>
<text text-anchor="start" x="891.5" y="-275.253" font-family="Times,serif" font-size="14.00">* specializeTo</text>
</g>
<!-- NamedType -->
<g id="node7" class="node"><title>NamedType</title>
<ellipse fill="none" stroke="black" cx="327" cy="-293.953" rx="59.2941" ry="37.4533"/>
<text text-anchor="middle" x="327" y="-305.253" font-family="Times,serif" font-size="14.00">NamedType</text>
<text text-anchor="start" x="293" y="-290.253" font-family="Times,serif" font-size="14.00">* name</text>
<text text-anchor="start" x="293" y="-275.253" font-family="Times,serif" font-size="14.00">* inVocab</text>
</g>
<!-- NamedType&#45;&gt;SaladRecordSchema -->
<g id="edge3" class="edge"><title>NamedType&#45;&gt;SaladRecordSchema</title>
<path fill="none" stroke="black" d="M322.907,-256.542C317.644,-209.737 308.518,-128.557 302.895,-78.5375"/>
<polygon fill="black" stroke="black" points="306.346,-77.9069 301.751,-68.3605 299.39,-78.689 306.346,-77.9069"/>
</g>
<!-- Documentation -->
<g id="node13" class="node"><title>Documentation</title>
<polygon fill="none" stroke="black" points="440,-160.477 326,-160.477 326,-122.477 440,-122.477 440,-160.477"/>
<text text-anchor="middle" x="383" y="-145.277" font-family="Times,serif" font-size="14.00">Documentation</text>
<text text-anchor="start" x="334" y="-130.277" font-family="Times,serif" font-size="14.00">* type</text>
</g>
<!-- NamedType&#45;&gt;Documentation -->
<g id="edge8" class="edge"><title>NamedType&#45;&gt;Documentation</title>
<path fill="none" stroke="black" d="M340.271,-257.292C350.221,-230.557 363.639,-194.502 372.766,-169.977"/>
<polygon fill="black" stroke="black" points="376.066,-171.143 376.274,-160.551 369.506,-168.702 376.066,-171.143"/>
</g>
<!-- DocType -->
<g id="node8" class="node"><title>DocType</title>
<ellipse fill="none" stroke="black" cx="531" cy="-293.953" rx="70.0071" ry="58.8803"/>
<text text-anchor="middle" x="531" y="-320.253" font-family="Times,serif" font-size="14.00">DocType</text>
<text text-anchor="start" x="489.5" y="-305.253" font-family="Times,serif" font-size="14.00">* doc</text>
<text text-anchor="start" x="489.5" y="-290.253" font-family="Times,serif" font-size="14.00">* docParent</text>
<text text-anchor="start" x="489.5" y="-275.253" font-family="Times,serif" font-size="14.00">* docChild</text>
<text text-anchor="start" x="489.5" y="-260.253" font-family="Times,serif" font-size="14.00">* docAfter</text>
</g>
<!-- SchemaDefinedType -->
<g id="node9" class="node"><title>SchemaDefinedType</title>
<ellipse fill="none" stroke="black" cx="560" cy="-141.477" rx="101.647" ry="37.4533"/>
<text text-anchor="middle" x="560" y="-152.777" font-family="Times,serif" font-size="14.00">SchemaDefinedType</text>
<text text-anchor="start" x="496" y="-137.777" font-family="Times,serif" font-size="14.00">* jsonldPredicate</text>
<text text-anchor="start" x="496" y="-122.777" font-family="Times,serif" font-size="14.00">* documentRoot</text>
</g>
<!-- DocType&#45;&gt;SchemaDefinedType -->
<g id="edge1" class="edge"><title>DocType&#45;&gt;SchemaDefinedType</title>
<path fill="none" stroke="black" d="M542.046,-235.635C545.012,-220.249 548.181,-203.801 551.02,-189.075"/>
<polygon fill="black" stroke="black" points="554.469,-189.67 552.925,-179.188 547.596,-188.345 554.469,-189.67"/>
</g>
<!-- DocType&#45;&gt;Documentation -->
<g id="edge9" class="edge"><title>DocType&#45;&gt;Documentation</title>
<path fill="none" stroke="black" d="M486.996,-248.213C461.233,-222.019 429.632,-189.889 408.072,-167.968"/>
<polygon fill="black" stroke="black" points="410.398,-165.342 400.89,-160.666 405.407,-170.25 410.398,-165.342"/>
</g>
<!-- SchemaDefinedType&#45;&gt;SaladRecordSchema -->
<g id="edge5" class="edge"><title>SchemaDefinedType&#45;&gt;SaladRecordSchema</title>
<path fill="none" stroke="black" d="M492.528,-113.314C458.151,-99.4739 416.071,-82.5335 379.854,-67.9529"/>
<polygon fill="black" stroke="black" points="380.878,-64.5923 370.294,-64.1044 378.264,-71.0858 380.878,-64.5923"/>
</g>
<!-- SchemaDefinedType&#45;&gt;SaladEnumSchema -->
<g id="edge7" class="edge"><title>SchemaDefinedType&#45;&gt;SaladEnumSchema</title>
<path fill="none" stroke="black" d="M587.638,-105.354C599.041,-90.8631 612.022,-74.3669 622.547,-60.9919"/>
<polygon fill="black" stroke="black" points="625.313,-63.1364 628.747,-53.1133 619.812,-58.8076 625.313,-63.1364"/>
</g>
</g>
</svg>
