<?xml version="1.0" encoding="UTF-8" standalone="no"?>
<!DOCTYPE svg PUBLIC "-//W3C//DTD SVG 1.1//EN"
 "http://www.w3.org/Graphics/SVG/1.1/DTD/svg11.dtd">
<!-- Generated by graphviz version 8.0.5 (20230430.1635)
 -->
<!-- Pages: 1 -->
<svg width="1023pt" height="99107pt"
 viewBox="0.00 0.00 1022.75 99107.42" xmlns="http://www.w3.org/2000/svg" xmlns:xlink="http://www.w3.org/1999/xlink">
<g id="graph0" class="graph" transform="scale(1 1) rotate(0) translate(4 99103.42)">
<polygon fill="white" stroke="none" points="-4,4 -4,-99103.42 1018.75,-99103.42 1018.75,4 -4,4"/>
<!-- RecordField -->
<g id="node1" class="node">
<title>RecordField</title>
<polygon fill="none" stroke="black" points="121,-99099.42 22.5,-99099.42 22.5,-192.97 121,-192.97 121,-99099.42"/>
<text text-anchor="middle" x="71.75" y="-99082.12" font-family="Times,serif" font-size="14.00">RecordField</text>
<text text-anchor="start" x="30.5" y="-99071.55" font-family="Times,serif" font-size="14.00">* name</text>
<text text-anchor="start" x="30.5" y="-204.68" font-family="Times,serif" font-size="14.00">* doc</text>
<text text-anchor="start" x="30.5" y="-194.18" font-family="Times,serif" font-size="14.00">* type</text>
</g>
<!-- SaladRecordField -->
<g id="node10" class="node">
<title>SaladRecordField</title>
<polygon fill="none" stroke="black" points="143.5,-151.72 0,-151.72 0,-98.75 143.5,-98.75 143.5,-151.72"/>
<text text-anchor="middle" x="71.75" y="-134.42" font-family="Times,serif" font-size="14.00">SaladRecordField</text>
<text text-anchor="start" x="8" y="-99.95" font-family="Times,serif" font-size="14.00">* jsonldPredicate</text>
</g>
<!-- RecordField&#45;&gt;SaladRecordField -->
<g id="edge2" class="edge">
<title>RecordField&#45;&gt;SaladRecordField</title>
<path fill="none" stroke="black" d="M71.75,-192.69C71.75,-181.36 71.75,-171.46 71.75,-163"/>
<polygon fill="black" stroke="black" points="75.25,-163.01 71.75,-153.01 68.25,-163.01 75.25,-163.01"/>
</g>
<!-- RecordSchema -->
<g id="node2" class="node">
<title>RecordSchema</title>
<polygon fill="none" stroke="black" points="267.75,-148.74 161.75,-148.74 161.75,-101.74 267.75,-101.74 267.75,-148.74"/>
<text text-anchor="middle" x="214.75" y="-131.44" font-family="Times,serif" font-size="14.00">RecordSchema</text>
<text text-anchor="start" x="169.75" y="-120.94" font-family="Times,serif" font-size="14.00">* fields</text>
<text text-anchor="start" x="169.75" y="-110.44" font-family="Times,serif" font-size="14.00">* type</text>
</g>
<!-- SaladRecordSchema -->
<g id="node11" class="node">
<title>SaladRecordSchema</title>
<polygon fill="none" stroke="black" points="367.5,-57.5 224,-57.5 224,0 367.5,0 367.5,-57.5"/>
<text text-anchor="middle" x="295.75" y="-40.2" font-family="Times,serif" font-size="14.00">SaladRecordSchema</text>
<text text-anchor="start" x="232" y="-29.7" font-family="Times,serif" font-size="14.00">* abstract</text>
<text text-anchor="start" x="232" y="-11.7" font-family="Times,serif" font-size="14.00">* extends</text>
<text text-anchor="start" x="232" y="-1.2" font-family="Times,serif" font-size="14.00">* specialize</text>
</g>
<!-- RecordSchema&#45;&gt;SaladRecordSchema -->
<g id="edge4" class="edge">
<title>RecordSchema&#45;&gt;SaladRecordSchema</title>
<path fill="none" stroke="black" d="M234.36,-101.36C243.49,-90.71 254.57,-77.79 264.79,-65.87"/>
<polygon fill="black" stroke="black" points="267.84,-68.68 271.69,-58.81 262.53,-64.13 267.84,-68.68"/>
</g>
<!-- EnumSchema -->
<g id="node3" class="node">
<title>EnumSchema</title>
<polygon fill="none" stroke="black" points="767.25,-156.97 676.25,-156.97 676.25,-93.5 767.25,-93.5 767.25,-156.97"/>
<text text-anchor="middle" x="721.75" y="-139.67" font-family="Times,serif" font-size="14.00">EnumSchema</text>
<text text-anchor="start" x="684.25" y="-105.2" font-family="Times,serif" font-size="14.00">* symbols</text>
<text text-anchor="start" x="684.25" y="-94.7" font-family="Times,serif" font-size="14.00">* type</text>
</g>
<!-- SaladEnumSchema -->
<g id="node12" class="node">
<title>SaladEnumSchema</title>
<polygon fill="none" stroke="black" points="703,-46.75 574.5,-46.75 574.5,-10.75 703,-10.75 703,-46.75"/>
<text text-anchor="middle" x="638.75" y="-25.95" font-family="Times,serif" font-size="14.00">SaladEnumSchema</text>
<text text-anchor="start" x="582.5" y="-15.45" font-family="Times,serif" font-size="14.00">* extends</text>
</g>
<!-- EnumSchema&#45;&gt;SaladEnumSchema -->
<g id="edge6" class="edge">
<title>EnumSchema&#45;&gt;SaladEnumSchema</title>
<path fill="none" stroke="black" d="M694.34,-93.04C683.55,-80.75 671.32,-66.83 661.08,-55.17"/>
<polygon fill="black" stroke="black" points="663.26,-53.34 654.03,-48.14 658,-57.96 663.26,-53.34"/>
</g>
<!-- ArraySchema -->
<g id="node4" class="node">
<title>ArraySchema</title>
<polygon fill="none" stroke="black" points="714,-49665.95 615.5,-49665.95 615.5,-49626.45 714,-49626.45 714,-49665.95"/>
<text text-anchor="middle" x="664.75" y="-49648.65" font-family="Times,serif" font-size="14.00">ArraySchema</text>
<text text-anchor="start" x="623.5" y="-49638.15" font-family="Times,serif" font-size="14.00">* items</text>
<text text-anchor="start" x="623.5" y="-49627.65" font-family="Times,serif" font-size="14.00">* type</text>
</g>
<!-- JsonldPredicate -->
<g id="node5" class="node">
<title>JsonldPredicate</title>
<polygon fill="none" stroke="black" points="861,-49714.69 732.5,-49714.69 732.5,-49577.71 861,-49577.71 861,-49714.69"/>
<text text-anchor="middle" x="796.75" y="-49697.39" font-family="Times,serif" font-size="14.00">JsonldPredicate</text>
<text text-anchor="start" x="740.5" y="-49686.89" font-family="Times,serif" font-size="14.00">* _id</text>
<text text-anchor="start" x="740.5" y="-49676.39" font-family="Times,serif" font-size="14.00">* _type</text>
<text text-anchor="start" x="740.5" y="-49665.89" font-family="Times,serif" font-size="14.00">* _container</text>
<text text-anchor="start" x="740.5" y="-49655.39" font-family="Times,serif" font-size="14.00">* identity</text>
<text text-anchor="start" x="740.5" y="-49644.89" font-family="Times,serif" font-size="14.00">* noLinkCheck</text>
<text text-anchor="start" x="740.5" y="-49634.39" font-family="Times,serif" font-size="14.00">* mapSubject</text>
<text text-anchor="start" x="740.5" y="-49623.89" font-family="Times,serif" font-size="14.00">* mapPredicate</text>
<text text-anchor="start" x="740.5" y="-49589.41" font-family="Times,serif" font-size="14.00">* refScope</text>
<text text-anchor="start" x="740.5" y="-49578.91" font-family="Times,serif" font-size="14.00">* typeDSL</text>
</g>
<!-- SpecializeDef -->
<g id="node6" class="node">
<title>SpecializeDef</title>
<polygon fill="none" stroke="black" points="1014.75,-49669.7 878.75,-49669.7 878.75,-49622.7 1014.75,-49622.7 1014.75,-49669.7"/>
<text text-anchor="middle" x="946.75" y="-49652.4" font-family="Times,serif" font-size="14.00">SpecializeDef</text>
<text text-anchor="start" x="886.75" y="-49641.9" font-family="Times,serif" font-size="14.00">* specializeFrom</text>
<text text-anchor="start" x="886.75" y="-49631.4" font-family="Times,serif" font-size="14.00">* specializeTo</text>
</g>
<!-- NamedType -->
<g id="node7" class="node">
<title>NamedType</title>
<ellipse fill="none" stroke="black" cx="323.75" cy="-49646.2" rx="59.04" ry="27.93"/>
<text text-anchor="middle" x="323.75" y="-49648.65" font-family="Times,serif" font-size="14.00">NamedType</text>
<text text-anchor="start" x="290" y="-49638.15" font-family="Times,serif" font-size="14.00">* name</text>
<text text-anchor="start" x="290" y="-49627.65" font-family="Times,serif" font-size="14.00">* inVocab</text>
</g>
<!-- NamedType&#45;&gt;SaladRecordSchema -->
<g id="edge3" class="edge">
<title>NamedType&#45;&gt;SaladRecordSchema</title>
<path fill="none" stroke="black" d="M323.73,-49618.12C323.01,-48331.26 296.64,-1604.86 295.77,-68.49"/>
<polygon fill="black" stroke="black" points="299.27,-68.54 295.77,-58.54 292.27,-68.54 299.27,-68.54"/>
</g>
<!-- Documentation -->
<g id="node13" class="node">
<title>Documentation</title>
<polygon fill="none" stroke="black" points="437.5,-143.49 324,-143.49 324,-106.99 437.5,-106.99 437.5,-143.49"/>
<text text-anchor="middle" x="380.75" y="-126.19" font-family="Times,serif" font-size="14.00">Documentation</text>
<text text-anchor="start" x="332" y="-115.69" font-family="Times,serif" font-size="14.00">* type</text>
</g>
<!-- NamedType&#45;&gt;Documentation -->
<g id="edge8" class="edge">
<title>NamedType&#45;&gt;Documentation</title>
<path fill="none" stroke="black" d="M323.78,-49618.17C325.26,-48330.79 379.19,-1478.26 380.72,-154.82"/>
<polygon fill="black" stroke="black" points="384.22,-154.95 380.73,-144.94 377.22,-154.94 384.22,-154.95"/>
</g>
<!-- DocType -->
<g id="node8" class="node">
<title>DocType</title>
<ellipse fill="none" stroke="black" cx="527.75" cy="-49646.2" rx="69.65" ry="59.73"/>
<text text-anchor="middle" x="527.75" y="-49671.14" font-family="Times,serif" font-size="14.00">DocType</text>
<text text-anchor="start" x="486.5" y="-49660.64" font-family="Times,serif" font-size="14.00">* doc</text>
<text text-anchor="start" x="486.5" y="-49650.14" font-family="Times,serif" font-size="14.00">* docParent</text>
<text text-anchor="start" x="486.5" y="-49639.64" font-family="Times,serif" font-size="14.00">* docChild</text>
<text text-anchor="start" x="486.5" y="-49605.16" font-family="Times,serif" font-size="14.00">* docAfter</text>
</g>
<!-- SchemaDefinedType -->
<g id="node9" class="node">
<title>SchemaDefinedType</title>
<ellipse fill="none" stroke="black" cx="556.75" cy="-125.24" rx="101.47" ry="27.93"/>
<text text-anchor="middle" x="556.75" y="-127.69" font-family="Times,serif" font-size="14.00">SchemaDefinedType</text>
<text text-anchor="start" x="493" y="-117.19" font-family="Times,serif" font-size="14.00">* jsonldPredicate</text>
<text text-anchor="start" x="493" y="-106.69" font-family="Times,serif" font-size="14.00">* documentRoot</text>
</g>
<!-- DocType&#45;&gt;SchemaDefinedType -->
<g id="edge1" class="edge">
<title>DocType&#45;&gt;SchemaDefinedType</title>
<path fill="none" stroke="black" d="M527.78,-49586.1C528.88,-47707.83 555.84,-1677.71 556.73,-164.4"/>
<polygon fill="black" stroke="black" points="560.23,-164.61 556.73,-154.61 553.23,-164.61 560.23,-164.61"/>
</g>
<!-- DocType&#45;&gt;Documentation -->
<g id="edge9" class="edge">
<title>DocType&#45;&gt;Documentation</title>
<path fill="none" stroke="black" d="M527.86,-49586C531.42,-47730.9 614.95,-2874.21 391.75,-192.97 390.69,-180.29 388.56,-166.39 386.45,-154.57"/>
<polygon fill="black" stroke="black" points="389.75,-154.17 384.47,-144.99 382.87,-155.46 389.75,-154.17"/>
</g>
<!-- SchemaDefinedType&#45;&gt;SaladRecordSchema -->
<g id="edge5" class="edge">
<title>SchemaDefinedType&#45;&gt;SaladRecordSchema</title>
<path fill="none" stroke="black" d="M496.54,-102.44C461.3,-89.68 416.32,-73.4 377.86,-59.48"/>
<polygon fill="black" stroke="black" points="379.31,-55.92 368.72,-55.8 376.93,-62.5 379.31,-55.92"/>
</g>
<!-- SchemaDefinedType&#45;&gt;SaladEnumSchema -->
<g id="edge7" class="edge">
<title>SchemaDefinedType&#45;&gt;SaladEnumSchema</title>
<path fill="none" stroke="black" d="M579.81,-97.67C591.31,-84.41 605.16,-68.45 616.54,-55.34"/>
<polygon fill="black" stroke="black" points="619.71,-58.03 623.62,-48.19 614.42,-53.45 619.71,-58.03"/>
</g>
</g>
</svg>
