<?xml version="1.0" encoding="UTF-8" standalone="no"?>
<!DOCTYPE svg PUBLIC "-//W3C//DTD SVG 1.1//EN"
 "http://www.w3.org/Graphics/SVG/1.1/DTD/svg11.dtd">
<!-- Generated by graphviz version 2.40.1 (0)
 -->
<!-- Title: %3 Pages: 1 -->
<svg width="1029pt" height="381pt"
 viewBox="0.00 0.00 1028.50 380.95" xmlns="http://www.w3.org/2000/svg" xmlns:xlink="http://www.w3.org/1999/xlink">
<g id="graph0" class="graph" transform="scale(1 1) rotate(0) translate(4 376.9533)">
<title>%3</title>
<polygon fill="#ffffff" stroke="transparent" points="-4,4 -4,-376.9533 1024.5,-376.9533 1024.5,4 -4,4"/>
<!-- RecordField -->
<g id="node1" class="node">
<title>RecordField</title>
<polygon fill="none" stroke="#000000" points="121.5,-327.9533 22.5,-327.9533 22.5,-259.9533 121.5,-259.9533 121.5,-327.9533"/>
<text text-anchor="middle" x="72" y="-312.7533" font-family="Times,serif" font-size="14.00" fill="#000000">RecordField</text>
<text text-anchor="start" x="30.5" y="-297.7533" font-family="Times,serif" font-size="14.00" fill="#000000">* name</text>
<text text-anchor="start" x="30.5" y="-282.7533" font-family="Times,serif" font-size="14.00" fill="#000000">* doc</text>
<text text-anchor="start" x="30.5" y="-267.7533" font-family="Times,serif" font-size="14.00" fill="#000000">* type</text>
</g>
<!-- SaladRecordField -->
<g id="node10" class="node">
<title>SaladRecordField</title>
<polygon fill="none" stroke="#000000" points="144,-160.4767 0,-160.4767 0,-122.4767 144,-122.4767 144,-160.4767"/>
<text text-anchor="middle" x="72" y="-145.2767" font-family="Times,serif" font-size="14.00" fill="#000000">SaladRecordField</text>
<text text-anchor="start" x="8" y="-130.2767" font-family="Times,serif" font-size="14.00" fill="#000000">* jsonldPredicate</text>
</g>
<!-- RecordField&#45;&gt;SaladRecordField -->
<g id="edge2" class="edge">
<title>RecordField&#45;&gt;SaladRecordField</title>
<path fill="none" stroke="#000000" d="M72,-259.7346C72,-232.9985 72,-196.236 72,-170.8295"/>
<polygon fill="#000000" stroke="#000000" points="75.5001,-170.6986 72,-160.6986 68.5001,-170.6987 75.5001,-170.6986"/>
</g>
<!-- RecordSchema -->
<g id="node2" class="node">
<title>RecordSchema</title>
<polygon fill="none" stroke="#000000" points="269.5,-167.9767 162.5,-167.9767 162.5,-114.9767 269.5,-114.9767 269.5,-167.9767"/>
<text text-anchor="middle" x="216" y="-152.7767" font-family="Times,serif" font-size="14.00" fill="#000000">RecordSchema</text>
<text text-anchor="start" x="170.5" y="-137.7767" font-family="Times,serif" font-size="14.00" fill="#000000">* fields</text>
<text text-anchor="start" x="170.5" y="-122.7767" font-family="Times,serif" font-size="14.00" fill="#000000">* type</text>
</g>
<!-- SaladRecordSchema -->
<g id="node11" class="node">
<title>SaladRecordSchema</title>
<polygon fill="none" stroke="#000000" points="370,-68 226,-68 226,0 370,0 370,-68"/>
<text text-anchor="middle" x="298" y="-52.8" font-family="Times,serif" font-size="14.00" fill="#000000">SaladRecordSchema</text>
<text text-anchor="start" x="234" y="-37.8" font-family="Times,serif" font-size="14.00" fill="#000000">* abstract</text>
<text text-anchor="start" x="234" y="-22.8" font-family="Times,serif" font-size="14.00" fill="#000000">* extends</text>
<text text-anchor="start" x="234" y="-7.8" font-family="Times,serif" font-size="14.00" fill="#000000">* specialize</text>
</g>
<!-- RecordSchema&#45;&gt;SaladRecordSchema -->
<g id="edge4" class="edge">
<title>RecordSchema&#45;&gt;SaladRecordSchema</title>
<path fill="none" stroke="#000000" d="M236.2697,-114.9094C245.0622,-103.3851 255.5807,-89.5985 265.4226,-76.6989"/>
<polygon fill="#000000" stroke="#000000" points="268.4844,-78.456 271.7675,-68.3827 262.9191,-74.21 268.4844,-78.456"/>
</g>
<!-- EnumSchema -->
<g id="node3" class="node">
<title>EnumSchema</title>
<polygon fill="none" stroke="#000000" points="772,-167.9767 680,-167.9767 680,-114.9767 772,-114.9767 772,-167.9767"/>
<text text-anchor="middle" x="726" y="-152.7767" font-family="Times,serif" font-size="14.00" fill="#000000">EnumSchema</text>
<text text-anchor="start" x="688" y="-137.7767" font-family="Times,serif" font-size="14.00" fill="#000000">* symbols</text>
<text text-anchor="start" x="688" y="-122.7767" font-family="Times,serif" font-size="14.00" fill="#000000">* type</text>
</g>
<!-- SaladEnumSchema -->
<g id="node12" class="node">
<title>SaladEnumSchema</title>
<polygon fill="none" stroke="#000000" points="707.5,-53 578.5,-53 578.5,-15 707.5,-15 707.5,-53"/>
<text text-anchor="middle" x="643" y="-37.8" font-family="Times,serif" font-size="14.00" fill="#000000">SaladEnumSchema</text>
<text text-anchor="start" x="586.5" y="-22.8" font-family="Times,serif" font-size="14.00" fill="#000000">* extends</text>
</g>
<!-- EnumSchema&#45;&gt;SaladEnumSchema -->
<g id="edge6" class="edge">
<title>EnumSchema&#45;&gt;SaladEnumSchema</title>
<path fill="none" stroke="#000000" d="M705.4831,-114.9094C692.8923,-98.6055 676.8045,-77.7734 664.1065,-61.3308"/>
<polygon fill="#000000" stroke="#000000" points="666.6941,-58.9552 657.8118,-53.1798 661.1539,-63.2337 666.6941,-58.9552"/>
</g>
<!-- ArraySchema -->
<g id="node4" class="node">
<title>ArraySchema</title>
<polygon fill="none" stroke="#000000" points="718.5,-320.4533 619.5,-320.4533 619.5,-267.4533 718.5,-267.4533 718.5,-320.4533"/>
<text text-anchor="middle" x="669" y="-305.2533" font-family="Times,serif" font-size="14.00" fill="#000000">ArraySchema</text>
<text text-anchor="start" x="627.5" y="-290.2533" font-family="Times,serif" font-size="14.00" fill="#000000">* items</text>
<text text-anchor="start" x="627.5" y="-275.2533" font-family="Times,serif" font-size="14.00" fill="#000000">* type</text>
</g>
<!-- JsonldPredicate -->
<g id="node5" class="node">
<title>JsonldPredicate</title>
<polygon fill="none" stroke="#000000" points="865.5,-372.9533 736.5,-372.9533 736.5,-214.9533 865.5,-214.9533 865.5,-372.9533"/>
<text text-anchor="middle" x="801" y="-357.7533" font-family="Times,serif" font-size="14.00" fill="#000000">JsonldPredicate</text>
<text text-anchor="start" x="744.5" y="-342.7533" font-family="Times,serif" font-size="14.00" fill="#000000">* _id</text>
<text text-anchor="start" x="744.5" y="-327.7533" font-family="Times,serif" font-size="14.00" fill="#000000">* _type</text>
<text text-anchor="start" x="744.5" y="-312.7533" font-family="Times,serif" font-size="14.00" fill="#000000">* _container</text>
<text text-anchor="start" x="744.5" y="-297.7533" font-family="Times,serif" font-size="14.00" fill="#000000">* identity</text>
<text text-anchor="start" x="744.5" y="-282.7533" font-family="Times,serif" font-size="14.00" fill="#000000">* noLinkCheck</text>
<text text-anchor="start" x="744.5" y="-267.7533" font-family="Times,serif" font-size="14.00" fill="#000000">* mapSubject</text>
<text text-anchor="start" x="744.5" y="-252.7533" font-family="Times,serif" font-size="14.00" fill="#000000">* mapPredicate</text>
<text text-anchor="start" x="744.5" y="-237.7533" font-family="Times,serif" font-size="14.00" fill="#000000">* refScope</text>
<text text-anchor="start" x="744.5" y="-222.7533" font-family="Times,serif" font-size="14.00" fill="#000000">* typeDSL</text>
</g>
<!-- SpecializeDef -->
<g id="node6" class="node">
<title>SpecializeDef</title>
<polygon fill="none" stroke="#000000" points="1020.5,-320.4533 883.5,-320.4533 883.5,-267.4533 1020.5,-267.4533 1020.5,-320.4533"/>
<text text-anchor="middle" x="952" y="-305.2533" font-family="Times,serif" font-size="14.00" fill="#000000">SpecializeDef</text>
<text text-anchor="start" x="891.5" y="-290.2533" font-family="Times,serif" font-size="14.00" fill="#000000">* specializeFrom</text>
<text text-anchor="start" x="891.5" y="-275.2533" font-family="Times,serif" font-size="14.00" fill="#000000">* specializeTo</text>
</g>
<!-- NamedType -->
<g id="node7" class="node">
<title>NamedType</title>
<ellipse fill="none" stroke="#000000" cx="327" cy="-293.9533" rx="59.2941" ry="37.4533"/>
<text text-anchor="middle" x="327" y="-305.2533" font-family="Times,serif" font-size="14.00" fill="#000000">NamedType</text>
<text text-anchor="start" x="293" y="-290.2533" font-family="Times,serif" font-size="14.00" fill="#000000">* name</text>
<text text-anchor="start" x="293" y="-275.2533" font-family="Times,serif" font-size="14.00" fill="#000000">* inVocab</text>
</g>
<!-- NamedType&#45;&gt;SaladRecordSchema -->
<g id="edge3" class="edge">
<title>NamedType&#45;&gt;SaladRecordSchema</title>
<path fill="none" stroke="#000000" d="M322.8141,-256.4315C317.557,-209.3068 308.5494,-128.5637 302.9543,-78.4096"/>
<polygon fill="#000000" stroke="#000000" points="306.4019,-77.745 301.8147,-68.1947 299.4451,-78.5211 306.4019,-77.745"/>
</g>
<!-- Documentation -->
<g id="node13" class="node">
<title>Documentation</title>
<polygon fill="none" stroke="#000000" points="440,-160.4767 326,-160.4767 326,-122.4767 440,-122.4767 440,-160.4767"/>
<text text-anchor="middle" x="383" y="-145.2767" font-family="Times,serif" font-size="14.00" fill="#000000">Documentation</text>
<text text-anchor="start" x="334" y="-130.2767" font-family="Times,serif" font-size="14.00" fill="#000000">* type</text>
</g>
<!-- NamedType&#45;&gt;Documentation -->
<g id="edge8" class="edge">
<title>NamedType&#45;&gt;Documentation</title>
<path fill="none" stroke="#000000" d="M340.4134,-257.4314C350.2534,-230.639 363.428,-194.7673 372.5047,-170.0533"/>
<polygon fill="#000000" stroke="#000000" points="375.8414,-171.1201 376.0036,-160.5265 369.2706,-168.7068 375.8414,-171.1201"/>
</g>
<!-- DocType -->
<g id="node8" class="node">
<title>DocType</title>
<ellipse fill="none" stroke="#000000" cx="531" cy="-293.9533" rx="70.0071" ry="58.8803"/>
<text text-anchor="middle" x="531" y="-320.2533" font-family="Times,serif" font-size="14.00" fill="#000000">DocType</text>
<text text-anchor="start" x="489.5" y="-305.2533" font-family="Times,serif" font-size="14.00" fill="#000000">* doc</text>
<text text-anchor="start" x="489.5" y="-290.2533" font-family="Times,serif" font-size="14.00" fill="#000000">* docParent</text>
<text text-anchor="start" x="489.5" y="-275.2533" font-family="Times,serif" font-size="14.00" fill="#000000">* docChild</text>
<text text-anchor="start" x="489.5" y="-260.2533" font-family="Times,serif" font-size="14.00" fill="#000000">* docAfter</text>
</g>
<!-- SchemaDefinedType -->
<g id="node9" class="node">
<title>SchemaDefinedType</title>
<ellipse fill="none" stroke="#000000" cx="560" cy="-141.4767" rx="101.6471" ry="37.4533"/>
<text text-anchor="middle" x="560" y="-152.7767" font-family="Times,serif" font-size="14.00" fill="#000000">SchemaDefinedType</text>
<text text-anchor="start" x="496" y="-137.7767" font-family="Times,serif" font-size="14.00" fill="#000000">* jsonldPredicate</text>
<text text-anchor="start" x="496" y="-122.7767" font-family="Times,serif" font-size="14.00" fill="#000000">* documentRoot</text>
</g>
<!-- DocType&#45;&gt;SchemaDefinedType -->
<g id="edge1" class="edge">
<title>DocType&#45;&gt;SchemaDefinedType</title>
<path fill="none" stroke="#000000" d="M542.0464,-235.8735C544.9856,-220.4196 548.1258,-203.9088 550.9448,-189.087"/>
<polygon fill="#000000" stroke="#000000" points="554.4086,-189.6072 552.8387,-179.1293 547.5318,-188.2992 554.4086,-189.6072"/>
</g>
<!-- DocType&#45;&gt;Documentation -->
<g id="edge9" class="edge">
<title>DocType&#45;&gt;Documentation</title>
<path fill="none" stroke="#000000" d="M486.5951,-248.2053C461.156,-221.9967 430.1301,-190.0324 408.7003,-167.9543"/>
<polygon fill="#000000" stroke="#000000" points="411.0218,-165.3209 401.5454,-160.583 405.9989,-170.1964 411.0218,-165.3209"/>
</g>
<!-- SchemaDefinedType&#45;&gt;SaladRecordSchema -->
<g id="edge5" class="edge">
<title>SchemaDefinedType&#45;&gt;SaladRecordSchema</title>
<path fill="none" stroke="#000000" d="M491.8465,-113.519C457.6077,-99.4737 415.8623,-82.3491 379.8926,-67.5937"/>
<polygon fill="#000000" stroke="#000000" points="380.9776,-64.2558 370.3975,-63.6986 378.3209,-70.7321 380.9776,-64.2558"/>
</g>
<!-- SchemaDefinedType&#45;&gt;SaladEnumSchema -->
<g id="edge7" class="edge">
<title>SchemaDefinedType&#45;&gt;SaladEnumSchema</title>
<path fill="none" stroke="#000000" d="M587.8687,-105.3895C599.0227,-90.9461 611.6547,-74.5891 622.0104,-61.1794"/>
<polygon fill="#000000" stroke="#000000" points="624.7885,-63.3083 628.1306,-53.2544 619.2483,-59.0298 624.7885,-63.3083"/>
</g>
</g>
</svg>
