<?xml version="1.0" encoding="UTF-8" standalone="no"?>
<!DOCTYPE svg PUBLIC "-//W3C//DTD SVG 1.1//EN"
 "http://www.w3.org/Graphics/SVG/1.1/DTD/svg11.dtd">
<!-- Generated by graphviz version 7.0.5 (20221223.1930)
 -->
<!-- Pages: 1 -->
<svg width="1041pt" height="543pt"
 viewBox="0.00 0.00 1040.50 543.12" xmlns="http://www.w3.org/2000/svg" xmlns:xlink="http://www.w3.org/1999/xlink">
<g id="graph0" class="graph" transform="scale(1 1) rotate(0) translate(4 539.12)">
<polygon fill="white" stroke="none" points="-4,4 -4,-539.12 1036.5,-539.12 1036.5,4 -4,4"/>
<!-- Documented -->
<g id="node1" class="node">
<title>Documented</title>
<ellipse fill="none" stroke="black" cx="470" cy="-441.12" rx="65.11" ry="26.74"/>
<text text-anchor="middle" x="470" y="-444.92" font-family="Times,serif" font-size="14.00">Documented</text>
<text text-anchor="start" x="432" y="-429.92" font-family="Times,serif" font-size="14.00">* doc</text>
</g>
<!-- RecordField -->
<g id="node2" class="node">
<title>RecordField</title>
<polygon fill="none" stroke="black" points="450.5,-289.54 351.5,-289.54 351.5,-236.54 450.5,-236.54 450.5,-289.54"/>
<text text-anchor="middle" x="401" y="-274.34" font-family="Times,serif" font-size="14.00">RecordField</text>
<text text-anchor="start" x="359.5" y="-259.34" font-family="Times,serif" font-size="14.00">* name</text>
<text text-anchor="start" x="359.5" y="-244.34" font-family="Times,serif" font-size="14.00">* type</text>
</g>
<!-- Documented&#45;&gt;RecordField -->
<g id="edge1" class="edge">
<title>Documented&#45;&gt;RecordField</title>
<path fill="none" stroke="black" d="M459.97,-414.52C448.2,-384.48 428.6,-334.46 415.25,-300.41"/>
<polygon fill="black" stroke="black" points="418.62,-299.4 411.71,-291.37 412.1,-301.96 418.62,-299.4"/>
</g>
<!-- DocType -->
<g id="node11" class="node">
<title>DocType</title>
<ellipse fill="none" stroke="black" cx="683" cy="-263.04" rx="70.01" ry="48.17"/>
<text text-anchor="middle" x="683" y="-281.84" font-family="Times,serif" font-size="14.00">DocType</text>
<text text-anchor="start" x="641.5" y="-266.84" font-family="Times,serif" font-size="14.00">* docParent</text>
<text text-anchor="start" x="641.5" y="-251.84" font-family="Times,serif" font-size="14.00">* docChild</text>
<text text-anchor="start" x="641.5" y="-236.84" font-family="Times,serif" font-size="14.00">* docAfter</text>
</g>
<!-- Documented&#45;&gt;DocType -->
<g id="edge2" class="edge">
<title>Documented&#45;&gt;DocType</title>
<path fill="none" stroke="black" d="M486.41,-414.76C500.16,-394.79 521.17,-367.09 544,-347.12 565.76,-328.08 592.47,-310.94 616.63,-297.23"/>
<polygon fill="black" stroke="black" points="618.1,-300.42 625.14,-292.5 614.7,-294.3 618.1,-300.42"/>
</g>
<!-- SaladRecordField -->
<g id="node13" class="node">
<title>SaladRecordField</title>
<polygon fill="none" stroke="black" points="144,-167.98 0,-167.98 0,-114.98 144,-114.98 144,-167.98"/>
<text text-anchor="middle" x="72" y="-152.78" font-family="Times,serif" font-size="14.00">SaladRecordField</text>
<text text-anchor="start" x="8" y="-137.78" font-family="Times,serif" font-size="14.00">* jsonldPredicate</text>
<text text-anchor="start" x="8" y="-122.78" font-family="Times,serif" font-size="14.00">* default</text>
</g>
<!-- RecordField&#45;&gt;SaladRecordField -->
<g id="edge4" class="edge">
<title>RecordField&#45;&gt;SaladRecordField</title>
<path fill="none" stroke="black" d="M351.07,-246.92C300.61,-231.27 220.65,-205.44 153,-178.95 148.05,-177.02 142.97,-174.94 137.88,-172.8"/>
<polygon fill="black" stroke="black" points="139.42,-169.65 128.85,-168.93 136.67,-176.09 139.42,-169.65"/>
</g>
<!-- RecordSchema -->
<g id="node3" class="node">
<title>RecordSchema</title>
<polygon fill="none" stroke="black" points="379.5,-167.98 272.5,-167.98 272.5,-114.98 379.5,-114.98 379.5,-167.98"/>
<text text-anchor="middle" x="326" y="-152.78" font-family="Times,serif" font-size="14.00">RecordSchema</text>
<text text-anchor="start" x="280.5" y="-137.78" font-family="Times,serif" font-size="14.00">* fields</text>
<text text-anchor="start" x="280.5" y="-122.78" font-family="Times,serif" font-size="14.00">* type</text>
</g>
<!-- SaladRecordSchema -->
<g id="node14" class="node">
<title>SaladRecordSchema</title>
<polygon fill="none" stroke="black" points="574,-68 430,-68 430,0 574,0 574,-68"/>
<text text-anchor="middle" x="502" y="-52.8" font-family="Times,serif" font-size="14.00">SaladRecordSchema</text>
<text text-anchor="start" x="438" y="-37.8" font-family="Times,serif" font-size="14.00">* abstract</text>
<text text-anchor="start" x="438" y="-22.8" font-family="Times,serif" font-size="14.00">* extends</text>
<text text-anchor="start" x="438" y="-7.8" font-family="Times,serif" font-size="14.00">* specialize</text>
</g>
<!-- RecordSchema&#45;&gt;SaladRecordSchema -->
<g id="edge6" class="edge">
<title>RecordSchema&#45;&gt;SaladRecordSchema</title>
<path fill="none" stroke="black" d="M369.05,-114.67C389.35,-102.51 414.02,-87.73 436.56,-74.22"/>
<polygon fill="black" stroke="black" points="438.33,-77.24 445.11,-69.09 434.73,-71.23 438.33,-77.24"/>
</g>
<!-- EnumSchema -->
<g id="node4" class="node">
<title>EnumSchema</title>
<polygon fill="none" stroke="black" points="254,-175.48 162,-175.48 162,-107.48 254,-107.48 254,-175.48"/>
<text text-anchor="middle" x="208" y="-160.28" font-family="Times,serif" font-size="14.00">EnumSchema</text>
<text text-anchor="start" x="170" y="-145.28" font-family="Times,serif" font-size="14.00">* name</text>
<text text-anchor="start" x="170" y="-130.28" font-family="Times,serif" font-size="14.00">* symbols</text>
<text text-anchor="start" x="170" y="-115.28" font-family="Times,serif" font-size="14.00">* type</text>
</g>
<!-- SaladEnumSchema -->
<g id="node15" class="node">
<title>SaladEnumSchema</title>
<polygon fill="none" stroke="black" points="411.5,-53 282.5,-53 282.5,-15 411.5,-15 411.5,-53"/>
<text text-anchor="middle" x="347" y="-37.8" font-family="Times,serif" font-size="14.00">SaladEnumSchema</text>
<text text-anchor="start" x="290.5" y="-22.8" font-family="Times,serif" font-size="14.00">* extends</text>
</g>
<!-- EnumSchema&#45;&gt;SaladEnumSchema -->
<g id="edge9" class="edge">
<title>EnumSchema&#45;&gt;SaladEnumSchema</title>
<path fill="none" stroke="black" d="M251.98,-107.1C271.98,-91.92 295.26,-74.26 313.77,-60.21"/>
<polygon fill="black" stroke="black" points="315.65,-63.18 321.5,-54.35 311.42,-57.6 315.65,-63.18"/>
</g>
<!-- ArraySchema -->
<g id="node5" class="node">
<title>ArraySchema</title>
<polygon fill="none" stroke="black" points="652.5,-467.62 553.5,-467.62 553.5,-414.62 652.5,-414.62 652.5,-467.62"/>
<text text-anchor="middle" x="603" y="-452.42" font-family="Times,serif" font-size="14.00">ArraySchema</text>
<text text-anchor="start" x="561.5" y="-437.42" font-family="Times,serif" font-size="14.00">* items</text>
<text text-anchor="start" x="561.5" y="-422.42" font-family="Times,serif" font-size="14.00">* type</text>
</g>
<!-- MapSchema -->
<g id="node6" class="node">
<title>MapSchema</title>
<polygon fill="none" stroke="black" points="703,-167.98 619,-167.98 619,-114.98 703,-114.98 703,-167.98"/>
<text text-anchor="middle" x="661" y="-152.78" font-family="Times,serif" font-size="14.00">MapSchema</text>
<text text-anchor="start" x="627" y="-137.78" font-family="Times,serif" font-size="14.00">* type</text>
<text text-anchor="start" x="627" y="-122.78" font-family="Times,serif" font-size="14.00">* values</text>
</g>
<!-- SaladMapSchema -->
<g id="node16" class="node">
<title>SaladMapSchema</title>
<polygon fill="none" stroke="black" points="719,-52 597,-52 597,-16 719,-16 719,-52"/>
<text text-anchor="middle" x="658" y="-30.3" font-family="Times,serif" font-size="14.00">SaladMapSchema</text>
</g>
<!-- MapSchema&#45;&gt;SaladMapSchema -->
<g id="edge12" class="edge">
<title>MapSchema&#45;&gt;SaladMapSchema</title>
<path fill="none" stroke="black" d="M660.27,-114.67C659.83,-99.22 659.27,-79.55 658.81,-63.62"/>
<polygon fill="black" stroke="black" points="662.32,-63.7 658.53,-53.81 655.32,-63.9 662.32,-63.7"/>
</g>
<!-- UnionSchema -->
<g id="node7" class="node">
<title>UnionSchema</title>
<polygon fill="none" stroke="black" points="1032.5,-167.98 933.5,-167.98 933.5,-114.98 1032.5,-114.98 1032.5,-167.98"/>
<text text-anchor="middle" x="983" y="-152.78" font-family="Times,serif" font-size="14.00">UnionSchema</text>
<text text-anchor="start" x="941.5" y="-137.78" font-family="Times,serif" font-size="14.00">* names</text>
<text text-anchor="start" x="941.5" y="-122.78" font-family="Times,serif" font-size="14.00">* type</text>
</g>
<!-- SaladUnionSchema -->
<g id="node17" class="node">
<title>SaladUnionSchema</title>
<polygon fill="none" stroke="black" points="1006.5,-53 869.5,-53 869.5,-15 1006.5,-15 1006.5,-53"/>
<text text-anchor="middle" x="938" y="-37.8" font-family="Times,serif" font-size="14.00">SaladUnionSchema</text>
<text text-anchor="start" x="877.5" y="-22.8" font-family="Times,serif" font-size="14.00">* documentRoot</text>
</g>
<!-- UnionSchema&#45;&gt;SaladUnionSchema -->
<g id="edge15" class="edge">
<title>UnionSchema&#45;&gt;SaladUnionSchema</title>
<path fill="none" stroke="black" d="M971.99,-114.67C965.4,-99.21 957,-79.53 950.2,-63.6"/>
<polygon fill="black" stroke="black" points="953.53,-62.48 946.39,-54.66 947.09,-65.23 953.53,-62.48"/>
</g>
<!-- JsonldPredicate -->
<g id="node8" class="node">
<title>JsonldPredicate</title>
<polygon fill="none" stroke="black" points="829.5,-535.12 670.5,-535.12 670.5,-347.12 829.5,-347.12 829.5,-535.12"/>
<text text-anchor="middle" x="750" y="-519.92" font-family="Times,serif" font-size="14.00">JsonldPredicate</text>
<text text-anchor="start" x="678.5" y="-504.92" font-family="Times,serif" font-size="14.00">* _id</text>
<text text-anchor="start" x="678.5" y="-489.92" font-family="Times,serif" font-size="14.00">* _type</text>
<text text-anchor="start" x="678.5" y="-474.92" font-family="Times,serif" font-size="14.00">* _container</text>
<text text-anchor="start" x="678.5" y="-459.92" font-family="Times,serif" font-size="14.00">* identity</text>
<text text-anchor="start" x="678.5" y="-444.92" font-family="Times,serif" font-size="14.00">* noLinkCheck</text>
<text text-anchor="start" x="678.5" y="-429.92" font-family="Times,serif" font-size="14.00">* mapSubject</text>
<text text-anchor="start" x="678.5" y="-414.92" font-family="Times,serif" font-size="14.00">* mapPredicate</text>
<text text-anchor="start" x="678.5" y="-399.92" font-family="Times,serif" font-size="14.00">* refScope</text>
<text text-anchor="start" x="678.5" y="-384.92" font-family="Times,serif" font-size="14.00">* typeDSL</text>
<text text-anchor="start" x="678.5" y="-369.92" font-family="Times,serif" font-size="14.00">* secondaryFilesDSL</text>
<text text-anchor="start" x="678.5" y="-354.92" font-family="Times,serif" font-size="14.00">* subscope</text>
</g>
<!-- SpecializeDef -->
<g id="node9" class="node">
<title>SpecializeDef</title>
<polygon fill="none" stroke="black" points="984.5,-467.62 847.5,-467.62 847.5,-414.62 984.5,-414.62 984.5,-467.62"/>
<text text-anchor="middle" x="916" y="-452.42" font-family="Times,serif" font-size="14.00">SpecializeDef</text>
<text text-anchor="start" x="855.5" y="-437.42" font-family="Times,serif" font-size="14.00">* specializeFrom</text>
<text text-anchor="start" x="855.5" y="-422.42" font-family="Times,serif" font-size="14.00">* specializeTo</text>
</g>
<!-- NamedType -->
<g id="node10" class="node">
<title>NamedType</title>
<ellipse fill="none" stroke="black" cx="780" cy="-141.48" rx="59.29" ry="37.45"/>
<text text-anchor="middle" x="780" y="-152.78" font-family="Times,serif" font-size="14.00">NamedType</text>
<text text-anchor="start" x="746" y="-137.78" font-family="Times,serif" font-size="14.00">* name</text>
<text text-anchor="start" x="746" y="-122.78" font-family="Times,serif" font-size="14.00">* inVocab</text>
</g>
<!-- NamedType&#45;&gt;SaladRecordSchema -->
<g id="edge5" class="edge">
<title>NamedType&#45;&gt;SaladRecordSchema</title>
<path fill="none" stroke="black" d="M736.76,-115.54C728.67,-111.38 720.19,-107.34 712,-104 658.87,-82.32 642.39,-86.3 588,-68 586.86,-67.62 585.72,-67.23 584.57,-66.84"/>
<polygon fill="black" stroke="black" points="586.13,-63.67 575.53,-63.67 583.81,-70.28 586.13,-63.67"/>
</g>
<!-- NamedType&#45;&gt;SaladEnumSchema -->
<g id="edge8" class="edge">
<title>NamedType&#45;&gt;SaladEnumSchema</title>
<path fill="none" stroke="black" d="M737.89,-114.82C729.55,-110.63 720.68,-106.76 712,-104 587.8,-64.53 546.55,-102.92 421,-68 411.75,-65.43 402.16,-61.88 393.09,-58.06"/>
<polygon fill="black" stroke="black" points="394.66,-54.93 384.1,-54.1 391.84,-61.33 394.66,-54.93"/>
</g>
<!-- NamedType&#45;&gt;SaladMapSchema -->
<g id="edge11" class="edge">
<title>NamedType&#45;&gt;SaladMapSchema</title>
<path fill="none" stroke="black" d="M745.69,-110.81C726.92,-94.58 703.94,-74.72 686.21,-59.39"/>
<polygon fill="black" stroke="black" points="688.98,-57.15 679.12,-53.26 684.4,-62.45 688.98,-57.15"/>
</g>
<!-- NamedType&#45;&gt;SaladUnionSchema -->
<g id="edge14" class="edge">
<title>NamedType&#45;&gt;SaladUnionSchema</title>
<path fill="none" stroke="black" d="M820.28,-113.59C845.19,-96.96 876.92,-75.77 901.17,-59.59"/>
<polygon fill="black" stroke="black" points="903.09,-62.51 909.46,-54.05 899.2,-56.69 903.09,-62.51"/>
</g>
<!-- Documentation -->
<g id="node18" class="node">
<title>Documentation</title>
<polygon fill="none" stroke="black" points="851,-53 737,-53 737,-15 851,-15 851,-53"/>
<text text-anchor="middle" x="794" y="-37.8" font-family="Times,serif" font-size="14.00">Documentation</text>
<text text-anchor="start" x="745" y="-22.8" font-family="Times,serif" font-size="14.00">* type</text>
</g>
<!-- NamedType&#45;&gt;Documentation -->
<g id="edge17" class="edge">
<title>NamedType&#45;&gt;Documentation</title>
<path fill="none" stroke="black" d="M784.86,-103.88C786.55,-91.12 788.43,-76.96 790.04,-64.82"/>
<polygon fill="black" stroke="black" points="793.5,-65.34 791.35,-54.97 786.56,-64.42 793.5,-65.34"/>
</g>
<!-- SchemaDefinedType -->
<g id="node12" class="node">
<title>SchemaDefinedType</title>
<ellipse fill="none" stroke="black" cx="499" cy="-141.48" rx="101.65" ry="37.45"/>
<text text-anchor="middle" x="499" y="-152.78" font-family="Times,serif" font-size="14.00">SchemaDefinedType</text>
<text text-anchor="start" x="435" y="-137.78" font-family="Times,serif" font-size="14.00">* jsonldPredicate</text>
<text text-anchor="start" x="435" y="-122.78" font-family="Times,serif" font-size="14.00">* documentRoot</text>
</g>
<!-- DocType&#45;&gt;SchemaDefinedType -->
<g id="edge3" class="edge">
<title>DocType&#45;&gt;SchemaDefinedType</title>
<path fill="none" stroke="black" d="M632.72,-229.37C609.52,-214.29 581.83,-196.3 557.67,-180.6"/>
<polygon fill="black" stroke="black" points="559.82,-177.83 549.53,-175.31 556.01,-183.7 559.82,-177.83"/>
</g>
<!-- DocType&#45;&gt;SaladUnionSchema -->
<g id="edge16" class="edge">
<title>DocType&#45;&gt;SaladUnionSchema</title>
<path fill="none" stroke="black" d="M748.13,-245.07C786.86,-232.23 834.77,-211.19 868,-178.95 901.04,-146.9 920.63,-96.05 930.35,-64.16"/>
<polygon fill="black" stroke="black" points="933.64,-65.36 933.06,-54.78 926.92,-63.41 933.64,-65.36"/>
</g>
<!-- DocType&#45;&gt;Documentation -->
<g id="edge18" class="edge">
<title>DocType&#45;&gt;Documentation</title>
<path fill="none" stroke="black" d="M749.35,-246.71C785.22,-234.68 826.47,-213.91 848,-178.95 865.47,-150.59 858.86,-135.49 848,-104 842.63,-88.41 832.12,-73.66 821.8,-61.82"/>
<polygon fill="black" stroke="black" points="824.4,-59.48 815.05,-54.49 819.25,-64.22 824.4,-59.48"/>
</g>
<!-- SchemaDefinedType&#45;&gt;SaladRecordSchema -->
<g id="edge7" class="edge">
<title>SchemaDefinedType&#45;&gt;SaladRecordSchema</title>
<path fill="none" stroke="black" d="M500.05,-103.59C500.27,-95.84 500.5,-87.6 500.73,-79.61"/>
<polygon fill="black" stroke="black" points="504.23,-79.78 501.01,-69.68 497.23,-79.58 504.23,-79.78"/>
</g>
<!-- SchemaDefinedType&#45;&gt;SaladEnumSchema -->
<g id="edge10" class="edge">
<title>SchemaDefinedType&#45;&gt;SaladEnumSchema</title>
<path fill="none" stroke="black" d="M452.15,-107.97C429.86,-92.5 403.63,-74.3 382.94,-59.94"/>
<polygon fill="black" stroke="black" points="385.02,-57.13 374.81,-54.3 381.03,-62.88 385.02,-57.13"/>
</g>
<!-- SchemaDefinedType&#45;&gt;SaladMapSchema -->
<g id="edge13" class="edge">
<title>SchemaDefinedType&#45;&gt;SaladMapSchema</title>
<path fill="none" stroke="black" d="M547.57,-108.26C571.75,-92.21 600.46,-73.17 622.55,-58.52"/>
<polygon fill="black" stroke="black" points="624.22,-61.61 630.62,-53.17 620.35,-55.78 624.22,-61.61"/>
</g>
</g>
</svg>
