<?xml version="1.0" encoding="UTF-8" standalone="no"?>
<!DOCTYPE svg PUBLIC "-//W3C//DTD SVG 1.1//EN"
 "http://www.w3.org/Graphics/SVG/1.1/DTD/svg11.dtd">
<!-- Generated by graphviz version 8.0.5 (20230430.1635)
 -->
<!-- Pages: 1 -->
<svg width="799pt" height="4528080pt"
 viewBox="0.00 0.00 798.50 4528080.10" xmlns="http://www.w3.org/2000/svg" xmlns:xlink="http://www.w3.org/1999/xlink">
<g id="graph0" class="graph" transform="scale(1 1) rotate(0) translate(4 4528076.1)">
<polygon fill="white" stroke="none" points="-4,4 -4,-4528076.1 794.5,-4528076.1 794.5,4 -4,4"/>
<!-- Documented -->
<g id="node1" class="node">
<title>Documented</title>
<ellipse fill="none" stroke="black" cx="228.75" cy="-3149870.24" rx="64.35" ry="20.56"/>
<text text-anchor="middle" x="228.75" y="-3149867.47" font-family="Times,serif" font-size="14.00">Documented</text>
<text text-anchor="start" x="191.25" y="-3149856.97" font-family="Times,serif" font-size="14.00">* doc</text>
</g>
<!-- RecordField -->
<g id="node2" class="node">
<title>RecordField</title>
<polygon fill="none" stroke="black" points="210,-1771632.37 111.5,-1771632.37 111.5,-1312197.93 210,-1312197.93 210,-1771632.37"/>
<text text-anchor="middle" x="160.75" y="-1771615.07" font-family="Times,serif" font-size="14.00">RecordField</text>
<text text-anchor="start" x="119.5" y="-1312217.14" font-family="Times,serif" font-size="14.00">* name</text>
<text text-anchor="start" x="119.5" y="-1312206.63" font-family="Times,serif" font-size="14.00">* type</text>
</g>
<!-- Documented&#45;&gt;RecordField -->
<g id="edge1" class="edge">
<title>Documented&#45;&gt;RecordField</title>
<path fill="none" stroke="black" d="M228.75,-3149849.4C228.54,-3144898.98 189.21,-2214812.31 170.47,-1771643.48"/>
<polygon fill="black" stroke="black" points="173.97,-1771643.7 170.46,-1771633.7 166.97,-1771643.7 173.97,-1771643.7"/>
</g>
<!-- DocType -->
<g id="node9" class="node">
<title>DocType</title>
<ellipse fill="none" stroke="black" cx="386.75" cy="-1541915.15" rx="69.65" ry="40.66"/>
<text text-anchor="middle" x="386.75" y="-1541926.6" font-family="Times,serif" font-size="14.00">DocType</text>
<text text-anchor="start" x="345.5" y="-1541916.1" font-family="Times,serif" font-size="14.00">* docParent</text>
<text text-anchor="start" x="345.5" y="-1541898.1" font-family="Times,serif" font-size="14.00">* docChild</text>
<text text-anchor="start" x="345.5" y="-1541887.6" font-family="Times,serif" font-size="14.00">* docAfter</text>
</g>
<!-- Documented&#45;&gt;DocType -->
<g id="edge2" class="edge">
<title>Documented&#45;&gt;DocType</title>
<path fill="none" stroke="black" d="M228.75,-3149849.54C228.43,-3145384.22 174.71,-2382407.54 302.75,-1771668.37 323.91,-1670735.94 385.31,-1544861.92 386.73,-1541967.02"/>
<polygon fill="black" stroke="black" points="390.23,-1541967.25 386.73,-1541957.25 383.23,-1541967.25 390.23,-1541967.25"/>
</g>
<!-- SaladRecordField -->
<g id="node11" class="node">
<title>SaladRecordField</title>
<polygon fill="none" stroke="black" points="143.5,-656151.22 0,-656151.22 0,-656104.22 143.5,-656104.22 143.5,-656151.22"/>
<text text-anchor="middle" x="71.75" y="-656133.92" font-family="Times,serif" font-size="14.00">SaladRecordField</text>
<text text-anchor="start" x="8" y="-656123.42" font-family="Times,serif" font-size="14.00">* jsonldPredicate</text>
<text text-anchor="start" x="8" y="-656105.42" font-family="Times,serif" font-size="14.00">* default</text>
</g>
<!-- RecordField&#45;&gt;SaladRecordField -->
<g id="edge4" class="edge">
<title>RecordField&#45;&gt;SaladRecordField</title>
<path fill="none" stroke="black" d="M137.67,-1312197.46C111.44,-1051143.09 72.17,-660325.96 71.75,-656162.26"/>
<polygon fill="black" stroke="black" points="75.25,-656162.48 71.75,-656152.48 68.25,-656162.48 75.25,-656162.48"/>
</g>
<!-- RecordSchema -->
<g id="node3" class="node">
<title>RecordSchema</title>
<polygon fill="none" stroke="black" points="267.75,-656151.22 161.75,-656151.22 161.75,-656104.22 267.75,-656104.22 267.75,-656151.22"/>
<text text-anchor="middle" x="214.75" y="-656133.92" font-family="Times,serif" font-size="14.00">RecordSchema</text>
<text text-anchor="start" x="169.75" y="-656123.42" font-family="Times,serif" font-size="14.00">* fields</text>
<text text-anchor="start" x="169.75" y="-656112.92" font-family="Times,serif" font-size="14.00">* type</text>
</g>
<!-- SaladRecordSchema -->
<g id="node12" class="node">
<title>SaladRecordSchema</title>
<polygon fill="none" stroke="black" points="458.5,-57.5 315,-57.5 315,0 458.5,0 458.5,-57.5"/>
<text text-anchor="middle" x="386.75" y="-40.2" font-family="Times,serif" font-size="14.00">SaladRecordSchema</text>
<text text-anchor="start" x="323" y="-29.7" font-family="Times,serif" font-size="14.00">* abstract</text>
<text text-anchor="start" x="323" y="-19.2" font-family="Times,serif" font-size="14.00">* extends</text>
<text text-anchor="start" x="323" y="-8.7" font-family="Times,serif" font-size="14.00">* specialize</text>
</g>
<!-- RecordSchema&#45;&gt;SaladRecordSchema -->
<g id="edge6" class="edge">
<title>RecordSchema&#45;&gt;SaladRecordSchema</title>
<path fill="none" stroke="black" d="M214.75,-656103.78C215.17,-651649.78 276.75,-93.5 276.75,-93.5 283.78,-81.31 294.12,-71.24 305.7,-62.98"/>
<polygon fill="black" stroke="black" points="307.34,-65.44 313.77,-57.02 303.49,-59.59 307.34,-65.44"/>
</g>
<!-- EnumSchema -->
<g id="node4" class="node">
<title>EnumSchema</title>
<polygon fill="none" stroke="black" points="734.25,-1115421.28 643.25,-1115421.28 643.25,-196834.15 734.25,-196834.15 734.25,-1115421.28"/>
<text text-anchor="middle" x="688.75" y="-1115403.98" font-family="Times,serif" font-size="14.00">EnumSchema</text>
<text text-anchor="start" x="651.25" y="-1115369.56" font-family="Times,serif" font-size="14.00">* symbols</text>
<text text-anchor="start" x="651.25" y="-656097.35" font-family="Times,serif" font-size="14.00">* type</text>
</g>
<!-- SaladEnumSchema -->
<g id="node13" class="node">
<title>SaladEnumSchema</title>
<polygon fill="none" stroke="black" points="630,-55.25 501.5,-55.25 501.5,-2.25 630,-2.25 630,-55.25"/>
<text text-anchor="middle" x="565.75" y="-37.95" font-family="Times,serif" font-size="14.00">SaladEnumSchema</text>
<text text-anchor="start" x="509.5" y="-3.53" font-family="Times,serif" font-size="14.00">* extends</text>
</g>
<!-- EnumSchema&#45;&gt;SaladEnumSchema -->
<g id="edge9" class="edge">
<title>EnumSchema&#45;&gt;SaladEnumSchema</title>
<path fill="none" stroke="black" d="M650.24,-196833.93C641,-86624.62 633.75,-93.5 633.75,-93.5 628.82,-82.13 620.76,-71.86 611.88,-63.05"/>
<polygon fill="black" stroke="black" points="614.64,-60.91 604.92,-56.69 609.89,-66.05 614.64,-60.91"/>
</g>
<!-- ArraySchema -->
<g id="node5" class="node">
<title>ArraySchema</title>
<polygon fill="none" stroke="black" points="410,-3859075.5 311.5,-3859075.5 311.5,-2440664.98 410,-2440664.98 410,-3859075.5"/>
<text text-anchor="middle" x="360.75" y="-3859058.2" font-family="Times,serif" font-size="14.00">ArraySchema</text>
<text text-anchor="start" x="319.5" y="-3859047.7" font-family="Times,serif" font-size="14.00">* items</text>
<text text-anchor="start" x="319.5" y="-2440666.18" font-family="Times,serif" font-size="14.00">* type</text>
</g>
<!-- JsonldPredicate -->
<g id="node6" class="node">
<title>JsonldPredicate</title>
<polygon fill="none" stroke="black" points="587,-4528072.1 428.5,-4528072.1 428.5,-1771668.37 587,-1771668.37 587,-4528072.1"/>
<text text-anchor="middle" x="507.75" y="-4528054.8" font-family="Times,serif" font-size="14.00">JsonldPredicate</text>
<text text-anchor="start" x="436.5" y="-4068595.91" font-family="Times,serif" font-size="14.00">* _id</text>
<text text-anchor="start" x="436.5" y="-3609181.61" font-family="Times,serif" font-size="14.00">* _type</text>
<text text-anchor="start" x="436.5" y="-3149767.2" font-family="Times,serif" font-size="14.00">* _container</text>
<text text-anchor="start" x="436.5" y="-3149756.7" font-family="Times,serif" font-size="14.00">* identity</text>
<text text-anchor="start" x="436.5" y="-3149738.7" font-family="Times,serif" font-size="14.00">* noLinkCheck</text>
<text text-anchor="start" x="436.5" y="-3149728.2" font-family="Times,serif" font-size="14.00">* mapSubject</text>
<text text-anchor="start" x="436.5" y="-3149717.7" font-family="Times,serif" font-size="14.00">* mapPredicate</text>
<text text-anchor="start" x="436.5" y="-3149683.28" font-family="Times,serif" font-size="14.00">* refScope</text>
<text text-anchor="start" x="436.5" y="-2690224.55" font-family="Times,serif" font-size="14.00">* typeDSL</text>
<text text-anchor="start" x="436.5" y="-2230947.12" font-family="Times,serif" font-size="14.00">* secondaryFilesDSL</text>
<text text-anchor="start" x="436.5" y="-1771669.57" font-family="Times,serif" font-size="14.00">* subscope</text>
</g>
<!-- SpecializeDef -->
<g id="node7" class="node">
<title>SpecializeDef</title>
<polygon fill="none" stroke="black" points="740.75,-3149905.7 604.75,-3149905.7 604.75,-3149834.78 740.75,-3149834.78 740.75,-3149905.7"/>
<text text-anchor="middle" x="672.75" y="-3149888.4" font-family="Times,serif" font-size="14.00">SpecializeDef</text>
<text text-anchor="start" x="612.75" y="-3149853.98" font-family="Times,serif" font-size="14.00">* specializeFrom</text>
<text text-anchor="start" x="612.75" y="-3149843.48" font-family="Times,serif" font-size="14.00">* specializeTo</text>
</g>
<!-- NamedType -->
<g id="node8" class="node">
<title>NamedType</title>
<ellipse fill="none" stroke="black" cx="565.75" cy="-656127.72" rx="59.04" ry="656034.22"/>
<text text-anchor="middle" x="565.75" y="-1119996.66" font-family="Times,serif" font-size="14.00">NamedType</text>
<text text-anchor="start" x="532" y="-660536.88" font-family="Times,serif" font-size="14.00">* name</text>
<text text-anchor="start" x="532" y="-192242.67" font-family="Times,serif" font-size="14.00">* inVocab</text>
</g>
<!-- NamedType&#45;&gt;SaladRecordSchema -->
<g id="edge5" class="edge">
<title>NamedType&#45;&gt;SaladRecordSchema</title>
<path fill="none" stroke="black" d="M520.67,-227526.25C507.59,-103125.36 496.75,-93.5 496.75,-93.5 489.72,-81.31 479.38,-71.24 467.8,-62.98"/>
<polygon fill="black" stroke="black" points="470.01,-59.59 459.73,-57.02 466.16,-65.44 470.01,-59.59"/>
</g>
<!-- NamedType&#45;&gt;SaladEnumSchema -->
<g id="edge8" class="edge">
<title>NamedType&#45;&gt;SaladEnumSchema</title>
<path fill="none" stroke="black" d="M565.75,-93.27C565.75,-83.07 565.75,-74.1 565.75,-66.35"/>
<polygon fill="black" stroke="black" points="569.25,-66.54 565.75,-56.54 562.25,-66.54 569.25,-66.54"/>
</g>
<!-- Documentation -->
<g id="node14" class="node">
<title>Documentation</title>
<polygon fill="none" stroke="black" points="790.5,-46.75 677,-46.75 677,-10.75 790.5,-10.75 790.5,-46.75"/>
<text text-anchor="middle" x="733.75" y="-25.95" font-family="Times,serif" font-size="14.00">Documentation</text>
<text text-anchor="start" x="685" y="-15.45" font-family="Times,serif" font-size="14.00">* type</text>
</g>
<!-- NamedType&#45;&gt;Documentation -->
<g id="edge11" class="edge">
<title>NamedType&#45;&gt;Documentation</title>
<path fill="none" stroke="black" d="M610.83,-227526.25C623.91,-103125.36 634.75,-93.5 634.75,-93.5 644.41,-75.78 661.35,-62.25 678.5,-52.31"/>
<polygon fill="black" stroke="black" points="679.89,-55 687.02,-47.15 676.56,-48.84 679.89,-55"/>
</g>
<!-- SchemaDefinedType -->
<g id="node10" class="node">
<title>SchemaDefinedType</title>
<ellipse fill="none" stroke="black" cx="386.75" cy="-656127.72" rx="101.47" ry="27.93"/>
<text text-anchor="middle" x="386.75" y="-656130.17" font-family="Times,serif" font-size="14.00">SchemaDefinedType</text>
<text text-anchor="start" x="323" y="-656119.67" font-family="Times,serif" font-size="14.00">* jsonldPredicate</text>
<text text-anchor="start" x="323" y="-656109.17" font-family="Times,serif" font-size="14.00">* documentRoot</text>
</g>
<!-- DocType&#45;&gt;SchemaDefinedType -->
<g id="edge3" class="edge">
<title>DocType&#45;&gt;SchemaDefinedType</title>
<path fill="none" stroke="black" d="M386.75,-1541874.02C386.75,-1535060.47 386.75,-662818.19 386.75,-656166.95"/>
<polygon fill="black" stroke="black" points="390.25,-656166.99 386.75,-656156.99 383.25,-656166.99 390.25,-656166.99"/>
</g>
<!-- DocType&#45;&gt;Documentation -->
<g id="edge12" class="edge">
<title>DocType&#45;&gt;Documentation</title>
<path fill="none" stroke="black" d="M386.84,-1541874.06C392.42,-1539299.22 665.23,-1413227.07 743.75,-1312161.93 744.63,-1311022.99 832.27,-1229 743.75,-93.5 742.83,-81.73 740.98,-68.85 739.11,-57.76"/>
<polygon fill="black" stroke="black" points="742.39,-57.22 737.2,-47.98 735.5,-58.44 742.39,-57.22"/>
</g>
<!-- SchemaDefinedType&#45;&gt;SaladRecordSchema -->
<g id="edge7" class="edge">
<title>SchemaDefinedType&#45;&gt;SaladRecordSchema</title>
<path fill="none" stroke="black" d="M386.75,-656099.5C386.75,-651271.99 386.75,-5836.45 386.75,-68.64"/>
<polygon fill="black" stroke="black" points="390.25,-68.66 386.75,-58.66 383.25,-68.66 390.25,-68.66"/>
</g>
<!-- SchemaDefinedType&#45;&gt;SaladEnumSchema -->
<g id="edge10" class="edge">
<title>SchemaDefinedType&#45;&gt;SaladEnumSchema</title>
<path fill="none" stroke="black" d="M386.75,-656099.53C385.9,-651254.67 272.17,-614.08 497.75,-93.5 502.68,-82.13 510.74,-71.86 519.62,-63.05"/>
<polygon fill="black" stroke="black" points="521.62,-66.05 526.58,-56.69 516.86,-60.91 521.62,-66.05"/>
</g>
</g>
</svg>
