<?xml version="1.0" encoding="UTF-8" standalone="no"?>
<!DOCTYPE svg PUBLIC "-//W3C//DTD SVG 1.1//EN"
 "http://www.w3.org/Graphics/SVG/1.1/DTD/svg11.dtd">
<!-- Generated by graphviz version 7.0.2 (20221119.0110)
 -->
<!-- Pages: 1 -->
<svg width="801pt" height="543pt"
 viewBox="0.00 0.00 801.00 543.12" xmlns="http://www.w3.org/2000/svg" xmlns:xlink="http://www.w3.org/1999/xlink">
<g id="graph0" class="graph" transform="scale(1 1) rotate(0) translate(4 539.12)">
<polygon fill="white" stroke="none" points="-4,4 -4,-539.12 797,-539.12 797,4 -4,4"/>
<!-- Documented -->
<g id="node1" class="node">
<title>Documented</title>
<ellipse fill="none" stroke="black" cx="231" cy="-441.12" rx="65.11" ry="26.74"/>
<text text-anchor="middle" x="231" y="-444.92" font-family="Times,serif" font-size="14.00">Documented</text>
<text text-anchor="start" x="193" y="-429.92" font-family="Times,serif" font-size="14.00">* doc</text>
</g>
<!-- RecordField -->
<g id="node2" class="node">
<title>RecordField</title>
<polygon fill="none" stroke="black" points="211.5,-289.54 112.5,-289.54 112.5,-236.54 211.5,-236.54 211.5,-289.54"/>
<text text-anchor="middle" x="162" y="-274.34" font-family="Times,serif" font-size="14.00">RecordField</text>
<text text-anchor="start" x="120.5" y="-259.34" font-family="Times,serif" font-size="14.00">* name</text>
<text text-anchor="start" x="120.5" y="-244.34" font-family="Times,serif" font-size="14.00">* type</text>
</g>
<!-- Documented&#45;&gt;RecordField -->
<g id="edge1" class="edge">
<title>Documented&#45;&gt;RecordField</title>
<path fill="none" stroke="black" d="M220.97,-414.52C209.2,-384.48 189.6,-334.46 176.25,-300.41"/>
<polygon fill="black" stroke="black" points="179.62,-299.4 172.71,-291.37 173.1,-301.96 179.62,-299.4"/>
</g>
<!-- DocType -->
<g id="node9" class="node">
<title>DocType</title>
<ellipse fill="none" stroke="black" cx="389" cy="-263.04" rx="70.01" ry="48.17"/>
<text text-anchor="middle" x="389" y="-281.84" font-family="Times,serif" font-size="14.00">DocType</text>
<text text-anchor="start" x="347.5" y="-266.84" font-family="Times,serif" font-size="14.00">* docParent</text>
<text text-anchor="start" x="347.5" y="-251.84" font-family="Times,serif" font-size="14.00">* docChild</text>
<text text-anchor="start" x="347.5" y="-236.84" font-family="Times,serif" font-size="14.00">* docAfter</text>
</g>
<!-- Documented&#45;&gt;DocType -->
<g id="edge2" class="edge">
<title>Documented&#45;&gt;DocType</title>
<path fill="none" stroke="black" d="M249.4,-415.39C263.93,-396.26 285.01,-369.38 305,-347.12 316.02,-334.84 328.41,-322.08 340.22,-310.34"/>
<polygon fill="black" stroke="black" points="342.53,-312.98 347.2,-303.47 337.62,-307.99 342.53,-312.98"/>
</g>
<!-- SaladRecordField -->
<g id="node11" class="node">
<title>SaladRecordField</title>
<polygon fill="none" stroke="black" points="144,-167.98 0,-167.98 0,-114.98 144,-114.98 144,-167.98"/>
<text text-anchor="middle" x="72" y="-152.78" font-family="Times,serif" font-size="14.00">SaladRecordField</text>
<text text-anchor="start" x="8" y="-137.78" font-family="Times,serif" font-size="14.00">* jsonldPredicate</text>
<text text-anchor="start" x="8" y="-122.78" font-family="Times,serif" font-size="14.00">* default</text>
</g>
<!-- RecordField&#45;&gt;SaladRecordField -->
<g id="edge4" class="edge">
<title>RecordField&#45;&gt;SaladRecordField</title>
<path fill="none" stroke="black" d="M142.47,-236.09C129.56,-218.94 112.47,-196.24 98.36,-177.49"/>
<polygon fill="black" stroke="black" points="101.21,-175.46 92.4,-169.58 95.62,-179.67 101.21,-175.46"/>
</g>
<!-- RecordSchema -->
<g id="node3" class="node">
<title>RecordSchema</title>
<polygon fill="none" stroke="black" points="269.5,-167.98 162.5,-167.98 162.5,-114.98 269.5,-114.98 269.5,-167.98"/>
<text text-anchor="middle" x="216" y="-152.78" font-family="Times,serif" font-size="14.00">RecordSchema</text>
<text text-anchor="start" x="170.5" y="-137.78" font-family="Times,serif" font-size="14.00">* fields</text>
<text text-anchor="start" x="170.5" y="-122.78" font-family="Times,serif" font-size="14.00">* type</text>
</g>
<!-- SaladRecordSchema -->
<g id="node12" class="node">
<title>SaladRecordSchema</title>
<polygon fill="none" stroke="black" points="461,-68 317,-68 317,0 461,0 461,-68"/>
<text text-anchor="middle" x="389" y="-52.8" font-family="Times,serif" font-size="14.00">SaladRecordSchema</text>
<text text-anchor="start" x="325" y="-37.8" font-family="Times,serif" font-size="14.00">* abstract</text>
<text text-anchor="start" x="325" y="-22.8" font-family="Times,serif" font-size="14.00">* extends</text>
<text text-anchor="start" x="325" y="-7.8" font-family="Times,serif" font-size="14.00">* specialize</text>
</g>
<!-- RecordSchema&#45;&gt;SaladRecordSchema -->
<g id="edge6" class="edge">
<title>RecordSchema&#45;&gt;SaladRecordSchema</title>
<path fill="none" stroke="black" d="M258.32,-114.67C278.28,-102.51 302.52,-87.73 324.68,-74.22"/>
<polygon fill="black" stroke="black" points="326.35,-77.3 333.06,-69.1 322.7,-71.32 326.35,-77.3"/>
</g>
<!-- EnumSchema -->
<g id="node4" class="node">
<title>EnumSchema</title>
<polygon fill="none" stroke="black" points="737,-167.98 645,-167.98 645,-114.98 737,-114.98 737,-167.98"/>
<text text-anchor="middle" x="691" y="-152.78" font-family="Times,serif" font-size="14.00">EnumSchema</text>
<text text-anchor="start" x="653" y="-137.78" font-family="Times,serif" font-size="14.00">* symbols</text>
<text text-anchor="start" x="653" y="-122.78" font-family="Times,serif" font-size="14.00">* type</text>
</g>
<!-- SaladEnumSchema -->
<g id="node13" class="node">
<title>SaladEnumSchema</title>
<polygon fill="none" stroke="black" points="632.5,-53 503.5,-53 503.5,-15 632.5,-15 632.5,-53"/>
<text text-anchor="middle" x="568" y="-37.8" font-family="Times,serif" font-size="14.00">SaladEnumSchema</text>
<text text-anchor="start" x="511.5" y="-22.8" font-family="Times,serif" font-size="14.00">* extends</text>
</g>
<!-- EnumSchema&#45;&gt;SaladEnumSchema -->
<g id="edge9" class="edge">
<title>EnumSchema&#45;&gt;SaladEnumSchema</title>
<path fill="none" stroke="black" d="M660.91,-114.67C641.75,-98.25 617.04,-77.05 597.92,-60.66"/>
<polygon fill="black" stroke="black" points="600.32,-58.1 590.45,-54.25 595.76,-63.42 600.32,-58.1"/>
</g>
<!-- ArraySchema -->
<g id="node5" class="node">
<title>ArraySchema</title>
<polygon fill="none" stroke="black" points="413.5,-467.62 314.5,-467.62 314.5,-414.62 413.5,-414.62 413.5,-467.62"/>
<text text-anchor="middle" x="364" y="-452.42" font-family="Times,serif" font-size="14.00">ArraySchema</text>
<text text-anchor="start" x="322.5" y="-437.42" font-family="Times,serif" font-size="14.00">* items</text>
<text text-anchor="start" x="322.5" y="-422.42" font-family="Times,serif" font-size="14.00">* type</text>
</g>
<!-- JsonldPredicate -->
<g id="node6" class="node">
<title>JsonldPredicate</title>
<polygon fill="none" stroke="black" points="590.5,-535.12 431.5,-535.12 431.5,-347.12 590.5,-347.12 590.5,-535.12"/>
<text text-anchor="middle" x="511" y="-519.92" font-family="Times,serif" font-size="14.00">JsonldPredicate</text>
<text text-anchor="start" x="439.5" y="-504.92" font-family="Times,serif" font-size="14.00">* _id</text>
<text text-anchor="start" x="439.5" y="-489.92" font-family="Times,serif" font-size="14.00">* _type</text>
<text text-anchor="start" x="439.5" y="-474.92" font-family="Times,serif" font-size="14.00">* _container</text>
<text text-anchor="start" x="439.5" y="-459.92" font-family="Times,serif" font-size="14.00">* identity</text>
<text text-anchor="start" x="439.5" y="-444.92" font-family="Times,serif" font-size="14.00">* noLinkCheck</text>
<text text-anchor="start" x="439.5" y="-429.92" font-family="Times,serif" font-size="14.00">* mapSubject</text>
<text text-anchor="start" x="439.5" y="-414.92" font-family="Times,serif" font-size="14.00">* mapPredicate</text>
<text text-anchor="start" x="439.5" y="-399.92" font-family="Times,serif" font-size="14.00">* refScope</text>
<text text-anchor="start" x="439.5" y="-384.92" font-family="Times,serif" font-size="14.00">* typeDSL</text>
<text text-anchor="start" x="439.5" y="-369.92" font-family="Times,serif" font-size="14.00">* secondaryFilesDSL</text>
<text text-anchor="start" x="439.5" y="-354.92" font-family="Times,serif" font-size="14.00">* subscope</text>
</g>
<!-- SpecializeDef -->
<g id="node7" class="node">
<title>SpecializeDef</title>
<polygon fill="none" stroke="black" points="745.5,-467.62 608.5,-467.62 608.5,-414.62 745.5,-414.62 745.5,-467.62"/>
<text text-anchor="middle" x="677" y="-452.42" font-family="Times,serif" font-size="14.00">SpecializeDef</text>
<text text-anchor="start" x="616.5" y="-437.42" font-family="Times,serif" font-size="14.00">* specializeFrom</text>
<text text-anchor="start" x="616.5" y="-422.42" font-family="Times,serif" font-size="14.00">* specializeTo</text>
</g>
<!-- NamedType -->
<g id="node8" class="node">
<title>NamedType</title>
<ellipse fill="none" stroke="black" cx="568" cy="-141.48" rx="59.29" ry="37.45"/>
<text text-anchor="middle" x="568" y="-152.78" font-family="Times,serif" font-size="14.00">NamedType</text>
<text text-anchor="start" x="534" y="-137.78" font-family="Times,serif" font-size="14.00">* name</text>
<text text-anchor="start" x="534" y="-122.78" font-family="Times,serif" font-size="14.00">* inVocab</text>
</g>
<!-- NamedType&#45;&gt;SaladRecordSchema -->
<g id="edge5" class="edge">
<title>NamedType&#45;&gt;SaladRecordSchema</title>
<path fill="none" stroke="black" d="M525.13,-115.21C504.31,-102.95 478.83,-87.93 455.56,-74.22"/>
<polygon fill="black" stroke="black" points="457.44,-71.27 447.05,-69.21 453.89,-77.3 457.44,-71.27"/>
</g>
<!-- NamedType&#45;&gt;SaladEnumSchema -->
<g id="edge8" class="edge">
<title>NamedType&#45;&gt;SaladEnumSchema</title>
<path fill="none" stroke="black" d="M568,-103.59C568,-90.84 568,-76.74 568,-64.65"/>
<polygon fill="black" stroke="black" points="571.5,-64.87 568,-54.87 564.5,-64.87 571.5,-64.87"/>
</g>
<!-- Documentation -->
<g id="node14" class="node">
<title>Documentation</title>
<polygon fill="none" stroke="black" points="793,-53 679,-53 679,-15 793,-15 793,-53"/>
<text text-anchor="middle" x="736" y="-37.8" font-family="Times,serif" font-size="14.00">Documentation</text>
<text text-anchor="start" x="687" y="-22.8" font-family="Times,serif" font-size="14.00">* type</text>
</g>
<!-- NamedType&#45;&gt;Documentation -->
<g id="edge11" class="edge">
<title>NamedType&#45;&gt;Documentation</title>
<path fill="none" stroke="black" d="M609.53,-114.4C636.24,-97.63 670.72,-75.98 696.93,-59.53"/>
<polygon fill="black" stroke="black" points="698.65,-62.58 705.26,-54.3 694.93,-56.65 698.65,-62.58"/>
</g>
<!-- SchemaDefinedType -->
<g id="node10" class="node">
<title>SchemaDefinedType</title>
<ellipse fill="none" stroke="black" cx="389" cy="-141.48" rx="101.65" ry="37.45"/>
<text text-anchor="middle" x="389" y="-152.78" font-family="Times,serif" font-size="14.00">SchemaDefinedType</text>
<text text-anchor="start" x="325" y="-137.78" font-family="Times,serif" font-size="14.00">* jsonldPredicate</text>
<text text-anchor="start" x="325" y="-122.78" font-family="Times,serif" font-size="14.00">* documentRoot</text>
</g>
<!-- DocType&#45;&gt;SchemaDefinedType -->
<g id="edge3" class="edge">
<title>DocType&#45;&gt;SchemaDefinedType</title>
<path fill="none" stroke="black" d="M389,-214.44C389,-206.56 389,-198.39 389,-190.51"/>
<polygon fill="black" stroke="black" points="392.5,-190.74 389,-180.74 385.5,-190.74 392.5,-190.74"/>
</g>
<!-- DocType&#45;&gt;Documentation -->
<g id="edge12" class="edge">
<title>DocType&#45;&gt;Documentation</title>
<path fill="none" stroke="black" d="M458.42,-255.95C551.94,-246.15 710.78,-223.31 746,-178.95 771.92,-146.31 759.92,-95.29 748.35,-63.57"/>
<polygon fill="black" stroke="black" points="751.76,-62.69 744.88,-54.63 745.23,-65.22 751.76,-62.69"/>
</g>
<!-- SchemaDefinedType&#45;&gt;SaladRecordSchema -->
<g id="edge7" class="edge">
<title>SchemaDefinedType&#45;&gt;SaladRecordSchema</title>
<path fill="none" stroke="black" d="M389,-103.59C389,-95.84 389,-87.6 389,-79.61"/>
<polygon fill="black" stroke="black" points="392.5,-79.68 389,-69.68 385.5,-79.68 392.5,-79.68"/>
</g>
<!-- SchemaDefinedType&#45;&gt;SaladEnumSchema -->
<g id="edge10" class="edge">
<title>SchemaDefinedType&#45;&gt;SaladEnumSchema</title>
<path fill="none" stroke="black" d="M442.22,-109.12C469.42,-93.09 502.01,-73.89 527.2,-59.04"/>
<polygon fill="black" stroke="black" points="528.66,-62.24 535.5,-54.15 525.11,-56.21 528.66,-62.24"/>
</g>
</g>
</svg>
