<?xml version="1.0" encoding="UTF-8" standalone="no"?>
<!DOCTYPE svg PUBLIC "-//W3C//DTD SVG 1.1//EN"
 "http://www.w3.org/Graphics/SVG/1.1/DTD/svg11.dtd">
<!-- Generated by graphviz version 3.0.0 (20220413.0242)
 -->
<!-- Pages: 1 -->
<svg width="801pt" height="543pt"
 viewBox="0.00 0.00 801.00 543.12" xmlns="http://www.w3.org/2000/svg" xmlns:xlink="http://www.w3.org/1999/xlink">
<g id="graph0" class="graph" transform="scale(1 1) rotate(0) translate(4 539.12)">
<polygon fill="white" stroke="transparent" points="-4,4 -4,-539.12 797,-539.12 797,4 -4,4"/>
<!-- Documented -->
<g id="node1" class="node">
<title>Documented</title>
<ellipse fill="none" stroke="black" cx="231" cy="-441.12" rx="65.11" ry="26.74"/>
<text text-anchor="middle" x="231" y="-444.92" font-family="Times,serif" font-size="14.00">Documented</text>
<text text-anchor="start" x="193" y="-429.92" font-family="Times,serif" font-size="14.00">* doc</text>
</g>
<!-- RecordField -->
<g id="node2" class="node">
<title>RecordField</title>
<polygon fill="none" stroke="black" points="211.5,-289.54 112.5,-289.54 112.5,-236.54 211.5,-236.54 211.5,-289.54"/>
<text text-anchor="middle" x="162" y="-274.34" font-family="Times,serif" font-size="14.00">RecordField</text>
<text text-anchor="start" x="120.5" y="-259.34" font-family="Times,serif" font-size="14.00">* name</text>
<text text-anchor="start" x="120.5" y="-244.34" font-family="Times,serif" font-size="14.00">* type</text>
</g>
<!-- Documented&#45;&gt;RecordField -->
<g id="edge1" class="edge">
<title>Documented&#45;&gt;RecordField</title>
<path fill="none" stroke="black" d="M220.97,-414.52C209.06,-384.13 189.14,-333.3 175.79,-299.24"/>
<polygon fill="black" stroke="black" points="178.95,-297.71 172.05,-289.67 172.44,-300.26 178.95,-297.71"/>
</g>
<!-- DocType -->
<g id="node9" class="node">
<title>DocType</title>
<ellipse fill="none" stroke="black" cx="389" cy="-263.04" rx="70.01" ry="48.17"/>
<text text-anchor="middle" x="389" y="-281.84" font-family="Times,serif" font-size="14.00">DocType</text>
<text text-anchor="start" x="347.5" y="-266.84" font-family="Times,serif" font-size="14.00">* docParent</text>
<text text-anchor="start" x="347.5" y="-251.84" font-family="Times,serif" font-size="14.00">* docChild</text>
<text text-anchor="start" x="347.5" y="-236.84" font-family="Times,serif" font-size="14.00">* docAfter</text>
</g>
<!-- Documented&#45;&gt;DocType -->
<g id="edge2" class="edge">
<title>Documented&#45;&gt;DocType</title>
<path fill="none" stroke="black" d="M249.7,-414.99C264.22,-395.89 285.15,-369.23 305,-347.12 316.23,-334.61 328.89,-321.59 340.9,-309.67"/>
<polygon fill="black" stroke="black" points="343.61,-311.91 348.28,-302.4 338.69,-306.93 343.61,-311.91"/>
</g>
<!-- SaladRecordField -->
<g id="node11" class="node">
<title>SaladRecordField</title>
<polygon fill="none" stroke="black" points="144,-167.98 0,-167.98 0,-114.98 144,-114.98 144,-167.98"/>
<text text-anchor="middle" x="72" y="-152.78" font-family="Times,serif" font-size="14.00">SaladRecordField</text>
<text text-anchor="start" x="8" y="-137.78" font-family="Times,serif" font-size="14.00">* jsonldPredicate</text>
<text text-anchor="start" x="8" y="-122.78" font-family="Times,serif" font-size="14.00">* default</text>
</g>
<!-- RecordField&#45;&gt;SaladRecordField -->
<g id="edge4" class="edge">
<title>RecordField&#45;&gt;SaladRecordField</title>
<path fill="none" stroke="black" d="M142.69,-236.39C129.47,-218.82 111.78,-195.33 97.41,-176.24"/>
<polygon fill="black" stroke="black" points="100.09,-173.97 91.28,-168.08 94.49,-178.18 100.09,-173.97"/>
</g>
<!-- RecordSchema -->
<g id="node3" class="node">
<title>RecordSchema</title>
<polygon fill="none" stroke="black" points="269.5,-167.98 162.5,-167.98 162.5,-114.98 269.5,-114.98 269.5,-167.98"/>
<text text-anchor="middle" x="216" y="-152.78" font-family="Times,serif" font-size="14.00">RecordSchema</text>
<text text-anchor="start" x="170.5" y="-137.78" font-family="Times,serif" font-size="14.00">* fields</text>
<text text-anchor="start" x="170.5" y="-122.78" font-family="Times,serif" font-size="14.00">* type</text>
</g>
<!-- SaladRecordSchema -->
<g id="node12" class="node">
<title>SaladRecordSchema</title>
<polygon fill="none" stroke="black" points="461,-68 317,-68 317,0 461,0 461,-68"/>
<text text-anchor="middle" x="389" y="-52.8" font-family="Times,serif" font-size="14.00">SaladRecordSchema</text>
<text text-anchor="start" x="325" y="-37.8" font-family="Times,serif" font-size="14.00">* abstract</text>
<text text-anchor="start" x="325" y="-22.8" font-family="Times,serif" font-size="14.00">* extends</text>
<text text-anchor="start" x="325" y="-7.8" font-family="Times,serif" font-size="14.00">* specialize</text>
</g>
<!-- RecordSchema&#45;&gt;SaladRecordSchema -->
<g id="edge6" class="edge">
<title>RecordSchema&#45;&gt;SaladRecordSchema</title>
<path fill="none" stroke="black" d="M257.88,-114.94C278.36,-102.46 303.44,-87.16 326.16,-73.31"/>
<polygon fill="black" stroke="black" points="328.02,-76.28 334.74,-68.08 324.38,-70.3 328.02,-76.28"/>
</g>
<!-- EnumSchema -->
<g id="node4" class="node">
<title>EnumSchema</title>
<polygon fill="none" stroke="black" points="737,-167.98 645,-167.98 645,-114.98 737,-114.98 737,-167.98"/>
<text text-anchor="middle" x="691" y="-152.78" font-family="Times,serif" font-size="14.00">EnumSchema</text>
<text text-anchor="start" x="653" y="-137.78" font-family="Times,serif" font-size="14.00">* symbols</text>
<text text-anchor="start" x="653" y="-122.78" font-family="Times,serif" font-size="14.00">* type</text>
</g>
<!-- SaladEnumSchema -->
<g id="node13" class="node">
<title>SaladEnumSchema</title>
<polygon fill="none" stroke="black" points="632.5,-53 503.5,-53 503.5,-15 632.5,-15 632.5,-53"/>
<text text-anchor="middle" x="568" y="-37.8" font-family="Times,serif" font-size="14.00">SaladEnumSchema</text>
<text text-anchor="start" x="511.5" y="-22.8" font-family="Times,serif" font-size="14.00">* extends</text>
</g>
<!-- EnumSchema&#45;&gt;SaladEnumSchema -->
<g id="edge9" class="edge">
<title>EnumSchema&#45;&gt;SaladEnumSchema</title>
<path fill="none" stroke="black" d="M661.23,-114.94C641.6,-98.12 616.05,-76.2 596.66,-59.58"/>
<polygon fill="black" stroke="black" points="598.9,-56.88 589.03,-53.03 594.34,-62.2 598.9,-56.88"/>
</g>
<!-- ArraySchema -->
<g id="node5" class="node">
<title>ArraySchema</title>
<polygon fill="none" stroke="black" points="413.5,-467.62 314.5,-467.62 314.5,-414.62 413.5,-414.62 413.5,-467.62"/>
<text text-anchor="middle" x="364" y="-452.42" font-family="Times,serif" font-size="14.00">ArraySchema</text>
<text text-anchor="start" x="322.5" y="-437.42" font-family="Times,serif" font-size="14.00">* items</text>
<text text-anchor="start" x="322.5" y="-422.42" font-family="Times,serif" font-size="14.00">* type</text>
</g>
<!-- JsonldPredicate -->
<g id="node6" class="node">
<title>JsonldPredicate</title>
<polygon fill="none" stroke="black" points="590.5,-535.12 431.5,-535.12 431.5,-347.12 590.5,-347.12 590.5,-535.12"/>
<text text-anchor="middle" x="511" y="-519.92" font-family="Times,serif" font-size="14.00">JsonldPredicate</text>
<text text-anchor="start" x="439.5" y="-504.92" font-family="Times,serif" font-size="14.00">* _id</text>
<text text-anchor="start" x="439.5" y="-489.92" font-family="Times,serif" font-size="14.00">* _type</text>
<text text-anchor="start" x="439.5" y="-474.92" font-family="Times,serif" font-size="14.00">* _container</text>
<text text-anchor="start" x="439.5" y="-459.92" font-family="Times,serif" font-size="14.00">* identity</text>
<text text-anchor="start" x="439.5" y="-444.92" font-family="Times,serif" font-size="14.00">* noLinkCheck</text>
<text text-anchor="start" x="439.5" y="-429.92" font-family="Times,serif" font-size="14.00">* mapSubject</text>
<text text-anchor="start" x="439.5" y="-414.92" font-family="Times,serif" font-size="14.00">* mapPredicate</text>
<text text-anchor="start" x="439.5" y="-399.92" font-family="Times,serif" font-size="14.00">* refScope</text>
<text text-anchor="start" x="439.5" y="-384.92" font-family="Times,serif" font-size="14.00">* typeDSL</text>
<text text-anchor="start" x="439.5" y="-369.92" font-family="Times,serif" font-size="14.00">* secondaryFilesDSL</text>
<text text-anchor="start" x="439.5" y="-354.92" font-family="Times,serif" font-size="14.00">* subscope</text>
</g>
<!-- SpecializeDef -->
<g id="node7" class="node">
<title>SpecializeDef</title>
<polygon fill="none" stroke="black" points="745.5,-467.62 608.5,-467.62 608.5,-414.62 745.5,-414.62 745.5,-467.62"/>
<text text-anchor="middle" x="677" y="-452.42" font-family="Times,serif" font-size="14.00">SpecializeDef</text>
<text text-anchor="start" x="616.5" y="-437.42" font-family="Times,serif" font-size="14.00">* specializeFrom</text>
<text text-anchor="start" x="616.5" y="-422.42" font-family="Times,serif" font-size="14.00">* specializeTo</text>
</g>
<!-- NamedType -->
<g id="node8" class="node">
<title>NamedType</title>
<ellipse fill="none" stroke="black" cx="568" cy="-141.48" rx="59.29" ry="37.45"/>
<text text-anchor="middle" x="568" y="-152.78" font-family="Times,serif" font-size="14.00">NamedType</text>
<text text-anchor="start" x="534" y="-137.78" font-family="Times,serif" font-size="14.00">* name</text>
<text text-anchor="start" x="534" y="-122.78" font-family="Times,serif" font-size="14.00">* inVocab</text>
</g>
<!-- NamedType&#45;&gt;SaladRecordSchema -->
<g id="edge5" class="edge">
<title>NamedType&#45;&gt;SaladRecordSchema</title>
<path fill="none" stroke="black" d="M525.13,-115.21C503.75,-102.62 477.46,-87.13 453.7,-73.13"/>
<polygon fill="black" stroke="black" points="455.47,-70.1 445.08,-68.04 451.92,-76.14 455.47,-70.1"/>
</g>
<!-- NamedType&#45;&gt;SaladEnumSchema -->
<g id="edge8" class="edge">
<title>NamedType&#45;&gt;SaladEnumSchema</title>
<path fill="none" stroke="black" d="M568,-103.88C568,-90.63 568,-75.87 568,-63.42"/>
<polygon fill="black" stroke="black" points="571.5,-63.18 568,-53.18 564.5,-63.18 571.5,-63.18"/>
</g>
<!-- Documentation -->
<g id="node14" class="node">
<title>Documentation</title>
<polygon fill="none" stroke="black" points="793,-53 679,-53 679,-15 793,-15 793,-53"/>
<text text-anchor="middle" x="736" y="-37.8" font-family="Times,serif" font-size="14.00">Documentation</text>
<text text-anchor="start" x="687" y="-22.8" font-family="Times,serif" font-size="14.00">* type</text>
</g>
<!-- NamedType&#45;&gt;Documentation -->
<g id="edge11" class="edge">
<title>NamedType&#45;&gt;Documentation</title>
<path fill="none" stroke="black" d="M609.53,-114.4C636.85,-97.25 672.31,-74.98 698.73,-58.4"/>
<polygon fill="black" stroke="black" points="700.71,-61.29 707.32,-53.01 696.99,-55.36 700.71,-61.29"/>
</g>
<!-- SchemaDefinedType -->
<g id="node10" class="node">
<title>SchemaDefinedType</title>
<ellipse fill="none" stroke="black" cx="389" cy="-141.48" rx="101.65" ry="37.45"/>
<text text-anchor="middle" x="389" y="-152.78" font-family="Times,serif" font-size="14.00">SchemaDefinedType</text>
<text text-anchor="start" x="325" y="-137.78" font-family="Times,serif" font-size="14.00">* jsonldPredicate</text>
<text text-anchor="start" x="325" y="-122.78" font-family="Times,serif" font-size="14.00">* documentRoot</text>
</g>
<!-- DocType&#45;&gt;SchemaDefinedType -->
<g id="edge3" class="edge">
<title>DocType&#45;&gt;SchemaDefinedType</title>
<path fill="none" stroke="black" d="M389,-214.78C389,-206.34 389,-197.54 389,-189.11"/>
<polygon fill="black" stroke="black" points="392.5,-189.06 389,-179.06 385.5,-189.06 392.5,-189.06"/>
</g>
<!-- DocType&#45;&gt;Documentation -->
<g id="edge12" class="edge">
<title>DocType&#45;&gt;Documentation</title>
<path fill="none" stroke="black" d="M458.42,-255.95C551.94,-246.15 710.78,-223.31 746,-178.95 772.15,-146.02 759.71,-94.4 748.04,-62.74"/>
<polygon fill="black" stroke="black" points="751.22,-61.27 744.33,-53.22 744.7,-63.81 751.22,-61.27"/>
</g>
<!-- SchemaDefinedType&#45;&gt;SaladRecordSchema -->
<g id="edge7" class="edge">
<title>SchemaDefinedType&#45;&gt;SaladRecordSchema</title>
<path fill="none" stroke="black" d="M389,-103.88C389,-95.59 389,-86.71 389,-78.18"/>
<polygon fill="black" stroke="black" points="392.5,-78 389,-68 385.5,-78 392.5,-78"/>
</g>
<!-- SchemaDefinedType&#45;&gt;SaladEnumSchema -->
<g id="edge10" class="edge">
<title>SchemaDefinedType&#45;&gt;SaladEnumSchema</title>
<path fill="none" stroke="black" d="M441.74,-109.4C469.6,-92.98 503.21,-73.18 528.75,-58.13"/>
<polygon fill="black" stroke="black" points="530.58,-61.11 537.42,-53.02 527.03,-55.08 530.58,-61.11"/>
</g>
</g>
</svg>
