<?xml version="1.0" encoding="UTF-8" standalone="no"?>
<!DOCTYPE svg PUBLIC "-//W3C//DTD SVG 1.1//EN"
 "http://www.w3.org/Graphics/SVG/1.1/DTD/svg11.dtd">
<!-- Generated by graphviz version 8.0.5 (20230430.1635)
 -->
<!-- Pages: 1 -->
<svg width="824pt" height="1886086pt"
 viewBox="0.00 0.00 824.47 1886085.88" xmlns="http://www.w3.org/2000/svg" xmlns:xlink="http://www.w3.org/1999/xlink">
<g id="graph0" class="graph" transform="scale(1 1) rotate(0) translate(4 1886081.88)">
<polygon fill="white" stroke="none" points="-4,4 -4,-1886081.88 820.47,-1886081.88 820.47,4 -4,4"/>
<!-- Documented -->
<g id="node1" class="node">
<title>Documented</title>
<ellipse fill="none" stroke="black" cx="254.72" cy="-943198.17" rx="64.35" ry="942879.72"/>
<text text-anchor="middle" x="254.72" y="-1609897.51" font-family="Times,serif" font-size="14.00">Documented</text>
<text text-anchor="start" x="217.22" y="-276482.72" font-family="Times,serif" font-size="14.00">* doc</text>
</g>
<!-- RecordField -->
<g id="node2" class="node">
<title>RecordField</title>
<polygon fill="none" stroke="black" points="235.97,-270.59 137.47,-270.59 137.47,-223.59 235.97,-223.59 235.97,-270.59"/>
<text text-anchor="middle" x="186.72" y="-253.29" font-family="Times,serif" font-size="14.00">RecordField</text>
<text text-anchor="start" x="145.47" y="-242.79" font-family="Times,serif" font-size="14.00">* name</text>
<text text-anchor="start" x="145.47" y="-224.79" font-family="Times,serif" font-size="14.00">* type</text>
</g>
<!-- Documented&#45;&gt;RecordField -->
<g id="edge1" class="edge">
<title>Documented&#45;&gt;RecordField</title>
<path fill="none" stroke="black" d="M207.79,-292464.67C196.16,-131107.51 186.9,-2663.39 186.72,-281.76"/>
<polygon fill="black" stroke="black" points="190.22,-282 186.72,-272 183.22,-282 190.22,-282"/>
</g>
<!-- DocType -->
<g id="node9" class="node">
<title>DocType</title>
<ellipse fill="none" stroke="black" cx="412.72" cy="-247.09" rx="69.65" ry="35.36"/>
<text text-anchor="middle" x="412.72" y="-254.79" font-family="Times,serif" font-size="14.00">DocType</text>
<text text-anchor="start" x="371.47" y="-244.29" font-family="Times,serif" font-size="14.00">* docParent</text>
<text text-anchor="start" x="371.47" y="-233.79" font-family="Times,serif" font-size="14.00">* docChild</text>
<text text-anchor="start" x="371.47" y="-223.29" font-family="Times,serif" font-size="14.00">* docAfter</text>
</g>
<!-- Documented&#45;&gt;DocType -->
<g id="edge2" class="edge">
<title>Documented&#45;&gt;DocType</title>
<path fill="none" stroke="black" d="M190.3,-835252.39C52.16,-587960.55 -217.77,-1488.91 328.72,-318.45 335.46,-304.03 346.76,-291.51 358.94,-281.2"/>
<polygon fill="black" stroke="black" points="360.81,-283.39 366.46,-274.42 356.45,-277.91 360.81,-283.39"/>
</g>
<!-- SaladRecordField -->
<g id="node11" class="node">
<title>SaladRecordField</title>
<polygon fill="none" stroke="black" points="169.47,-150.62 25.97,-150.62 25.97,-111.12 169.47,-111.12 169.47,-150.62"/>
<text text-anchor="middle" x="97.72" y="-133.32" font-family="Times,serif" font-size="14.00">SaladRecordField</text>
<text text-anchor="start" x="33.97" y="-122.82" font-family="Times,serif" font-size="14.00">* jsonldPredicate</text>
<text text-anchor="start" x="33.97" y="-112.32" font-family="Times,serif" font-size="14.00">* default</text>
</g>
<!-- RecordField&#45;&gt;SaladRecordField -->
<g id="edge4" class="edge">
<title>RecordField&#45;&gt;SaladRecordField</title>
<path fill="none" stroke="black" d="M168.92,-223.25C154.58,-204.85 134.37,-178.91 119.14,-159.36"/>
<polygon fill="black" stroke="black" points="121.44,-157.62 112.54,-151.88 115.92,-161.92 121.44,-157.62"/>
</g>
<!-- RecordSchema -->
<g id="node3" class="node">
<title>RecordSchema</title>
<polygon fill="none" stroke="black" points="293.72,-150.62 187.72,-150.62 187.72,-111.12 293.72,-111.12 293.72,-150.62"/>
<text text-anchor="middle" x="240.72" y="-133.32" font-family="Times,serif" font-size="14.00">RecordSchema</text>
<text text-anchor="start" x="195.72" y="-122.82" font-family="Times,serif" font-size="14.00">* fields</text>
<text text-anchor="start" x="195.72" y="-112.32" font-family="Times,serif" font-size="14.00">* type</text>
</g>
<!-- SaladRecordSchema -->
<g id="node12" class="node">
<title>SaladRecordSchema</title>
<polygon fill="none" stroke="black" points="484.47,-50 340.97,-50 340.97,0 484.47,0 484.47,-50"/>
<text text-anchor="middle" x="412.72" y="-32.7" font-family="Times,serif" font-size="14.00">SaladRecordSchema</text>
<text text-anchor="start" x="348.97" y="-22.2" font-family="Times,serif" font-size="14.00">* abstract</text>
<text text-anchor="start" x="348.97" y="-11.7" font-family="Times,serif" font-size="14.00">* extends</text>
<text text-anchor="start" x="348.97" y="-1.2" font-family="Times,serif" font-size="14.00">* specialize</text>
</g>
<!-- RecordSchema&#45;&gt;SaladRecordSchema -->
<g id="edge6" class="edge">
<title>RecordSchema&#45;&gt;SaladRecordSchema</title>
<path fill="none" stroke="black" d="M266.21,-110.83C277.24,-102.85 290.41,-93.67 302.72,-86 319.62,-75.46 338.5,-64.79 355.78,-55.42"/>
<polygon fill="black" stroke="black" points="357.04,-58.18 364.2,-50.36 353.73,-52.02 357.04,-58.18"/>
</g>
<!-- EnumSchema -->
<g id="node4" class="node">
<title>EnumSchema</title>
<polygon fill="none" stroke="black" points="760.22,-154.37 669.22,-154.37 669.22,-107.37 760.22,-107.37 760.22,-154.37"/>
<text text-anchor="middle" x="714.72" y="-137.07" font-family="Times,serif" font-size="14.00">EnumSchema</text>
<text text-anchor="start" x="677.22" y="-119.07" font-family="Times,serif" font-size="14.00">* symbols</text>
<text text-anchor="start" x="677.22" y="-108.57" font-family="Times,serif" font-size="14.00">* type</text>
</g>
<!-- SaladEnumSchema -->
<g id="node13" class="node">
<title>SaladEnumSchema</title>
<polygon fill="none" stroke="black" points="655.97,-43.25 527.47,-43.25 527.47,-6.75 655.97,-6.75 655.97,-43.25"/>
<text text-anchor="middle" x="591.72" y="-25.95" font-family="Times,serif" font-size="14.00">SaladEnumSchema</text>
<text text-anchor="start" x="535.47" y="-7.95" font-family="Times,serif" font-size="14.00">* extends</text>
</g>
<!-- EnumSchema&#45;&gt;SaladEnumSchema -->
<g id="edge9" class="edge">
<title>EnumSchema&#45;&gt;SaladEnumSchema</title>
<path fill="none" stroke="black" d="M687.73,-107.08C667.93,-90.35 641.07,-67.67 620.8,-50.55"/>
<polygon fill="black" stroke="black" points="623.45,-47.37 613.55,-43.59 618.93,-52.72 623.45,-47.37"/>
</g>
<!-- ArraySchema -->
<g id="node5" class="node">
<title>ArraySchema</title>
<polygon fill="none" stroke="black" points="435.97,-943229.89 337.47,-943229.89 337.47,-943166.44 435.97,-943166.44 435.97,-943229.89"/>
<text text-anchor="middle" x="386.72" y="-943212.59" font-family="Times,serif" font-size="14.00">ArraySchema</text>
<text text-anchor="start" x="345.47" y="-943202.09" font-family="Times,serif" font-size="14.00">* items</text>
<text text-anchor="start" x="345.47" y="-943167.64" font-family="Times,serif" font-size="14.00">* type</text>
</g>
<!-- JsonldPredicate -->
<g id="node6" class="node">
<title>JsonldPredicate</title>
<polygon fill="none" stroke="black" points="612.97,-943304.85 454.47,-943304.85 454.47,-943091.48 612.97,-943091.48 612.97,-943304.85"/>
<text text-anchor="middle" x="533.72" y="-943287.55" font-family="Times,serif" font-size="14.00">JsonldPredicate</text>
<text text-anchor="start" x="462.47" y="-943277.05" font-family="Times,serif" font-size="14.00">* _id</text>
<text text-anchor="start" x="462.47" y="-943266.55" font-family="Times,serif" font-size="14.00">* _type</text>
<text text-anchor="start" x="462.47" y="-943256.05" font-family="Times,serif" font-size="14.00">* _container</text>
<text text-anchor="start" x="462.47" y="-943221.59" font-family="Times,serif" font-size="14.00">* identity</text>
<text text-anchor="start" x="462.47" y="-943211.09" font-family="Times,serif" font-size="14.00">* noLinkCheck</text>
<text text-anchor="start" x="462.47" y="-943176.64" font-family="Times,serif" font-size="14.00">* mapSubject</text>
<text text-anchor="start" x="462.47" y="-943166.14" font-family="Times,serif" font-size="14.00">* mapPredicate</text>
<text text-anchor="start" x="462.47" y="-943148.14" font-family="Times,serif" font-size="14.00">* refScope</text>
<text text-anchor="start" x="462.47" y="-943137.64" font-family="Times,serif" font-size="14.00">* typeDSL</text>
<text text-anchor="start" x="462.47" y="-943127.14" font-family="Times,serif" font-size="14.00">* secondaryFilesDSL</text>
<text text-anchor="start" x="462.47" y="-943116.64" font-family="Times,serif" font-size="14.00">* subscope</text>
</g>
<!-- SpecializeDef -->
<g id="node7" class="node">
<title>SpecializeDef</title>
<polygon fill="none" stroke="black" points="766.72,-943221.67 630.72,-943221.67 630.72,-943174.67 766.72,-943174.67 766.72,-943221.67"/>
<text text-anchor="middle" x="698.72" y="-943204.37" font-family="Times,serif" font-size="14.00">SpecializeDef</text>
<text text-anchor="start" x="638.72" y="-943186.37" font-family="Times,serif" font-size="14.00">* specializeFrom</text>
<text text-anchor="start" x="638.72" y="-943175.87" font-family="Times,serif" font-size="14.00">* specializeTo</text>
</g>
<!-- NamedType -->
<g id="node8" class="node">
<title>NamedType</title>
<ellipse fill="none" stroke="black" cx="591.72" cy="-130.87" rx="59.04" ry="27.93"/>
<text text-anchor="middle" x="591.72" y="-133.32" font-family="Times,serif" font-size="14.00">NamedType</text>
<text text-anchor="start" x="557.97" y="-122.82" font-family="Times,serif" font-size="14.00">* name</text>
<text text-anchor="start" x="557.97" y="-112.32" font-family="Times,serif" font-size="14.00">* inVocab</text>
</g>
<!-- NamedType&#45;&gt;SaladRecordSchema -->
<g id="edge5" class="edge">
<title>NamedType&#45;&gt;SaladRecordSchema</title>
<path fill="none" stroke="black" d="M557.96,-107.77C546.83,-100.66 534.34,-92.85 522.72,-86 505.33,-75.74 486.09,-65.04 468.63,-55.56"/>
<polygon fill="black" stroke="black" points="470.6,-52.1 460.13,-50.43 467.27,-58.26 470.6,-52.1"/>
</g>
<!-- NamedType&#45;&gt;SaladEnumSchema -->
<g id="edge8" class="edge">
<title>NamedType&#45;&gt;SaladEnumSchema</title>
<path fill="none" stroke="black" d="M591.72,-102.58C591.72,-87.73 591.72,-69.38 591.72,-54.37"/>
<polygon fill="black" stroke="black" points="595.22,-54.65 591.72,-44.65 588.22,-54.65 595.22,-54.65"/>
</g>
<!-- Documentation -->
<g id="node14" class="node">
<title>Documentation</title>
<polygon fill="none" stroke="black" points="816.47,-43 702.97,-43 702.97,-7 816.47,-7 816.47,-43"/>
<text text-anchor="middle" x="759.72" y="-22.2" font-family="Times,serif" font-size="14.00">Documentation</text>
<text text-anchor="start" x="710.97" y="-11.7" font-family="Times,serif" font-size="14.00">* type</text>
</g>
<!-- NamedType&#45;&gt;Documentation -->
<g id="edge11" class="edge">
<title>NamedType&#45;&gt;Documentation</title>
<path fill="none" stroke="black" d="M626.02,-107.86C637.07,-100.82 649.38,-93.04 660.72,-86 680.64,-73.63 702.97,-60.08 721.37,-48.98"/>
<polygon fill="black" stroke="black" points="722.83,-51.58 729.6,-43.43 719.22,-45.59 722.83,-51.58"/>
</g>
<!-- SchemaDefinedType -->
<g id="node10" class="node">
<title>SchemaDefinedType</title>
<ellipse fill="none" stroke="black" cx="412.72" cy="-130.87" rx="101.47" ry="44.87"/>
<text text-anchor="middle" x="412.72" y="-145.3" font-family="Times,serif" font-size="14.00">SchemaDefinedType</text>
<text text-anchor="start" x="348.97" y="-134.8" font-family="Times,serif" font-size="14.00">* jsonldPredicate</text>
<text text-anchor="start" x="348.97" y="-100.34" font-family="Times,serif" font-size="14.00">* documentRoot</text>
</g>
<!-- DocType&#45;&gt;SchemaDefinedType -->
<g id="edge3" class="edge">
<title>DocType&#45;&gt;SchemaDefinedType</title>
<path fill="none" stroke="black" d="M412.72,-211.51C412.72,-203.75 412.72,-195.33 412.72,-186.96"/>
<polygon fill="black" stroke="black" points="416.22,-187.06 412.72,-177.06 409.22,-187.06 416.22,-187.06"/>
</g>
<!-- DocType&#45;&gt;Documentation -->
<g id="edge12" class="edge">
<title>DocType&#45;&gt;Documentation</title>
<path fill="none" stroke="black" d="M482.01,-242.58C575.37,-236.22 734.02,-219.17 769.72,-175.74 798.09,-141.23 783.98,-85.79 771.56,-52.92"/>
<polygon fill="black" stroke="black" points="774.6,-52.09 767.64,-44.1 768.09,-54.69 774.6,-52.09"/>
</g>
<!-- SchemaDefinedType&#45;&gt;SaladRecordSchema -->
<g id="edge7" class="edge">
<title>SchemaDefinedType&#45;&gt;SaladRecordSchema</title>
<path fill="none" stroke="black" d="M412.72,-85.52C412.72,-77.44 412.72,-69.12 412.72,-61.34"/>
<polygon fill="black" stroke="black" points="416.22,-61.45 412.72,-51.45 409.22,-61.45 416.22,-61.45"/>
</g>
<!-- SchemaDefinedType&#45;&gt;SaladEnumSchema -->
<g id="edge10" class="edge">
<title>SchemaDefinedType&#45;&gt;SaladEnumSchema</title>
<path fill="none" stroke="black" d="M473.57,-94.56C499.47,-79.53 528.94,-62.43 551.97,-49.07"/>
<polygon fill="black" stroke="black" points="553.53,-51.63 560.42,-43.58 550.01,-45.58 553.53,-51.63"/>
</g>
</g>
</svg>
