<?xml version="1.0" encoding="UTF-8" standalone="no"?>
<!DOCTYPE svg PUBLIC "-//W3C//DTD SVG 1.1//EN"
 "http://www.w3.org/Graphics/SVG/1.1/DTD/svg11.dtd">
<!-- Generated by graphviz version 8.0.5 (20230430.1635)
 -->
<!-- Pages: 1 -->
<svg width="799pt" height="5191370pt"
 viewBox="0.00 0.00 798.50 5191370.13" xmlns="http://www.w3.org/2000/svg" xmlns:xlink="http://www.w3.org/1999/xlink">
<g id="graph0" class="graph" transform="scale(1 1) rotate(0) translate(4 5191366.13)">
<polygon fill="white" stroke="none" points="-4,4 -4,-5191366.13 794.5,-5191366.13 794.5,4 -4,4"/>
<!-- Documented -->
<g id="node1" class="node">
<title>Documented</title>
<ellipse fill="none" stroke="black" cx="228.75" cy="-5191263.75" rx="64.35" ry="20.51"/>
<text text-anchor="middle" x="228.75" y="-5191260.95" font-family="Times,serif" font-size="14.00">Documented</text>
<text text-anchor="start" x="191.25" y="-5191250.45" font-family="Times,serif" font-size="14.00">* doc</text>
</g>
<!-- RecordField -->
<g id="node2" class="node">
<title>RecordField</title>
<polygon fill="none" stroke="black" points="210,-5191129.36 111.5,-5191129.36 111.5,-2595779.43 210,-2595779.43 210,-5191129.36"/>
<text text-anchor="middle" x="160.75" y="-5191112.06" font-family="Times,serif" font-size="14.00">RecordField</text>
<text text-anchor="start" x="119.5" y="-3893454.13" font-family="Times,serif" font-size="14.00">* name</text>
<text text-anchor="start" x="119.5" y="-3893443.63" font-family="Times,serif" font-size="14.00">* type</text>
</g>
<!-- Documented&#45;&gt;RecordField -->
<g id="edge1" class="edge">
<title>Documented&#45;&gt;RecordField</title>
<path fill="none" stroke="black" d="M228.75,-5191242.92C228.65,-5189266.87 220.81,-5039801.36 210.5,-4842965.12"/>
<polygon fill="black" stroke="black" points="214,-4842965.14 210.5,-4842955.14 207,-4842965.14 214,-4842965.14"/>
</g>
<!-- DocType -->
<g id="node9" class="node">
<title>DocType</title>
<ellipse fill="none" stroke="black" cx="386.75" cy="-3893454.4" rx="69.65" ry="40.66"/>
<text text-anchor="middle" x="386.75" y="-3893465.85" font-family="Times,serif" font-size="14.00">DocType</text>
<text text-anchor="start" x="345.5" y="-3893455.35" font-family="Times,serif" font-size="14.00">* docParent</text>
<text text-anchor="start" x="345.5" y="-3893437.35" font-family="Times,serif" font-size="14.00">* docChild</text>
<text text-anchor="start" x="345.5" y="-3893426.85" font-family="Times,serif" font-size="14.00">* docAfter</text>
</g>
<!-- Documented&#45;&gt;DocType -->
<g id="edge2" class="edge">
<title>Documented&#45;&gt;DocType</title>
<path fill="none" stroke="black" d="M228.75,-5191242.92C229.46,-5185428.87 385.61,-3902818.71 386.74,-3893506.35"/>
<polygon fill="black" stroke="black" points="390.24,-3893506.49 386.75,-3893496.49 383.24,-3893506.49 390.24,-3893506.49"/>
</g>
<!-- SaladRecordField -->
<g id="node11" class="node">
<title>SaladRecordField</title>
<polygon fill="none" stroke="black" points="143.5,-1297941.96 0,-1297941.96 0,-1297894.96 143.5,-1297894.96 143.5,-1297941.96"/>
<text text-anchor="middle" x="71.75" y="-1297924.66" font-family="Times,serif" font-size="14.00">SaladRecordField</text>
<text text-anchor="start" x="8" y="-1297914.16" font-family="Times,serif" font-size="14.00">* jsonldPredicate</text>
<text text-anchor="start" x="8" y="-1297896.16" font-family="Times,serif" font-size="14.00">* default</text>
</g>
<!-- RecordField&#45;&gt;SaladRecordField -->
<g id="edge4" class="edge">
<title>RecordField&#45;&gt;SaladRecordField</title>
<path fill="none" stroke="black" d="M116.25,-2595779.25C94.09,-1949556.46 71.93,-1303302.97 71.75,-1297952.91"/>
<polygon fill="black" stroke="black" points="75.25,-1297953.18 71.75,-1297943.18 68.25,-1297953.18 75.25,-1297953.18"/>
</g>
<!-- RecordSchema -->
<g id="node3" class="node">
<title>RecordSchema</title>
<polygon fill="none" stroke="black" points="267.75,-2595743.43 161.75,-2595743.43 161.75,-93.5 267.75,-93.5 267.75,-2595743.43"/>
<text text-anchor="middle" x="214.75" y="-2595726.13" font-family="Times,serif" font-size="14.00">RecordSchema</text>
<text text-anchor="start" x="169.75" y="-1297918.32" font-family="Times,serif" font-size="14.00">* fields</text>
<text text-anchor="start" x="169.75" y="-84.2" font-family="Times,serif" font-size="14.00">* type</text>
</g>
<!-- SaladRecordSchema -->
<g id="node12" class="node">
<title>SaladRecordSchema</title>
<polygon fill="none" stroke="black" points="458.5,-57.5 315,-57.5 315,0 458.5,0 458.5,-57.5"/>
<text text-anchor="middle" x="386.75" y="-40.2" font-family="Times,serif" font-size="14.00">SaladRecordSchema</text>
<text text-anchor="start" x="323" y="-29.7" font-family="Times,serif" font-size="14.00">* abstract</text>
<text text-anchor="start" x="323" y="-19.2" font-family="Times,serif" font-size="14.00">* extends</text>
<text text-anchor="start" x="323" y="-8.7" font-family="Times,serif" font-size="14.00">* specialize</text>
</g>
<!-- RecordSchema&#45;&gt;SaladRecordSchema -->
<g id="edge6" class="edge">
<title>RecordSchema&#45;&gt;SaladRecordSchema</title>
<path fill="none" stroke="black" d="M268.25,-178021.28C273.4,-70285.31 276.75,-93.5 276.75,-93.5 283.78,-81.31 294.12,-71.24 305.7,-62.98"/>
<polygon fill="black" stroke="black" points="307.33,-65.44 313.76,-57.02 303.49,-59.59 307.33,-65.44"/>
</g>
<!-- EnumSchema -->
<g id="node4" class="node">
<title>EnumSchema</title>
<polygon fill="none" stroke="black" points="734.25,-1297941.96 643.25,-1297941.96 643.25,-1297894.96 734.25,-1297894.96 734.25,-1297941.96"/>
<text text-anchor="middle" x="688.75" y="-1297924.66" font-family="Times,serif" font-size="14.00">EnumSchema</text>
<text text-anchor="start" x="651.25" y="-1297914.16" font-family="Times,serif" font-size="14.00">* symbols</text>
<text text-anchor="start" x="651.25" y="-1297896.16" font-family="Times,serif" font-size="14.00">* type</text>
</g>
<!-- SaladEnumSchema -->
<g id="node13" class="node">
<title>SaladEnumSchema</title>
<polygon fill="none" stroke="black" points="630,-55.19 501.5,-55.19 501.5,-2.31 630,-2.31 630,-55.19"/>
<text text-anchor="middle" x="565.75" y="-37.89" font-family="Times,serif" font-size="14.00">SaladEnumSchema</text>
<text text-anchor="start" x="509.5" y="-3.51" font-family="Times,serif" font-size="14.00">* extends</text>
</g>
<!-- EnumSchema&#45;&gt;SaladEnumSchema -->
<g id="edge9" class="edge">
<title>EnumSchema&#45;&gt;SaladEnumSchema</title>
<path fill="none" stroke="black" d="M688.75,-1297894.58C688.48,-1291627.68 633.75,-93.5 633.75,-93.5 628.82,-82.13 620.76,-71.86 611.88,-63.05"/>
<polygon fill="black" stroke="black" points="614.64,-60.91 604.92,-56.69 609.89,-66.04 614.64,-60.91"/>
</g>
<!-- ArraySchema -->
<g id="node5" class="node">
<title>ArraySchema</title>
<polygon fill="none" stroke="black" points="410,-5191287.25 311.5,-5191287.25 311.5,-5191240.25 410,-5191240.25 410,-5191287.25"/>
<text text-anchor="middle" x="360.75" y="-5191269.95" font-family="Times,serif" font-size="14.00">ArraySchema</text>
<text text-anchor="start" x="319.5" y="-5191259.45" font-family="Times,serif" font-size="14.00">* items</text>
<text text-anchor="start" x="319.5" y="-5191248.95" font-family="Times,serif" font-size="14.00">* type</text>
</g>
<!-- JsonldPredicate -->
<g id="node6" class="node">
<title>JsonldPredicate</title>
<polygon fill="none" stroke="black" points="587,-5191362.13 428.5,-5191362.13 428.5,-5191165.36 587,-5191165.36 587,-5191362.13"/>
<text text-anchor="middle" x="507.75" y="-5191344.83" font-family="Times,serif" font-size="14.00">JsonldPredicate</text>
<text text-anchor="start" x="436.5" y="-5191334.33" font-family="Times,serif" font-size="14.00">* _id</text>
<text text-anchor="start" x="436.5" y="-5191299.95" font-family="Times,serif" font-size="14.00">* _type</text>
<text text-anchor="start" x="436.5" y="-5191281.95" font-family="Times,serif" font-size="14.00">* _container</text>
<text text-anchor="start" x="436.5" y="-5191271.45" font-family="Times,serif" font-size="14.00">* identity</text>
<text text-anchor="start" x="436.5" y="-5191253.45" font-family="Times,serif" font-size="14.00">* noLinkCheck</text>
<text text-anchor="start" x="436.5" y="-5191242.95" font-family="Times,serif" font-size="14.00">* mapSubject</text>
<text text-anchor="start" x="436.5" y="-5191232.45" font-family="Times,serif" font-size="14.00">* mapPredicate</text>
<text text-anchor="start" x="436.5" y="-5191198.06" font-family="Times,serif" font-size="14.00">* refScope</text>
<text text-anchor="start" x="436.5" y="-5191187.56" font-family="Times,serif" font-size="14.00">* typeDSL</text>
<text text-anchor="start" x="436.5" y="-5191177.06" font-family="Times,serif" font-size="14.00">* secondaryFilesDSL</text>
<text text-anchor="start" x="436.5" y="-5191166.56" font-family="Times,serif" font-size="14.00">* subscope</text>
</g>
<!-- SpecializeDef -->
<g id="node7" class="node">
<title>SpecializeDef</title>
<polygon fill="none" stroke="black" points="740.75,-5191299.19 604.75,-5191299.19 604.75,-5191228.31 740.75,-5191228.31 740.75,-5191299.19"/>
<text text-anchor="middle" x="672.75" y="-5191281.89" font-family="Times,serif" font-size="14.00">SpecializeDef</text>
<text text-anchor="start" x="612.75" y="-5191247.51" font-family="Times,serif" font-size="14.00">* specializeFrom</text>
<text text-anchor="start" x="612.75" y="-5191237.01" font-family="Times,serif" font-size="14.00">* specializeTo</text>
</g>
<!-- NamedType -->
<g id="node8" class="node">
<title>NamedType</title>
<ellipse fill="none" stroke="black" cx="565.75" cy="-1297918.46" rx="59.04" ry="27.93"/>
<text text-anchor="middle" x="565.75" y="-1297920.91" font-family="Times,serif" font-size="14.00">NamedType</text>
<text text-anchor="start" x="532" y="-1297910.41" font-family="Times,serif" font-size="14.00">* name</text>
<text text-anchor="start" x="532" y="-1297899.91" font-family="Times,serif" font-size="14.00">* inVocab</text>
</g>
<!-- NamedType&#45;&gt;SaladRecordSchema -->
<g id="edge5" class="edge">
<title>NamedType&#45;&gt;SaladRecordSchema</title>
<path fill="none" stroke="black" d="M565.75,-1297890.07C565.38,-1291035.09 496.75,-93.5 496.75,-93.5 489.72,-81.31 479.38,-71.24 467.8,-62.98"/>
<polygon fill="black" stroke="black" points="470.01,-59.59 459.74,-57.02 466.17,-65.44 470.01,-59.59"/>
</g>
<!-- NamedType&#45;&gt;SaladEnumSchema -->
<g id="edge8" class="edge">
<title>NamedType&#45;&gt;SaladEnumSchema</title>
<path fill="none" stroke="black" d="M565.75,-1297890.07C565.75,-1291055.88 565.75,-7972.67 565.75,-66.44"/>
<polygon fill="black" stroke="black" points="569.25,-66.46 565.75,-56.46 562.25,-66.46 569.25,-66.46"/>
</g>
<!-- Documentation -->
<g id="node14" class="node">
<title>Documentation</title>
<polygon fill="none" stroke="black" points="790.5,-46.75 677,-46.75 677,-10.75 790.5,-10.75 790.5,-46.75"/>
<text text-anchor="middle" x="733.75" y="-25.95" font-family="Times,serif" font-size="14.00">Documentation</text>
<text text-anchor="start" x="685" y="-15.45" font-family="Times,serif" font-size="14.00">* type</text>
</g>
<!-- NamedType&#45;&gt;Documentation -->
<g id="edge11" class="edge">
<title>NamedType&#45;&gt;Documentation</title>
<path fill="none" stroke="black" d="M565.75,-1297890.07C566.12,-1291035.09 634.75,-93.5 634.75,-93.5 644.41,-75.78 661.35,-62.25 678.5,-52.31"/>
<polygon fill="black" stroke="black" points="679.89,-55 687.02,-47.15 676.56,-48.84 679.89,-55"/>
</g>
<!-- SchemaDefinedType -->
<g id="node10" class="node">
<title>SchemaDefinedType</title>
<ellipse fill="none" stroke="black" cx="386.75" cy="-1297918.46" rx="101.47" ry="27.93"/>
<text text-anchor="middle" x="386.75" y="-1297920.91" font-family="Times,serif" font-size="14.00">SchemaDefinedType</text>
<text text-anchor="start" x="323" y="-1297910.41" font-family="Times,serif" font-size="14.00">* jsonldPredicate</text>
<text text-anchor="start" x="323" y="-1297899.91" font-family="Times,serif" font-size="14.00">* documentRoot</text>
</g>
<!-- DocType&#45;&gt;SchemaDefinedType -->
<g id="edge3" class="edge">
<title>DocType&#45;&gt;SchemaDefinedType</title>
<path fill="none" stroke="black" d="M386.75,-3893413.48C386.75,-3881730.11 386.75,-1309376.26 386.75,-1297957.59"/>
<polygon fill="black" stroke="black" points="390.25,-1297957.73 386.75,-1297947.73 383.25,-1297957.73 390.25,-1297957.73"/>
</g>
<!-- DocType&#45;&gt;Documentation -->
<g id="edge12" class="edge">
<title>DocType&#45;&gt;Documentation</title>
<path fill="none" stroke="black" d="M386.77,-3893413.42C389.14,-3887251.6 664.76,-3170021.65 743.75,-2595743.43 743.75,-2595743.43 743.75,-93.5 743.75,-93.5 742.83,-81.73 740.98,-68.85 739.11,-57.76"/>
<polygon fill="black" stroke="black" points="742.39,-57.22 737.2,-47.98 735.5,-58.44 742.39,-57.22"/>
</g>
<!-- SchemaDefinedType&#45;&gt;SaladRecordSchema -->
<g id="edge7" class="edge">
<title>SchemaDefinedType&#45;&gt;SaladRecordSchema</title>
<path fill="none" stroke="black" d="M386.75,-1297890.07C386.75,-1291056.5 386.75,-8208.38 386.75,-68.65"/>
<polygon fill="black" stroke="black" points="390.25,-68.95 386.75,-58.95 383.25,-68.95 390.25,-68.95"/>
</g>
<!-- SchemaDefinedType&#45;&gt;SaladEnumSchema -->
<g id="edge10" class="edge">
<title>SchemaDefinedType&#45;&gt;SaladEnumSchema</title>
<path fill="none" stroke="black" d="M386.75,-1297890.07C387.34,-1291035.09 497.75,-93.5 497.75,-93.5 502.68,-82.13 510.74,-71.86 519.62,-63.05"/>
<polygon fill="black" stroke="black" points="521.61,-66.05 526.58,-56.69 516.86,-60.91 521.61,-66.05"/>
</g>
</g>
</svg>
