<svg xmlns="http://www.w3.org/2000/svg" xmlns:xlink="http://www.w3.org/1999/xlink" width="1068" height="724" viewBox="0 0 801 543.12"><g id="graph0" class="graph" transform="scale(1 1) rotate(0) translate(4 539.1198)"><title>%3</title><polygon fill="#fff" stroke="transparent" points="-4 4 -4 -539.12 797 -539.12 797 4 -4 4"/><g id="node1" class="node"><title>Documented</title><ellipse cx="231" cy="-441.12" fill="none" stroke="#000" rx="65.108" ry="26.741"/><text x="231" y="-444.92" fill="#000" font-family="Times,serif" font-size="14" text-anchor="middle">Documented</text><text x="193" y="-429.92" fill="#000" font-family="Times,serif" font-size="14" text-anchor="start">* doc</text></g><g id="node2" class="node"><title>RecordField</title><polygon fill="none" stroke="#000" points="211.5 -289.537 112.5 -289.537 112.5 -236.537 211.5 -236.537 211.5 -289.537"/><text x="162" y="-274.337" fill="#000" font-family="Times,serif" font-size="14" text-anchor="middle">RecordField</text><text x="120.5" y="-259.337" fill="#000" font-family="Times,serif" font-size="14" text-anchor="start">* name</text><text x="120.5" y="-244.337" fill="#000" font-family="Times,serif" font-size="14" text-anchor="start">* type</text></g><g id="edge1" class="edge"><title>Documented-&gt;RecordField</title><path fill="none" stroke="#000" d="M220.67,-414.459C208.7966,-383.8146 189.2475,-333.3601 176.01,-299.1951"/><polygon fill="#000" stroke="#000" points="179.164 -297.649 172.288 -289.589 172.637 -300.178 179.164 -297.649"/></g><g id="node9" class="node"><title>DocType</title><ellipse cx="389" cy="-263.037" fill="none" stroke="#000" rx="70.007" ry="48.167"/><text x="389" y="-281.837" fill="#000" font-family="Times,serif" font-size="14" text-anchor="middle">DocType</text><text x="347.5" y="-266.837" fill="#000" font-family="Times,serif" font-size="14" text-anchor="start">* docParent</text><text x="347.5" y="-251.837" fill="#000" font-family="Times,serif" font-size="14" text-anchor="start">* docChild</text><text x="347.5" y="-236.837" fill="#000" font-family="Times,serif" font-size="14" text-anchor="start">* docAfter</text></g><g id="edge2" class="edge"><title>Documented-&gt;DocType</title><path fill="none" stroke="#000" d="M250.0017,-415.3276C264.5048,-396.0603 285.2844,-369.3328 305,-347.1198 316.1162,-334.5956 328.6263,-321.5618 340.5293,-309.6002"/><polygon fill="#000" stroke="#000" points="343.235 -311.845 347.844 -302.305 338.292 -306.888 343.235 -311.845"/></g><g id="node11" class="node"><title>SaladRecordField</title><polygon fill="none" stroke="#000" points="144 -167.977 0 -167.977 0 -114.977 144 -114.977 144 -167.977"/><text x="72" y="-152.777" fill="#000" font-family="Times,serif" font-size="14" text-anchor="middle">SaladRecordField</text><text x="8" y="-137.777" fill="#000" font-family="Times,serif" font-size="14" text-anchor="start">* jsonldPredicate</text><text x="8" y="-122.777" fill="#000" font-family="Times,serif" font-size="14" text-anchor="start">* default</text></g><g id="edge4" class="edge"><title>RecordField-&gt;SaladRecordField</title><path fill="none" stroke="#000" d="M142.2491,-236.3597C129.1777,-218.7046 111.9037,-195.3733 97.7563,-176.2649"/><polygon fill="#000" stroke="#000" points="100.468 -174.046 91.705 -168.091 94.842 -178.211 100.468 -174.046"/></g><g id="node3" class="node"><title>RecordSchema</title><polygon fill="none" stroke="#000" points="269.5 -167.977 162.5 -167.977 162.5 -114.977 269.5 -114.977 269.5 -167.977"/><text x="216" y="-152.777" fill="#000" font-family="Times,serif" font-size="14" text-anchor="middle">RecordSchema</text><text x="170.5" y="-137.777" fill="#000" font-family="Times,serif" font-size="14" text-anchor="start">* fields</text><text x="170.5" y="-122.777" fill="#000" font-family="Times,serif" font-size="14" text-anchor="start">* type</text></g><g id="node12" class="node"><title>SaladRecordSchema</title><polygon fill="none" stroke="#000" points="461 -68 317 -68 317 0 461 0 461 -68"/><text x="389" y="-52.8" fill="#000" font-family="Times,serif" font-size="14" text-anchor="middle">SaladRecordSchema</text><text x="325" y="-37.8" fill="#000" font-family="Times,serif" font-size="14" text-anchor="start">* abstract</text><text x="325" y="-22.8" fill="#000" font-family="Times,serif" font-size="14" text-anchor="start">* extends</text><text x="325" y="-7.8" fill="#000" font-family="Times,serif" font-size="14" text-anchor="start">* specialize</text></g><g id="edge6" class="edge"><title>RecordSchema-&gt;SaladRecordSchema</title><path fill="none" stroke="#000" d="M258.7641,-114.9094C278.8157,-102.4522 303.1225,-87.3516 325.2816,-73.5852"/><polygon fill="#000" stroke="#000" points="327.33 -76.433 333.978 -68.183 323.636 -70.487 327.33 -76.433"/></g><g id="node4" class="node"><title>EnumSchema</title><polygon fill="none" stroke="#000" points="737 -167.977 645 -167.977 645 -114.977 737 -114.977 737 -167.977"/><text x="691" y="-152.777" fill="#000" font-family="Times,serif" font-size="14" text-anchor="middle">EnumSchema</text><text x="653" y="-137.777" fill="#000" font-family="Times,serif" font-size="14" text-anchor="start">* symbols</text><text x="653" y="-122.777" fill="#000" font-family="Times,serif" font-size="14" text-anchor="start">* type</text></g><g id="node13" class="node"><title>SaladEnumSchema</title><polygon fill="none" stroke="#000" points="632.5 -53 503.5 -53 503.5 -15 632.5 -15 632.5 -53"/><text x="568" y="-37.8" fill="#000" font-family="Times,serif" font-size="14" text-anchor="middle">SaladEnumSchema</text><text x="511.5" y="-22.8" fill="#000" font-family="Times,serif" font-size="14" text-anchor="start">* extends</text></g><g id="edge9" class="edge"><title>EnumSchema-&gt;SaladEnumSchema</title><path fill="none" stroke="#000" d="M660.5955,-114.9094C641.3376,-98.082 616.5594,-76.4309 597.4816,-59.7608"/><polygon fill="#000" stroke="#000" points="599.783 -57.124 589.95 -53.18 595.177 -62.395 599.783 -57.124"/></g><g id="node5" class="node"><title>ArraySchema</title><polygon fill="none" stroke="#000" points="413.5 -467.62 314.5 -467.62 314.5 -414.62 413.5 -414.62 413.5 -467.62"/><text x="364" y="-452.42" fill="#000" font-family="Times,serif" font-size="14" text-anchor="middle">ArraySchema</text><text x="322.5" y="-437.42" fill="#000" font-family="Times,serif" font-size="14" text-anchor="start">* items</text><text x="322.5" y="-422.42" fill="#000" font-family="Times,serif" font-size="14" text-anchor="start">* type</text></g><g id="node6" class="node"><title>JsonldPredicate</title><polygon fill="none" stroke="#000" points="590.5 -535.12 431.5 -535.12 431.5 -347.12 590.5 -347.12 590.5 -535.12"/><text x="511" y="-519.92" fill="#000" font-family="Times,serif" font-size="14" text-anchor="middle">JsonldPredicate</text><text x="439.5" y="-504.92" fill="#000" font-family="Times,serif" font-size="14" text-anchor="start">* _id</text><text x="439.5" y="-489.92" fill="#000" font-family="Times,serif" font-size="14" text-anchor="start">* _type</text><text x="439.5" y="-474.92" fill="#000" font-family="Times,serif" font-size="14" text-anchor="start">* _container</text><text x="439.5" y="-459.92" fill="#000" font-family="Times,serif" font-size="14" text-anchor="start">* identity</text><text x="439.5" y="-444.92" fill="#000" font-family="Times,serif" font-size="14" text-anchor="start">* noLinkCheck</text><text x="439.5" y="-429.92" fill="#000" font-family="Times,serif" font-size="14" text-anchor="start">* mapSubject</text><text x="439.5" y="-414.92" fill="#000" font-family="Times,serif" font-size="14" text-anchor="start">* mapPredicate</text><text x="439.5" y="-399.92" fill="#000" font-family="Times,serif" font-size="14" text-anchor="start">* refScope</text><text x="439.5" y="-384.92" fill="#000" font-family="Times,serif" font-size="14" text-anchor="start">* typeDSL</text><text x="439.5" y="-369.92" fill="#000" font-family="Times,serif" font-size="14" text-anchor="start">* secondaryFilesDSL</text><text x="439.5" y="-354.92" fill="#000" font-family="Times,serif" font-size="14" text-anchor="start">* subscope</text></g><g id="node7" class="node"><title>SpecializeDef</title><polygon fill="none" stroke="#000" points="745.5 -467.62 608.5 -467.62 608.5 -414.62 745.5 -414.62 745.5 -467.62"/><text x="677" y="-452.42" fill="#000" font-family="Times,serif" font-size="14" text-anchor="middle">SpecializeDef</text><text x="616.5" y="-437.42" fill="#000" font-family="Times,serif" font-size="14" text-anchor="start">* specializeFrom</text><text x="616.5" y="-422.42" fill="#000" font-family="Times,serif" font-size="14" text-anchor="start">* specializeTo</text></g><g id="node8" class="node"><title>NamedType</title><ellipse cx="568" cy="-141.477" fill="none" stroke="#000" rx="59.294" ry="37.453"/><text x="568" y="-152.777" fill="#000" font-family="Times,serif" font-size="14" text-anchor="middle">NamedType</text><text x="534" y="-137.777" fill="#000" font-family="Times,serif" font-size="14" text-anchor="start">* name</text><text x="534" y="-122.777" fill="#000" font-family="Times,serif" font-size="14" text-anchor="start">* inVocab</text></g><g id="edge5" class="edge"><title>NamedType-&gt;SaladRecordSchema</title><path fill="none" stroke="#000" d="M524.6691,-115.4596C503.6591,-102.8445 477.9747,-87.4229 454.6283,-73.4051"/><polygon fill="#000" stroke="#000" points="456.185 -70.257 445.81 -68.11 452.581 -76.258 456.185 -70.257"/></g><g id="edge8" class="edge"><title>NamedType-&gt;SaladEnumSchema</title><path fill="none" stroke="#000" d="M568,-103.8865C568,-90.59 568,-75.8393 568,-63.3296"/><polygon fill="#000" stroke="#000" points="571.5 -63.006 568 -53.006 564.5 -63.006 571.5 -63.006"/></g><g id="node14" class="node"><title>Documentation</title><polygon fill="none" stroke="#000" points="793 -53 679 -53 679 -15 793 -15 793 -53"/><text x="736" y="-37.8" fill="#000" font-family="Times,serif" font-size="14" text-anchor="middle">Documentation</text><text x="687" y="-22.8" fill="#000" font-family="Times,serif" font-size="14" text-anchor="start">* type</text></g><g id="edge11" class="edge"><title>NamedType-&gt;Documentation</title><path fill="none" stroke="#000" d="M609.9601,-114.633C636.854,-97.4279 671.4941,-75.2671 697.6515,-58.5331"/><polygon fill="#000" stroke="#000" points="699.636 -61.419 706.174 -53.081 695.864 -55.522 699.636 -61.419"/></g><g id="node10" class="node"><title>SchemaDefinedType</title><ellipse cx="389" cy="-141.477" fill="none" stroke="#000" rx="101.647" ry="37.453"/><text x="389" y="-152.777" fill="#000" font-family="Times,serif" font-size="14" text-anchor="middle">SchemaDefinedType</text><text x="325" y="-137.777" fill="#000" font-family="Times,serif" font-size="14" text-anchor="start">* jsonldPredicate</text><text x="325" y="-122.777" fill="#000" font-family="Times,serif" font-size="14" text-anchor="start">* documentRoot</text></g><g id="edge3" class="edge"><title>DocType-&gt;SchemaDefinedType</title><path fill="none" stroke="#000" d="M389,-214.6436C389,-206.3571 389,-197.7498 389,-189.4737"/><polygon fill="#000" stroke="#000" points="392.5 -189.217 389 -179.217 385.5 -189.217 392.5 -189.217"/></g><g id="edge12" class="edge"><title>DocType-&gt;Documentation</title><path fill="none" stroke="#000" d="M458.432,-256.7494C551.967,-246.678 710.8197,-223.3822 746,-178.9533 771.9996,-146.1187 760.0683,-94.9028 748.4709,-62.9596"/><polygon fill="#000" stroke="#000" points="751.619 -61.393 744.766 -53.313 745.084 -63.903 751.619 -61.393"/></g><g id="edge7" class="edge"><title>SchemaDefinedType-&gt;SaladRecordSchema</title><path fill="none" stroke="#000" d="M389,-103.8865C389,-95.6237 389,-86.7994 389,-78.3002"/><polygon fill="#000" stroke="#000" points="392.5 -78.154 389 -68.154 385.5 -78.154 392.5 -78.154"/></g><g id="edge10" class="edge"><title>SchemaDefinedType-&gt;SaladEnumSchema</title><path fill="none" stroke="#000" d="M442.2213,-109.5211C469.6006,-93.0818 502.4323,-73.3687 527.686,-58.2057"/><polygon fill="#000" stroke="#000" points="529.509 -61.193 536.281 -53.045 525.906 -55.192 529.509 -61.193"/></g></g></svg>