<?xml version="1.0" encoding="UTF-8" standalone="no"?>
<!DOCTYPE svg PUBLIC "-//W3C//DTD SVG 1.1//EN"
 "http://www.w3.org/Graphics/SVG/1.1/DTD/svg11.dtd">
<!-- Generated by graphviz version 2.38.0 (20140413.2041)
 -->
<!-- Title: %3 Pages: 1 -->
<svg width="801pt" height="543pt"
 viewBox="0.00 0.00 801.00 543.12" xmlns="http://www.w3.org/2000/svg" xmlns:xlink="http://www.w3.org/1999/xlink">
<g id="graph0" class="graph" transform="scale(1 1) rotate(0) translate(4 539.12)">
<title>%3</title>
<polygon fill="white" stroke="none" points="-4,4 -4,-539.12 797,-539.12 797,4 -4,4"/>
<!-- Documented -->
<g id="node1" class="node"><title>Documented</title>
<ellipse fill="none" stroke="black" cx="275" cy="-441.12" rx="65.1077" ry="26.7407"/>
<text text-anchor="middle" x="275" y="-444.92" font-family="Times,serif" font-size="14.00">Documented</text>
<text text-anchor="start" x="237" y="-429.92" font-family="Times,serif" font-size="14.00">* doc</text>
</g>
<!-- RecordField -->
<g id="node2" class="node"><title>RecordField</title>
<polygon fill="none" stroke="black" points="211.5,-289.537 112.5,-289.537 112.5,-236.537 211.5,-236.537 211.5,-289.537"/>
<text text-anchor="middle" x="162" y="-274.337" font-family="Times,serif" font-size="14.00">RecordField</text>
<text text-anchor="start" x="120.5" y="-259.337" font-family="Times,serif" font-size="14.00">* name</text>
<text text-anchor="start" x="120.5" y="-244.337" font-family="Times,serif" font-size="14.00">* type</text>
</g>
<!-- Documented&#45;&gt;RecordField -->
<g id="edge1" class="edge"><title>Documented&#45;&gt;RecordField</title>
<path fill="none" stroke="black" d="M258.81,-414.891C239.203,-384.338 206.082,-332.727 184.128,-298.518"/>
<polygon fill="black" stroke="black" points="186.874,-296.317 178.528,-289.791 180.983,-300.097 186.874,-296.317"/>
</g>
<!-- DocType -->
<g id="node9" class="node"><title>DocType</title>
<ellipse fill="none" stroke="black" cx="389" cy="-263.037" rx="70.0071" ry="48.1667"/>
<text text-anchor="middle" x="389" y="-281.837" font-family="Times,serif" font-size="14.00">DocType</text>
<text text-anchor="start" x="347.5" y="-266.837" font-family="Times,serif" font-size="14.00">* docParent</text>
<text text-anchor="start" x="347.5" y="-251.837" font-family="Times,serif" font-size="14.00">* docChild</text>
<text text-anchor="start" x="347.5" y="-236.837" font-family="Times,serif" font-size="14.00">* docAfter</text>
</g>
<!-- Documented&#45;&gt;DocType -->
<g id="edge2" class="edge"><title>Documented&#45;&gt;DocType</title>
<path fill="none" stroke="black" d="M291.333,-414.891C308.006,-389.14 334.363,-348.428 355.497,-315.785"/>
<polygon fill="black" stroke="black" points="358.53,-317.54 361.027,-307.243 352.654,-313.736 358.53,-317.54"/>
</g>
<!-- SaladRecordField -->
<g id="node11" class="node"><title>SaladRecordField</title>
<polygon fill="none" stroke="black" points="144,-167.977 0,-167.977 0,-114.977 144,-114.977 144,-167.977"/>
<text text-anchor="middle" x="72" y="-152.777" font-family="Times,serif" font-size="14.00">SaladRecordField</text>
<text text-anchor="start" x="8" y="-137.777" font-family="Times,serif" font-size="14.00">* jsonldPredicate</text>
<text text-anchor="start" x="8" y="-122.777" font-family="Times,serif" font-size="14.00">* default</text>
</g>
<!-- RecordField&#45;&gt;SaladRecordField -->
<g id="edge4" class="edge"><title>RecordField&#45;&gt;SaladRecordField</title>
<path fill="none" stroke="black" d="M142.693,-236.388C129.465,-218.816 111.783,-195.326 97.4124,-176.236"/>
<polygon fill="black" stroke="black" points="100.086,-173.967 91.2753,-168.083 94.4932,-178.177 100.086,-173.967"/>
</g>
<!-- RecordSchema -->
<g id="node3" class="node"><title>RecordSchema</title>
<polygon fill="none" stroke="black" points="269.5,-167.977 162.5,-167.977 162.5,-114.977 269.5,-114.977 269.5,-167.977"/>
<text text-anchor="middle" x="216" y="-152.777" font-family="Times,serif" font-size="14.00">RecordSchema</text>
<text text-anchor="start" x="170.5" y="-137.777" font-family="Times,serif" font-size="14.00">* fields</text>
<text text-anchor="start" x="170.5" y="-122.777" font-family="Times,serif" font-size="14.00">* type</text>
</g>
<!-- SaladRecordSchema -->
<g id="node12" class="node"><title>SaladRecordSchema</title>
<polygon fill="none" stroke="black" points="461,-68 317,-68 317,-0 461,-0 461,-68"/>
<text text-anchor="middle" x="389" y="-52.8" font-family="Times,serif" font-size="14.00">SaladRecordSchema</text>
<text text-anchor="start" x="325" y="-37.8" font-family="Times,serif" font-size="14.00">* abstract</text>
<text text-anchor="start" x="325" y="-22.8" font-family="Times,serif" font-size="14.00">* extends</text>
<text text-anchor="start" x="325" y="-7.8" font-family="Times,serif" font-size="14.00">* specialize</text>
</g>
<!-- RecordSchema&#45;&gt;SaladRecordSchema -->
<g id="edge6" class="edge"><title>RecordSchema&#45;&gt;SaladRecordSchema</title>
<path fill="none" stroke="black" d="M257.878,-114.944C278.362,-102.455 303.442,-87.1642 326.162,-73.3117"/>
<polygon fill="black" stroke="black" points="328.024,-76.2759 334.74,-68.0818 324.38,-70.2992 328.024,-76.2759"/>
</g>
<!-- EnumSchema -->
<g id="node4" class="node"><title>EnumSchema</title>
<polygon fill="none" stroke="black" points="737,-167.977 645,-167.977 645,-114.977 737,-114.977 737,-167.977"/>
<text text-anchor="middle" x="691" y="-152.777" font-family="Times,serif" font-size="14.00">EnumSchema</text>
<text text-anchor="start" x="653" y="-137.777" font-family="Times,serif" font-size="14.00">* symbols</text>
<text text-anchor="start" x="653" y="-122.777" font-family="Times,serif" font-size="14.00">* type</text>
</g>
<!-- SaladEnumSchema -->
<g id="node13" class="node"><title>SaladEnumSchema</title>
<polygon fill="none" stroke="black" points="632.5,-53 503.5,-53 503.5,-15 632.5,-15 632.5,-53"/>
<text text-anchor="middle" x="568" y="-37.8" font-family="Times,serif" font-size="14.00">SaladEnumSchema</text>
<text text-anchor="start" x="511.5" y="-22.8" font-family="Times,serif" font-size="14.00">* extends</text>
</g>
<!-- EnumSchema&#45;&gt;SaladEnumSchema -->
<g id="edge9" class="edge"><title>EnumSchema&#45;&gt;SaladEnumSchema</title>
<path fill="none" stroke="black" d="M661.225,-114.944C641.604,-98.1177 616.049,-76.2039 596.659,-59.5758"/>
<polygon fill="black" stroke="black" points="598.896,-56.8837 589.027,-53.0309 594.339,-62.1975 598.896,-56.8837"/>
</g>
<!-- ArraySchema -->
<g id="node5" class="node"><title>ArraySchema</title>
<polygon fill="none" stroke="black" points="457.5,-467.62 358.5,-467.62 358.5,-414.62 457.5,-414.62 457.5,-467.62"/>
<text text-anchor="middle" x="408" y="-452.42" font-family="Times,serif" font-size="14.00">ArraySchema</text>
<text text-anchor="start" x="366.5" y="-437.42" font-family="Times,serif" font-size="14.00">* items</text>
<text text-anchor="start" x="366.5" y="-422.42" font-family="Times,serif" font-size="14.00">* type</text>
</g>
<!-- JsonldPredicate -->
<g id="node6" class="node"><title>JsonldPredicate</title>
<polygon fill="none" stroke="black" points="634.5,-535.12 475.5,-535.12 475.5,-347.12 634.5,-347.12 634.5,-535.12"/>
<text text-anchor="middle" x="555" y="-519.92" font-family="Times,serif" font-size="14.00">JsonldPredicate</text>
<text text-anchor="start" x="483.5" y="-504.92" font-family="Times,serif" font-size="14.00">* _id</text>
<text text-anchor="start" x="483.5" y="-489.92" font-family="Times,serif" font-size="14.00">* _type</text>
<text text-anchor="start" x="483.5" y="-474.92" font-family="Times,serif" font-size="14.00">* _container</text>
<text text-anchor="start" x="483.5" y="-459.92" font-family="Times,serif" font-size="14.00">* identity</text>
<text text-anchor="start" x="483.5" y="-444.92" font-family="Times,serif" font-size="14.00">* noLinkCheck</text>
<text text-anchor="start" x="483.5" y="-429.92" font-family="Times,serif" font-size="14.00">* mapSubject</text>
<text text-anchor="start" x="483.5" y="-414.92" font-family="Times,serif" font-size="14.00">* mapPredicate</text>
<text text-anchor="start" x="483.5" y="-399.92" font-family="Times,serif" font-size="14.00">* refScope</text>
<text text-anchor="start" x="483.5" y="-384.92" font-family="Times,serif" font-size="14.00">* typeDSL</text>
<text text-anchor="start" x="483.5" y="-369.92" font-family="Times,serif" font-size="14.00">* secondaryFilesDSL</text>
<text text-anchor="start" x="483.5" y="-354.92" font-family="Times,serif" font-size="14.00">* subscope</text>
</g>
<!-- SpecializeDef -->
<g id="node7" class="node"><title>SpecializeDef</title>
<polygon fill="none" stroke="black" points="789.5,-467.62 652.5,-467.62 652.5,-414.62 789.5,-414.62 789.5,-467.62"/>
<text text-anchor="middle" x="721" y="-452.42" font-family="Times,serif" font-size="14.00">SpecializeDef</text>
<text text-anchor="start" x="660.5" y="-437.42" font-family="Times,serif" font-size="14.00">* specializeFrom</text>
<text text-anchor="start" x="660.5" y="-422.42" font-family="Times,serif" font-size="14.00">* specializeTo</text>
</g>
<!-- NamedType -->
<g id="node8" class="node"><title>NamedType</title>
<ellipse fill="none" stroke="black" cx="568" cy="-141.477" rx="59.2941" ry="37.4533"/>
<text text-anchor="middle" x="568" y="-152.777" font-family="Times,serif" font-size="14.00">NamedType</text>
<text text-anchor="start" x="534" y="-137.777" font-family="Times,serif" font-size="14.00">* name</text>
<text text-anchor="start" x="534" y="-122.777" font-family="Times,serif" font-size="14.00">* inVocab</text>
</g>
<!-- NamedType&#45;&gt;SaladRecordSchema -->
<g id="edge5" class="edge"><title>NamedType&#45;&gt;SaladRecordSchema</title>
<path fill="none" stroke="black" d="M525.125,-115.212C503.754,-102.619 477.462,-87.1269 453.702,-73.126"/>
<polygon fill="black" stroke="black" points="455.469,-70.1048 445.077,-68.0434 451.915,-76.1356 455.469,-70.1048"/>
</g>
<!-- NamedType&#45;&gt;SaladEnumSchema -->
<g id="edge8" class="edge"><title>NamedType&#45;&gt;SaladEnumSchema</title>
<path fill="none" stroke="black" d="M568,-103.882C568,-90.6284 568,-75.8692 568,-63.4231"/>
<polygon fill="black" stroke="black" points="571.5,-63.1771 568,-53.1771 564.5,-63.1771 571.5,-63.1771"/>
</g>
<!-- Documentation -->
<g id="node14" class="node"><title>Documentation</title>
<polygon fill="none" stroke="black" points="793,-53 679,-53 679,-15 793,-15 793,-53"/>
<text text-anchor="middle" x="736" y="-37.8" font-family="Times,serif" font-size="14.00">Documentation</text>
<text text-anchor="start" x="687" y="-22.8" font-family="Times,serif" font-size="14.00">* type</text>
</g>
<!-- NamedType&#45;&gt;Documentation -->
<g id="edge11" class="edge"><title>NamedType&#45;&gt;Documentation</title>
<path fill="none" stroke="black" d="M609.528,-114.404C636.853,-97.2484 672.314,-74.9846 698.731,-58.399"/>
<polygon fill="black" stroke="black" points="700.71,-61.2891 707.318,-53.0076 696.988,-55.3607 700.71,-61.2891"/>
</g>
<!-- SchemaDefinedType -->
<g id="node10" class="node"><title>SchemaDefinedType</title>
<ellipse fill="none" stroke="black" cx="389" cy="-141.477" rx="101.647" ry="37.4533"/>
<text text-anchor="middle" x="389" y="-152.777" font-family="Times,serif" font-size="14.00">SchemaDefinedType</text>
<text text-anchor="start" x="325" y="-137.777" font-family="Times,serif" font-size="14.00">* jsonldPredicate</text>
<text text-anchor="start" x="325" y="-122.777" font-family="Times,serif" font-size="14.00">* documentRoot</text>
</g>
<!-- DocType&#45;&gt;SchemaDefinedType -->
<g id="edge3" class="edge"><title>DocType&#45;&gt;SchemaDefinedType</title>
<path fill="none" stroke="black" d="M389,-214.783C389,-206.338 389,-197.543 389,-189.115"/>
<polygon fill="black" stroke="black" points="392.5,-189.064 389,-179.064 385.5,-189.064 392.5,-189.064"/>
</g>
<!-- DocType&#45;&gt;Documentation -->
<g id="edge12" class="edge"><title>DocType&#45;&gt;Documentation</title>
<path fill="none" stroke="black" d="M458.422,-255.951C551.944,-246.149 710.783,-223.308 746,-178.953 772.146,-146.024 759.71,-94.3979 748.044,-62.7442"/>
<polygon fill="black" stroke="black" points="751.224,-61.2654 744.333,-53.2178 744.702,-63.8062 751.224,-61.2654"/>
</g>
<!-- SchemaDefinedType&#45;&gt;SaladRecordSchema -->
<g id="edge7" class="edge"><title>SchemaDefinedType&#45;&gt;SaladRecordSchema</title>
<path fill="none" stroke="black" d="M389,-103.882C389,-95.5911 389,-86.7109 389,-78.1765"/>
<polygon fill="black" stroke="black" points="392.5,-78.0005 389,-68.0005 385.5,-78.0006 392.5,-78.0005"/>
</g>
<!-- SchemaDefinedType&#45;&gt;SaladEnumSchema -->
<g id="edge10" class="edge"><title>SchemaDefinedType&#45;&gt;SaladEnumSchema</title>
<path fill="none" stroke="black" d="M441.738,-109.401C469.597,-92.9844 503.208,-73.1787 528.746,-58.1306"/>
<polygon fill="black" stroke="black" points="530.581,-61.1119 537.419,-53.0197 527.027,-55.0811 530.581,-61.1119"/>
</g>
</g>
</svg>
