<?xml version="1.0" encoding="UTF-8" standalone="no"?>
<!DOCTYPE svg PUBLIC "-//W3C//DTD SVG 1.1//EN"
 "http://www.w3.org/Graphics/SVG/1.1/DTD/svg11.dtd">
<!-- Generated by graphviz version 8.0.5 (20230430.1635)
 -->
<!-- Pages: 1 -->
<svg width="799pt" height="6345749pt"
 viewBox="0.00 0.00 798.50 6345749.01" xmlns="http://www.w3.org/2000/svg" xmlns:xlink="http://www.w3.org/1999/xlink">
<g id="graph0" class="graph" transform="scale(1 1) rotate(0) translate(4 6345745.01)">
<polygon fill="white" stroke="none" points="-4,4 -4,-6345745.01 794.5,-6345745.01 794.5,4 -4,4"/>
<!-- Documented -->
<g id="node1" class="node">
<title>Documented</title>
<ellipse fill="none" stroke="black" cx="228.75" cy="-4432566.3" rx="64.35" ry="20.56"/>
<text text-anchor="middle" x="228.75" y="-4432563.53" font-family="Times,serif" font-size="14.00">Documented</text>
<text text-anchor="start" x="191.25" y="-4432553.03" font-family="Times,serif" font-size="14.00">* doc</text>
</g>
<!-- RecordField -->
<g id="node2" class="node">
<title>RecordField</title>
<polygon fill="none" stroke="black" points="210,-2519355.59 111.5,-2519355.59 111.5,-1259780.69 210,-1259780.69 210,-2519355.59"/>
<text text-anchor="middle" x="160.75" y="-2519338.29" font-family="Times,serif" font-size="14.00">RecordField</text>
<text text-anchor="start" x="119.5" y="-1259816.36" font-family="Times,serif" font-size="14.00">* name</text>
<text text-anchor="start" x="119.5" y="-1259781.89" font-family="Times,serif" font-size="14.00">* type</text>
</g>
<!-- Documented&#45;&gt;RecordField -->
<g id="edge1" class="edge">
<title>Documented&#45;&gt;RecordField</title>
<path fill="none" stroke="black" d="M228.75,-4432545.36C228.6,-4427011.42 197.68,-3270650 177.59,-2519366.62"/>
<polygon fill="black" stroke="black" points="181.09,-2519366.87 177.59,-2519356.87 174.09,-2519366.87 181.09,-2519366.87"/>
</g>
<!-- DocType -->
<g id="node9" class="node">
<title>DocType</title>
<ellipse fill="none" stroke="black" cx="386.75" cy="-1889568.14" rx="69.65" ry="40.66"/>
<text text-anchor="middle" x="386.75" y="-1889579.59" font-family="Times,serif" font-size="14.00">DocType</text>
<text text-anchor="start" x="345.5" y="-1889569.09" font-family="Times,serif" font-size="14.00">* docParent</text>
<text text-anchor="start" x="345.5" y="-1889558.59" font-family="Times,serif" font-size="14.00">* docChild</text>
<text text-anchor="start" x="345.5" y="-1889548.09" font-family="Times,serif" font-size="14.00">* docAfter</text>
</g>
<!-- Documented&#45;&gt;DocType -->
<g id="edge2" class="edge">
<title>Documented&#45;&gt;DocType</title>
<path fill="none" stroke="black" d="M228.75,-4432545.35C228.75,-4427247.07 229.79,-3367563.19 302.75,-2519391.59 326.66,-2241416.83 385.92,-1894431.57 386.74,-1889619.75"/>
<polygon fill="black" stroke="black" points="390.24,-1889619.94 386.74,-1889609.94 383.24,-1889619.93 390.24,-1889619.94"/>
</g>
<!-- SaladRecordField -->
<g id="node11" class="node">
<title>SaladRecordField</title>
<polygon fill="none" stroke="black" points="143.5,-629947.08 0,-629947.08 0,-629907.58 143.5,-629907.58 143.5,-629947.08"/>
<text text-anchor="middle" x="71.75" y="-629929.78" font-family="Times,serif" font-size="14.00">SaladRecordField</text>
<text text-anchor="start" x="8" y="-629919.28" font-family="Times,serif" font-size="14.00">* jsonldPredicate</text>
<text text-anchor="start" x="8" y="-629908.78" font-family="Times,serif" font-size="14.00">* default</text>
</g>
<!-- RecordField&#45;&gt;SaladRecordField -->
<g id="edge4" class="edge">
<title>RecordField&#45;&gt;SaladRecordField</title>
<path fill="none" stroke="black" d="M116.25,-1259780.62C94.13,-946636.31 72,-633481.17 71.75,-629958.33"/>
<polygon fill="black" stroke="black" points="75.25,-629958.57 71.75,-629948.57 68.25,-629958.57 75.25,-629958.57"/>
</g>
<!-- RecordSchema -->
<g id="node3" class="node">
<title>RecordSchema</title>
<polygon fill="none" stroke="black" points="267.75,-1259744.69 161.75,-1259744.69 161.75,-109.96 267.75,-109.96 267.75,-1259744.69"/>
<text text-anchor="middle" x="214.75" y="-1259727.39" font-family="Times,serif" font-size="14.00">RecordSchema</text>
<text text-anchor="start" x="169.75" y="-1259716.89" font-family="Times,serif" font-size="14.00">* fields</text>
<text text-anchor="start" x="169.75" y="-1259682.43" font-family="Times,serif" font-size="14.00">* type</text>
</g>
<!-- SaladRecordSchema -->
<g id="node12" class="node">
<title>SaladRecordSchema</title>
<polygon fill="none" stroke="black" points="458.5,-73.96 315,-73.96 315,0 458.5,0 458.5,-73.96"/>
<text text-anchor="middle" x="386.75" y="-56.66" font-family="Times,serif" font-size="14.00">SaladRecordSchema</text>
<text text-anchor="start" x="323" y="-22.2" font-family="Times,serif" font-size="14.00">* abstract</text>
<text text-anchor="start" x="323" y="-11.7" font-family="Times,serif" font-size="14.00">* extends</text>
<text text-anchor="start" x="323" y="-1.2" font-family="Times,serif" font-size="14.00">* specialize</text>
</g>
<!-- RecordSchema&#45;&gt;SaladRecordSchema -->
<g id="edge6" class="edge">
<title>RecordSchema&#45;&gt;SaladRecordSchema</title>
<path fill="none" stroke="black" d="M268.25,-86455.9C273.4,-34173.09 276.75,-109.96 276.75,-109.96 283.74,-97.04 294.17,-86.06 305.87,-76.87"/>
<polygon fill="black" stroke="black" points="307.58,-79.23 313.58,-70.49 303.44,-73.58 307.58,-79.23"/>
</g>
<!-- EnumSchema -->
<g id="node4" class="node">
<title>EnumSchema</title>
<polygon fill="none" stroke="black" points="734.25,-629959.06 643.25,-629959.06 643.25,-629895.6 734.25,-629895.6 734.25,-629959.06"/>
<text text-anchor="middle" x="688.75" y="-629941.76" font-family="Times,serif" font-size="14.00">EnumSchema</text>
<text text-anchor="start" x="651.25" y="-629931.26" font-family="Times,serif" font-size="14.00">* symbols</text>
<text text-anchor="start" x="651.25" y="-629920.76" font-family="Times,serif" font-size="14.00">* type</text>
</g>
<!-- SaladEnumSchema -->
<g id="node13" class="node">
<title>SaladEnumSchema</title>
<polygon fill="none" stroke="black" points="630,-54.98 501.5,-54.98 501.5,-18.98 630,-18.98 630,-54.98"/>
<text text-anchor="middle" x="565.75" y="-34.18" font-family="Times,serif" font-size="14.00">SaladEnumSchema</text>
<text text-anchor="start" x="509.5" y="-23.68" font-family="Times,serif" font-size="14.00">* extends</text>
</g>
<!-- EnumSchema&#45;&gt;SaladEnumSchema -->
<g id="edge9" class="edge">
<title>EnumSchema&#45;&gt;SaladEnumSchema</title>
<path fill="none" stroke="black" d="M688.76,-629895.31C689.94,-624828.17 834.97,-615.91 633.75,-109.96 626.37,-91.4 611.68,-74.86 597.84,-62.33"/>
<polygon fill="black" stroke="black" points="600.7,-59.32 590.84,-55.43 596.13,-64.61 600.7,-59.32"/>
</g>
<!-- ArraySchema -->
<g id="node5" class="node">
<title>ArraySchema</title>
<polygon fill="none" stroke="black" points="410,-6345741.01 311.5,-6345741.01 311.5,-2519391.59 410,-2519391.59 410,-6345741.01"/>
<text text-anchor="middle" x="360.75" y="-6345723.71" font-family="Times,serif" font-size="14.00">ArraySchema</text>
<text text-anchor="start" x="319.5" y="-4927342.18" font-family="Times,serif" font-size="14.00">* items</text>
<text text-anchor="start" x="319.5" y="-3778780.03" font-family="Times,serif" font-size="14.00">* type</text>
</g>
<!-- JsonldPredicate -->
<g id="node6" class="node">
<title>JsonldPredicate</title>
<polygon fill="none" stroke="black" points="587,-4432652.78 428.5,-4432652.78 428.5,-4432479.82 587,-4432479.82 587,-4432652.78"/>
<text text-anchor="middle" x="507.75" y="-4432635.48" font-family="Times,serif" font-size="14.00">JsonldPredicate</text>
<text text-anchor="start" x="436.5" y="-4432624.98" font-family="Times,serif" font-size="14.00">* _id</text>
<text text-anchor="start" x="436.5" y="-4432606.98" font-family="Times,serif" font-size="14.00">* _type</text>
<text text-anchor="start" x="436.5" y="-4432596.48" font-family="Times,serif" font-size="14.00">* _container</text>
<text text-anchor="start" x="436.5" y="-4432585.98" font-family="Times,serif" font-size="14.00">* identity</text>
<text text-anchor="start" x="436.5" y="-4432575.48" font-family="Times,serif" font-size="14.00">* noLinkCheck</text>
<text text-anchor="start" x="436.5" y="-4432564.98" font-family="Times,serif" font-size="14.00">* mapSubject</text>
<text text-anchor="start" x="436.5" y="-4432554.48" font-family="Times,serif" font-size="14.00">* mapPredicate</text>
<text text-anchor="start" x="436.5" y="-4432536.48" font-family="Times,serif" font-size="14.00">* refScope</text>
<text text-anchor="start" x="436.5" y="-4432525.98" font-family="Times,serif" font-size="14.00">* typeDSL</text>
<text text-anchor="start" x="436.5" y="-4432515.48" font-family="Times,serif" font-size="14.00">* secondaryFilesDSL</text>
<text text-anchor="start" x="436.5" y="-4432504.98" font-family="Times,serif" font-size="14.00">* subscope</text>
</g>
<!-- SpecializeDef -->
<g id="node7" class="node">
<title>SpecializeDef</title>
<polygon fill="none" stroke="black" points="740.75,-4432586.05 604.75,-4432586.05 604.75,-4432546.55 740.75,-4432546.55 740.75,-4432586.05"/>
<text text-anchor="middle" x="672.75" y="-4432568.75" font-family="Times,serif" font-size="14.00">SpecializeDef</text>
<text text-anchor="start" x="612.75" y="-4432558.25" font-family="Times,serif" font-size="14.00">* specializeFrom</text>
<text text-anchor="start" x="612.75" y="-4432547.75" font-family="Times,serif" font-size="14.00">* specializeTo</text>
</g>
<!-- NamedType -->
<g id="node8" class="node">
<title>NamedType</title>
<ellipse fill="none" stroke="black" cx="565.75" cy="-629927.33" rx="59.04" ry="44.87"/>
<text text-anchor="middle" x="565.75" y="-629941.76" font-family="Times,serif" font-size="14.00">NamedType</text>
<text text-anchor="start" x="532" y="-629907.3" font-family="Times,serif" font-size="14.00">* name</text>
<text text-anchor="start" x="532" y="-629896.8" font-family="Times,serif" font-size="14.00">* inVocab</text>
</g>
<!-- NamedType&#45;&gt;SaladRecordSchema -->
<g id="edge5" class="edge">
<title>NamedType&#45;&gt;SaladRecordSchema</title>
<path fill="none" stroke="black" d="M565.76,-629882.02C567.59,-623833.69 755.55,-588.53 496.75,-109.96 489.76,-97.04 479.33,-86.06 467.63,-76.87"/>
<polygon fill="black" stroke="black" points="470.06,-73.58 459.92,-70.49 465.92,-79.23 470.06,-73.58"/>
</g>
<!-- NamedType&#45;&gt;SaladEnumSchema -->
<g id="edge8" class="edge">
<title>NamedType&#45;&gt;SaladEnumSchema</title>
<path fill="none" stroke="black" d="M565.75,-629881.98C565.75,-623851.8 565.75,-4860.87 565.75,-65.98"/>
<polygon fill="black" stroke="black" points="569.25,-66.37 565.75,-56.37 562.25,-66.37 569.25,-66.37"/>
</g>
<!-- Documentation -->
<g id="node14" class="node">
<title>Documentation</title>
<polygon fill="none" stroke="black" points="790.5,-63.46 677,-63.46 677,-10.5 790.5,-10.5 790.5,-63.46"/>
<text text-anchor="middle" x="733.75" y="-46.16" font-family="Times,serif" font-size="14.00">Documentation</text>
<text text-anchor="start" x="685" y="-11.7" font-family="Times,serif" font-size="14.00">* type</text>
</g>
<!-- NamedType&#45;&gt;Documentation -->
<g id="edge11" class="edge">
<title>NamedType&#45;&gt;Documentation</title>
<path fill="none" stroke="black" d="M565.74,-629882.02C564.02,-623833.75 387.81,-594.76 634.75,-109.96 642.97,-93.82 656.7,-80.44 671.36,-69.78"/>
<polygon fill="black" stroke="black" points="672.79,-72.36 679.06,-63.82 668.83,-66.59 672.79,-72.36"/>
</g>
<!-- SchemaDefinedType -->
<g id="node10" class="node">
<title>SchemaDefinedType</title>
<ellipse fill="none" stroke="black" cx="386.75" cy="-629927.33" rx="101.47" ry="44.87"/>
<text text-anchor="middle" x="386.75" y="-629941.76" font-family="Times,serif" font-size="14.00">SchemaDefinedType</text>
<text text-anchor="start" x="323" y="-629931.26" font-family="Times,serif" font-size="14.00">* jsonldPredicate</text>
<text text-anchor="start" x="323" y="-629896.8" font-family="Times,serif" font-size="14.00">* documentRoot</text>
</g>
<!-- DocType&#45;&gt;SchemaDefinedType -->
<g id="edge3" class="edge">
<title>DocType&#45;&gt;SchemaDefinedType</title>
<path fill="none" stroke="black" d="M386.75,-1889527.31C386.75,-1881423.63 386.75,-639492.8 386.75,-629983.22"/>
<polygon fill="black" stroke="black" points="390.25,-629983.48 386.75,-629973.48 383.25,-629983.48 390.25,-629983.48"/>
</g>
<!-- DocType&#45;&gt;Documentation -->
<g id="edge12" class="edge">
<title>DocType&#45;&gt;Documentation</title>
<path fill="none" stroke="black" d="M386.78,-1889527.35C390.17,-1885255.83 664.91,-1537940.23 743.75,-1259744.69 744.06,-1258651.26 819.16,-1200.79 743.75,-109.96 742.95,-98.45 741.45,-85.97 739.84,-74.68"/>
<polygon fill="black" stroke="black" points="743.17,-74.25 738.23,-64.88 736.25,-75.29 743.17,-74.25"/>
</g>
<!-- SchemaDefinedType&#45;&gt;SaladRecordSchema -->
<g id="edge7" class="edge">
<title>SchemaDefinedType&#45;&gt;SaladRecordSchema</title>
<path fill="none" stroke="black" d="M386.75,-629881.98C386.75,-623858.82 386.75,-6300.96 386.75,-85.22"/>
<polygon fill="black" stroke="black" points="390.25,-85.27 386.75,-75.27 383.25,-85.27 390.25,-85.27"/>
</g>
<!-- SchemaDefinedType&#45;&gt;SaladEnumSchema -->
<g id="edge10" class="edge">
<title>SchemaDefinedType&#45;&gt;SaladEnumSchema</title>
<path fill="none" stroke="black" d="M386.73,-629882.06C383.92,-623838.86 95.59,-1121.04 497.75,-109.96 505.13,-91.4 519.82,-74.86 533.67,-62.33"/>
<polygon fill="black" stroke="black" points="535.37,-64.61 540.66,-55.43 530.8,-59.32 535.37,-64.61"/>
</g>
</g>
</svg>
