<?xml version="1.0" encoding="UTF-8" standalone="no"?>
<!DOCTYPE svg PUBLIC "-//W3C//DTD SVG 1.1//EN"
 "http://www.w3.org/Graphics/SVG/1.1/DTD/svg11.dtd">
<!-- Generated by graphviz version 8.0.5 (20230430.1635)
 -->
<!-- Pages: 1 -->
<svg width="1176pt" height="3489821pt"
 viewBox="0.00 0.00 1175.50 3489821.16" xmlns="http://www.w3.org/2000/svg" xmlns:xlink="http://www.w3.org/1999/xlink">
<g id="graph0" class="graph" transform="scale(1 1) rotate(0) translate(4 3489817.16)">
<polygon fill="white" stroke="none" points="-4,4 -4,-3489817.16 1171.5,-3489817.16 1171.5,4 -4,4"/>
<!-- JsonldPredicate -->
<g id="node1" class="node">
<title>JsonldPredicate</title>
<polygon fill="none" stroke="black" points="128.5,-3489813.16 0,-3489813.16 0,-192.86 128.5,-192.86 128.5,-3489813.16"/>
<text text-anchor="middle" x="64.25" y="-3489795.86" font-family="Times,serif" font-size="14.00">JsonldPredicate</text>
<text text-anchor="start" x="8" y="-2791822.43" font-family="Times,serif" font-size="14.00">* _id</text>
<text text-anchor="start" x="8" y="-2093976.27" font-family="Times,serif" font-size="14.00">* _type</text>
<text text-anchor="start" x="8" y="-2093965.77" font-family="Times,serif" font-size="14.00">* _container</text>
<text text-anchor="start" x="8" y="-1396127.67" font-family="Times,serif" font-size="14.00">* identity</text>
<text text-anchor="start" x="8" y="-698155.51" font-family="Times,serif" font-size="14.00">* noLinkCheck</text>
</g>
<!-- SpecializeDef -->
<g id="node2" class="node">
<title>SpecializeDef</title>
<polygon fill="none" stroke="black" points="282.25,-1745026.51 146.25,-1745026.51 146.25,-1744979.51 282.25,-1744979.51 282.25,-1745026.51"/>
<text text-anchor="middle" x="214.25" y="-1745009.21" font-family="Times,serif" font-size="14.00">SpecializeDef</text>
<text text-anchor="start" x="154.25" y="-1744998.71" font-family="Times,serif" font-size="14.00">* specializeFrom</text>
<text text-anchor="start" x="154.25" y="-1744980.71" font-family="Times,serif" font-size="14.00">* specializeTo</text>
</g>
<!-- NamedType -->
<g id="node3" class="node">
<title>NamedType</title>
<ellipse fill="none" stroke="black" cx="359.25" cy="-1745003.01" rx="59.04" ry="25.81"/>
<text text-anchor="middle" x="359.25" y="-1745003.96" font-family="Times,serif" font-size="14.00">NamedType</text>
<text text-anchor="start" x="325.5" y="-1744993.46" font-family="Times,serif" font-size="14.00">* name</text>
</g>
<!-- SaladRecordSchema -->
<g id="node9" class="node">
<title>SaladRecordSchema</title>
<polygon fill="none" stroke="black" points="601,-50 457.5,-50 457.5,0 601,0 601,-50"/>
<text text-anchor="middle" x="529.25" y="-32.7" font-family="Times,serif" font-size="14.00">SaladRecordSchema</text>
<text text-anchor="start" x="465.5" y="-22.2" font-family="Times,serif" font-size="14.00">* abstract</text>
<text text-anchor="start" x="465.5" y="-11.7" font-family="Times,serif" font-size="14.00">* extends</text>
<text text-anchor="start" x="465.5" y="-1.2" font-family="Times,serif" font-size="14.00">* specialize</text>
</g>
<!-- NamedType&#45;&gt;SaladRecordSchema -->
<g id="edge3" class="edge">
<title>NamedType&#45;&gt;SaladRecordSchema</title>
<path fill="none" stroke="black" d="M359.25,-1744976.82C359.14,-1739294.28 340.57,-773359.83 335.25,-156.86 335.25,-125.37 316.56,-111.35 335.25,-86 360.8,-51.36 406.1,-36.11 446.51,-29.64"/>
<polygon fill="black" stroke="black" points="446.8,-32.99 456.2,-28.11 445.81,-26.06 446.8,-32.99"/>
</g>
<!-- Documentation -->
<g id="node13" class="node">
<title>Documentation</title>
<polygon fill="none" stroke="black" points="458,-139.43 344.5,-139.43 344.5,-103.43 458,-103.43 458,-139.43"/>
<text text-anchor="middle" x="401.25" y="-118.63" font-family="Times,serif" font-size="14.00">Documentation</text>
<text text-anchor="start" x="352.5" y="-108.13" font-family="Times,serif" font-size="14.00">* type</text>
</g>
<!-- NamedType&#45;&gt;Documentation -->
<g id="edge8" class="edge">
<title>NamedType&#45;&gt;Documentation</title>
<path fill="none" stroke="black" d="M359.25,-1744976.78C359.43,-1737360.32 401.06,-8221.22 401.25,-150.77"/>
<polygon fill="black" stroke="black" points="404.75,-150.88 401.25,-140.88 397.75,-150.88 404.75,-150.88"/>
</g>
<!-- DocType -->
<g id="node4" class="node">
<title>DocType</title>
<ellipse fill="none" stroke="black" cx="604.25" cy="-1745003.01" rx="69.65" ry="76.53"/>
<text text-anchor="middle" x="604.25" y="-1745039.83" font-family="Times,serif" font-size="14.00">DocType</text>
<text text-anchor="start" x="563" y="-1745005.46" font-family="Times,serif" font-size="14.00">* doc</text>
<text text-anchor="start" x="563" y="-1744994.96" font-family="Times,serif" font-size="14.00">* docParent</text>
<text text-anchor="start" x="563" y="-1744960.6" font-family="Times,serif" font-size="14.00">* docChild</text>
<text text-anchor="start" x="563" y="-1744950.1" font-family="Times,serif" font-size="14.00">* docAfter</text>
</g>
<!-- SchemaDefinedType -->
<g id="node5" class="node">
<title>SchemaDefinedType</title>
<ellipse fill="none" stroke="black" cx="701.25" cy="-121.43" rx="101.47" ry="33.23"/>
<text text-anchor="middle" x="701.25" y="-127.63" font-family="Times,serif" font-size="14.00">SchemaDefinedType</text>
<text text-anchor="start" x="637.5" y="-117.13" font-family="Times,serif" font-size="14.00">* jsonldPredicate</text>
<text text-anchor="start" x="637.5" y="-106.63" font-family="Times,serif" font-size="14.00">* documentRoot</text>
</g>
<!-- DocType&#45;&gt;SchemaDefinedType -->
<g id="edge1" class="edge">
<title>DocType&#45;&gt;SchemaDefinedType</title>
<path fill="none" stroke="black" d="M604.25,-1744926.03C604.99,-1731753.11 700.7,-10092.36 701.25,-165.53"/>
<polygon fill="black" stroke="black" points="704.75,-165.91 701.25,-155.91 697.75,-165.91 704.75,-165.91"/>
</g>
<!-- DocType&#45;&gt;Documentation -->
<g id="edge9" class="edge">
<title>DocType&#45;&gt;Documentation</title>
<path fill="none" stroke="black" d="M604.27,-1744926.16C606.95,-1731738.23 958.19,-3163.42 427.25,-192.86 424.63,-178.23 419.19,-162.65 413.95,-149.88"/>
<polygon fill="black" stroke="black" points="416.83,-148.7 409.67,-140.89 410.39,-151.46 416.83,-148.7"/>
</g>
<!-- SchemaDefinedType&#45;&gt;SaladRecordSchema -->
<g id="edge5" class="edge">
<title>SchemaDefinedType&#45;&gt;SaladRecordSchema</title>
<path fill="none" stroke="black" d="M650.11,-92.36C629.07,-80.8 604.68,-67.41 583.34,-55.7"/>
<polygon fill="black" stroke="black" points="585.23,-52.19 574.78,-50.45 581.86,-58.33 585.23,-52.19"/>
</g>
<!-- SaladEnumSchema -->
<g id="node11" class="node">
<title>SaladEnumSchema</title>
<polygon fill="none" stroke="black" points="847.5,-43 719,-43 719,-7 847.5,-7 847.5,-43"/>
<text text-anchor="middle" x="783.25" y="-22.2" font-family="Times,serif" font-size="14.00">SaladEnumSchema</text>
<text text-anchor="start" x="727" y="-11.7" font-family="Times,serif" font-size="14.00">* extends</text>
</g>
<!-- SchemaDefinedType&#45;&gt;SaladEnumSchema -->
<g id="edge7" class="edge">
<title>SchemaDefinedType&#45;&gt;SaladEnumSchema</title>
<path fill="none" stroke="black" d="M728.55,-88.99C739.2,-76.73 751.24,-62.86 761.31,-51.27"/>
<polygon fill="black" stroke="black" points="764.33,-54.13 768.24,-44.28 759.04,-49.54 764.33,-54.13"/>
</g>
<!-- RecordField -->
<g id="node6" class="node">
<title>RecordField</title>
<polygon fill="none" stroke="black" points="1050.5,-1745031.76 952,-1745031.76 952,-1744974.26 1050.5,-1744974.26 1050.5,-1745031.76"/>
<text text-anchor="middle" x="1001.25" y="-1745014.46" font-family="Times,serif" font-size="14.00">RecordField</text>
<text text-anchor="start" x="960" y="-1745003.96" font-family="Times,serif" font-size="14.00">* name</text>
<text text-anchor="start" x="960" y="-1744993.46" font-family="Times,serif" font-size="14.00">* doc</text>
<text text-anchor="start" x="960" y="-1744975.46" font-family="Times,serif" font-size="14.00">* type</text>
</g>
<!-- SaladRecordField -->
<g id="node7" class="node">
<title>SaladRecordField</title>
<polygon fill="none" stroke="black" points="1073,-139.43 929.5,-139.43 929.5,-103.43 1073,-103.43 1073,-139.43"/>
<text text-anchor="middle" x="1001.25" y="-118.63" font-family="Times,serif" font-size="14.00">SaladRecordField</text>
<text text-anchor="start" x="937.5" y="-108.13" font-family="Times,serif" font-size="14.00">* jsonldPredicate</text>
</g>
<!-- RecordField&#45;&gt;SaladRecordField -->
<g id="edge2" class="edge">
<title>RecordField&#45;&gt;SaladRecordField</title>
<path fill="none" stroke="black" d="M1001.25,-1744973.9C1001.25,-1736936.27 1001.25,-8219.24 1001.25,-150.76"/>
<polygon fill="black" stroke="black" points="1004.75,-150.88 1001.25,-140.88 997.75,-150.88 1004.75,-150.88"/>
</g>
<!-- RecordSchema -->
<g id="node8" class="node">
<title>RecordSchema</title>
<polygon fill="none" stroke="black" points="582.25,-156.86 476.25,-156.86 476.25,-86 582.25,-86 582.25,-156.86"/>
<text text-anchor="middle" x="529.25" y="-139.56" font-family="Times,serif" font-size="14.00">RecordSchema</text>
<text text-anchor="start" x="484.25" y="-129.06" font-family="Times,serif" font-size="14.00">* type</text>
<text text-anchor="start" x="484.25" y="-94.7" font-family="Times,serif" font-size="14.00">* fields</text>
</g>
<!-- RecordSchema&#45;&gt;SaladRecordSchema -->
<g id="edge4" class="edge">
<title>RecordSchema&#45;&gt;SaladRecordSchema</title>
<path fill="none" stroke="black" d="M529.25,-85.54C529.25,-77.61 529.25,-69.18 529.25,-61.24"/>
<polygon fill="black" stroke="black" points="532.75,-61.44 529.25,-51.44 525.75,-61.44 532.75,-61.44"/>
</g>
<!-- EnumSchema -->
<g id="node10" class="node">
<title>EnumSchema</title>
<polygon fill="none" stroke="black" points="911.75,-141.18 820.75,-141.18 820.75,-101.68 911.75,-101.68 911.75,-141.18"/>
<text text-anchor="middle" x="866.25" y="-123.88" font-family="Times,serif" font-size="14.00">EnumSchema</text>
<text text-anchor="start" x="828.75" y="-113.38" font-family="Times,serif" font-size="14.00">* type</text>
<text text-anchor="start" x="828.75" y="-102.88" font-family="Times,serif" font-size="14.00">* symbols</text>
</g>
<!-- EnumSchema&#45;&gt;SaladEnumSchema -->
<g id="edge6" class="edge">
<title>EnumSchema&#45;&gt;SaladEnumSchema</title>
<path fill="none" stroke="black" d="M849.45,-101.32C836.9,-87.04 819.62,-67.37 805.85,-51.72"/>
<polygon fill="black" stroke="black" points="807.85,-49.69 798.62,-44.49 802.59,-54.31 807.85,-49.69"/>
</g>
<!-- ArraySchema -->
<g id="node12" class="node">
<title>ArraySchema</title>
<polygon fill="none" stroke="black" points="1167.5,-1745026.51 1069,-1745026.51 1069,-1744979.51 1167.5,-1744979.51 1167.5,-1745026.51"/>
<text text-anchor="middle" x="1118.25" y="-1745009.21" font-family="Times,serif" font-size="14.00">ArraySchema</text>
<text text-anchor="start" x="1077" y="-1744998.71" font-family="Times,serif" font-size="14.00">* type</text>
<text text-anchor="start" x="1077" y="-1744980.71" font-family="Times,serif" font-size="14.00">* items</text>
</g>
</g>
</svg>
