<?xml version="1.0" encoding="UTF-8" standalone="no"?>
<!DOCTYPE svg PUBLIC "-//W3C//DTD SVG 1.1//EN"
 "http://www.w3.org/Graphics/SVG/1.1/DTD/svg11.dtd">
<!-- Generated by graphviz version 2.40.1 (0)
 -->
<!-- Title: %3 Pages: 1 -->
<svg width="1182pt" height="340pt"
 viewBox="0.00 0.00 1182.00 340.33" xmlns="http://www.w3.org/2000/svg" xmlns:xlink="http://www.w3.org/1999/xlink">
<g id="graph0" class="graph" transform="scale(1 1) rotate(0) translate(4 336.333)">
<title>%3</title>
<polygon fill="#ffffff" stroke="transparent" points="-4,4 -4,-336.333 1178,-336.333 1178,4 -4,4"/>
<!-- JsonldPredicate -->
<g id="node1" class="node">
<title>JsonldPredicate</title>
<polygon fill="none" stroke="#000000" points="129,-322.6432 0,-322.6432 0,-224.6432 129,-224.6432 129,-322.6432"/>
<text text-anchor="middle" x="64.5" y="-307.4432" font-family="Times,serif" font-size="14.00" fill="#000000">JsonldPredicate</text>
<text text-anchor="start" x="8" y="-292.4432" font-family="Times,serif" font-size="14.00" fill="#000000">* _id</text>
<text text-anchor="start" x="8" y="-277.4432" font-family="Times,serif" font-size="14.00" fill="#000000">* _type</text>
<text text-anchor="start" x="8" y="-262.4432" font-family="Times,serif" font-size="14.00" fill="#000000">* _container</text>
<text text-anchor="start" x="8" y="-247.4432" font-family="Times,serif" font-size="14.00" fill="#000000">* identity</text>
<text text-anchor="start" x="8" y="-232.4432" font-family="Times,serif" font-size="14.00" fill="#000000">* noLinkCheck</text>
</g>
<!-- SpecializeDef -->
<g id="node2" class="node">
<title>SpecializeDef</title>
<polygon fill="none" stroke="#000000" points="284,-300.1432 147,-300.1432 147,-247.1432 284,-247.1432 284,-300.1432"/>
<text text-anchor="middle" x="215.5" y="-284.9432" font-family="Times,serif" font-size="14.00" fill="#000000">SpecializeDef</text>
<text text-anchor="start" x="155" y="-269.9432" font-family="Times,serif" font-size="14.00" fill="#000000">* specializeFrom</text>
<text text-anchor="start" x="155" y="-254.9432" font-family="Times,serif" font-size="14.00" fill="#000000">* specializeTo</text>
</g>
<!-- NamedType -->
<g id="node3" class="node">
<title>NamedType</title>
<ellipse fill="none" stroke="#000000" cx="361.5" cy="-273.6432" rx="59.2941" ry="26.7407"/>
<text text-anchor="middle" x="361.5" y="-277.4432" font-family="Times,serif" font-size="14.00" fill="#000000">NamedType</text>
<text text-anchor="start" x="327.5" y="-262.4432" font-family="Times,serif" font-size="14.00" fill="#000000">* name</text>
</g>
<!-- SaladRecordSchema -->
<g id="node9" class="node">
<title>SaladRecordSchema</title>
<polygon fill="none" stroke="#000000" points="604.5,-68 460.5,-68 460.5,0 604.5,0 604.5,-68"/>
<text text-anchor="middle" x="532.5" y="-52.8" font-family="Times,serif" font-size="14.00" fill="#000000">SaladRecordSchema</text>
<text text-anchor="start" x="468.5" y="-37.8" font-family="Times,serif" font-size="14.00" fill="#000000">* abstract</text>
<text text-anchor="start" x="468.5" y="-22.8" font-family="Times,serif" font-size="14.00" fill="#000000">* extends</text>
<text text-anchor="start" x="468.5" y="-7.8" font-family="Times,serif" font-size="14.00" fill="#000000">* specialize</text>
</g>
<!-- NamedType&#45;&gt;SaladRecordSchema -->
<g id="edge3" class="edge">
<title>NamedType&#45;&gt;SaladRecordSchema</title>
<path fill="none" stroke="#000000" d="M347.3995,-247.4506C330.2763,-211.6732 307.2065,-147.0607 337.5,-104 351.291,-84.3968 403.5704,-66.2331 450.5276,-53.3229"/>
<polygon fill="#000000" stroke="#000000" points="451.7061,-56.6303 460.4511,-50.6491 449.8849,-49.8713 451.7061,-56.6303"/>
</g>
<!-- Documentation -->
<g id="node13" class="node">
<title>Documentation</title>
<polygon fill="none" stroke="#000000" points="460.5,-160.4767 346.5,-160.4767 346.5,-122.4767 460.5,-122.4767 460.5,-160.4767"/>
<text text-anchor="middle" x="403.5" y="-145.2767" font-family="Times,serif" font-size="14.00" fill="#000000">Documentation</text>
<text text-anchor="start" x="354.5" y="-130.2767" font-family="Times,serif" font-size="14.00" fill="#000000">* type</text>
</g>
<!-- NamedType&#45;&gt;Documentation -->
<g id="edge8" class="edge">
<title>NamedType&#45;&gt;Documentation</title>
<path fill="none" stroke="#000000" d="M369.9993,-246.8973C377.0667,-224.6577 387.1039,-193.0723 394.3468,-170.2802"/>
<polygon fill="#000000" stroke="#000000" points="397.7643,-171.0824 397.4573,-160.492 391.093,-168.9624 397.7643,-171.0824"/>
</g>
<!-- DocType -->
<g id="node4" class="node">
<title>DocType</title>
<ellipse fill="none" stroke="#000000" cx="607.5" cy="-273.6432" rx="70.0071" ry="58.8803"/>
<text text-anchor="middle" x="607.5" y="-299.9432" font-family="Times,serif" font-size="14.00" fill="#000000">DocType</text>
<text text-anchor="start" x="566" y="-284.9432" font-family="Times,serif" font-size="14.00" fill="#000000">* doc</text>
<text text-anchor="start" x="566" y="-269.9432" font-family="Times,serif" font-size="14.00" fill="#000000">* docParent</text>
<text text-anchor="start" x="566" y="-254.9432" font-family="Times,serif" font-size="14.00" fill="#000000">* docChild</text>
<text text-anchor="start" x="566" y="-239.9432" font-family="Times,serif" font-size="14.00" fill="#000000">* docAfter</text>
</g>
<!-- SchemaDefinedType -->
<g id="node5" class="node">
<title>SchemaDefinedType</title>
<ellipse fill="none" stroke="#000000" cx="705.5" cy="-141.4767" rx="101.6471" ry="37.4533"/>
<text text-anchor="middle" x="705.5" y="-152.7767" font-family="Times,serif" font-size="14.00" fill="#000000">SchemaDefinedType</text>
<text text-anchor="start" x="641.5" y="-137.7767" font-family="Times,serif" font-size="14.00" fill="#000000">* jsonldPredicate</text>
<text text-anchor="start" x="641.5" y="-122.7767" font-family="Times,serif" font-size="14.00" fill="#000000">* documentRoot</text>
</g>
<!-- DocType&#45;&gt;SchemaDefinedType -->
<g id="edge1" class="edge">
<title>DocType&#45;&gt;SchemaDefinedType</title>
<path fill="none" stroke="#000000" d="M644.5496,-223.6767C653.7099,-211.3228 663.4636,-198.1685 672.4209,-186.0883"/>
<polygon fill="#000000" stroke="#000000" points="675.3331,-188.0371 678.4779,-177.9197 669.7102,-183.8678 675.3331,-188.0371"/>
</g>
<!-- DocType&#45;&gt;Documentation -->
<g id="edge9" class="edge">
<title>DocType&#45;&gt;Documentation</title>
<path fill="none" stroke="#000000" d="M552.0256,-237.7027C516.8678,-214.9248 472.3244,-186.0663 441.2291,-165.9204"/>
<polygon fill="#000000" stroke="#000000" points="443.1299,-162.9816 432.8342,-160.4816 439.3237,-168.8564 443.1299,-162.9816"/>
</g>
<!-- SchemaDefinedType&#45;&gt;SaladRecordSchema -->
<g id="edge5" class="edge">
<title>SchemaDefinedType&#45;&gt;SaladRecordSchema</title>
<path fill="none" stroke="#000000" d="M653.5943,-109.2301C635.4694,-97.97 614.9182,-85.2025 595.9598,-73.4245"/>
<polygon fill="#000000" stroke="#000000" points="597.7169,-70.3958 587.3757,-68.0916 594.023,-76.3418 597.7169,-70.3958"/>
</g>
<!-- SaladEnumSchema -->
<g id="node11" class="node">
<title>SaladEnumSchema</title>
<polygon fill="none" stroke="#000000" points="853,-53 724,-53 724,-15 853,-15 853,-53"/>
<text text-anchor="middle" x="788.5" y="-37.8" font-family="Times,serif" font-size="14.00" fill="#000000">SaladEnumSchema</text>
<text text-anchor="start" x="732" y="-22.8" font-family="Times,serif" font-size="14.00" fill="#000000">* extends</text>
</g>
<!-- SchemaDefinedType&#45;&gt;SaladEnumSchema -->
<g id="edge7" class="edge">
<title>SchemaDefinedType&#45;&gt;SaladEnumSchema</title>
<path fill="none" stroke="#000000" d="M733.3687,-105.3895C744.5227,-90.9461 757.1547,-74.5891 767.5104,-61.1794"/>
<polygon fill="#000000" stroke="#000000" points="770.2885,-63.3083 773.6306,-53.2544 764.7483,-59.0298 770.2885,-63.3083"/>
</g>
<!-- RecordField -->
<g id="node6" class="node">
<title>RecordField</title>
<polygon fill="none" stroke="#000000" points="1057,-307.6432 958,-307.6432 958,-239.6432 1057,-239.6432 1057,-307.6432"/>
<text text-anchor="middle" x="1007.5" y="-292.4432" font-family="Times,serif" font-size="14.00" fill="#000000">RecordField</text>
<text text-anchor="start" x="966" y="-277.4432" font-family="Times,serif" font-size="14.00" fill="#000000">* name</text>
<text text-anchor="start" x="966" y="-262.4432" font-family="Times,serif" font-size="14.00" fill="#000000">* doc</text>
<text text-anchor="start" x="966" y="-247.4432" font-family="Times,serif" font-size="14.00" fill="#000000">* type</text>
</g>
<!-- SaladRecordField -->
<g id="node7" class="node">
<title>SaladRecordField</title>
<polygon fill="none" stroke="#000000" points="1079.5,-160.4767 935.5,-160.4767 935.5,-122.4767 1079.5,-122.4767 1079.5,-160.4767"/>
<text text-anchor="middle" x="1007.5" y="-145.2767" font-family="Times,serif" font-size="14.00" fill="#000000">SaladRecordField</text>
<text text-anchor="start" x="943.5" y="-130.2767" font-family="Times,serif" font-size="14.00" fill="#000000">* jsonldPredicate</text>
</g>
<!-- RecordField&#45;&gt;SaladRecordField -->
<g id="edge2" class="edge">
<title>RecordField&#45;&gt;SaladRecordField</title>
<path fill="none" stroke="#000000" d="M1007.5,-239.607C1007.5,-218.342 1007.5,-191.2352 1007.5,-170.9019"/>
<polygon fill="#000000" stroke="#000000" points="1011.0001,-170.6683 1007.5,-160.6683 1004.0001,-170.6683 1011.0001,-170.6683"/>
</g>
<!-- RecordSchema -->
<g id="node8" class="node">
<title>RecordSchema</title>
<polygon fill="none" stroke="#000000" points="586,-167.9767 479,-167.9767 479,-114.9767 586,-114.9767 586,-167.9767"/>
<text text-anchor="middle" x="532.5" y="-152.7767" font-family="Times,serif" font-size="14.00" fill="#000000">RecordSchema</text>
<text text-anchor="start" x="487" y="-137.7767" font-family="Times,serif" font-size="14.00" fill="#000000">* type</text>
<text text-anchor="start" x="487" y="-122.7767" font-family="Times,serif" font-size="14.00" fill="#000000">* fields</text>
</g>
<!-- RecordSchema&#45;&gt;SaladRecordSchema -->
<g id="edge4" class="edge">
<title>RecordSchema&#45;&gt;SaladRecordSchema</title>
<path fill="none" stroke="#000000" d="M532.5,-114.9094C532.5,-103.9339 532.5,-90.9064 532.5,-78.5474"/>
<polygon fill="#000000" stroke="#000000" points="536.0001,-78.3827 532.5,-68.3827 529.0001,-78.3827 536.0001,-78.3827"/>
</g>
<!-- EnumSchema -->
<g id="node10" class="node">
<title>EnumSchema</title>
<polygon fill="none" stroke="#000000" points="917.5,-167.9767 825.5,-167.9767 825.5,-114.9767 917.5,-114.9767 917.5,-167.9767"/>
<text text-anchor="middle" x="871.5" y="-152.7767" font-family="Times,serif" font-size="14.00" fill="#000000">EnumSchema</text>
<text text-anchor="start" x="833.5" y="-137.7767" font-family="Times,serif" font-size="14.00" fill="#000000">* type</text>
<text text-anchor="start" x="833.5" y="-122.7767" font-family="Times,serif" font-size="14.00" fill="#000000">* symbols</text>
</g>
<!-- EnumSchema&#45;&gt;SaladEnumSchema -->
<g id="edge6" class="edge">
<title>EnumSchema&#45;&gt;SaladEnumSchema</title>
<path fill="none" stroke="#000000" d="M850.9831,-114.9094C838.3923,-98.6055 822.3045,-77.7734 809.6065,-61.3308"/>
<polygon fill="#000000" stroke="#000000" points="812.1941,-58.9552 803.3118,-53.1798 806.6539,-63.2337 812.1941,-58.9552"/>
</g>
<!-- ArraySchema -->
<g id="node12" class="node">
<title>ArraySchema</title>
<polygon fill="none" stroke="#000000" points="1174,-300.1432 1075,-300.1432 1075,-247.1432 1174,-247.1432 1174,-300.1432"/>
<text text-anchor="middle" x="1124.5" y="-284.9432" font-family="Times,serif" font-size="14.00" fill="#000000">ArraySchema</text>
<text text-anchor="start" x="1083" y="-269.9432" font-family="Times,serif" font-size="14.00" fill="#000000">* type</text>
<text text-anchor="start" x="1083" y="-254.9432" font-family="Times,serif" font-size="14.00" fill="#000000">* items</text>
</g>
</g>
</svg>
