<svg xmlns="http://www.w3.org/2000/svg" xmlns:xlink="http://www.w3.org/1999/xlink" width="1576" height="340pt" viewBox="0 0 1182 340.33"><g id="graph0" class="graph" transform="scale(1 1) rotate(0) translate(4 336.333)"><title>%3</title><polygon fill="#fff" stroke="transparent" points="-4 4 -4 -336.333 1178 -336.333 1178 4 -4 4"/><g id="node1" class="node"><title>JsonldPredicate</title><polygon fill="none" stroke="#000" points="129 -322.643 0 -322.643 0 -224.643 129 -224.643 129 -322.643"/><text x="64.5" y="-307.443" fill="#000" font-family="Times,serif" font-size="14" text-anchor="middle">JsonldPredicate</text><text x="8" y="-292.443" fill="#000" font-family="Times,serif" font-size="14" text-anchor="start">* _id</text><text x="8" y="-277.443" fill="#000" font-family="Times,serif" font-size="14" text-anchor="start">* _type</text><text x="8" y="-262.443" fill="#000" font-family="Times,serif" font-size="14" text-anchor="start">* _container</text><text x="8" y="-247.443" fill="#000" font-family="Times,serif" font-size="14" text-anchor="start">* identity</text><text x="8" y="-232.443" fill="#000" font-family="Times,serif" font-size="14" text-anchor="start">* noLinkCheck</text></g><g id="node2" class="node"><title>SpecializeDef</title><polygon fill="none" stroke="#000" points="284 -300.143 147 -300.143 147 -247.143 284 -247.143 284 -300.143"/><text x="215.5" y="-284.943" fill="#000" font-family="Times,serif" font-size="14" text-anchor="middle">SpecializeDef</text><text x="155" y="-269.943" fill="#000" font-family="Times,serif" font-size="14" text-anchor="start">* specializeFrom</text><text x="155" y="-254.943" fill="#000" font-family="Times,serif" font-size="14" text-anchor="start">* specializeTo</text></g><g id="node3" class="node"><title>NamedType</title><ellipse cx="361.5" cy="-273.643" fill="none" stroke="#000" rx="59.294" ry="26.741"/><text x="361.5" y="-277.443" fill="#000" font-family="Times,serif" font-size="14" text-anchor="middle">NamedType</text><text x="327.5" y="-262.443" fill="#000" font-family="Times,serif" font-size="14" text-anchor="start">* name</text></g><g id="node9" class="node"><title>SaladRecordSchema</title><polygon fill="none" stroke="#000" points="604.5 -68 460.5 -68 460.5 0 604.5 0 604.5 -68"/><text x="532.5" y="-52.8" fill="#000" font-family="Times,serif" font-size="14" text-anchor="middle">SaladRecordSchema</text><text x="468.5" y="-37.8" fill="#000" font-family="Times,serif" font-size="14" text-anchor="start">* abstract</text><text x="468.5" y="-22.8" fill="#000" font-family="Times,serif" font-size="14" text-anchor="start">* extends</text><text x="468.5" y="-7.8" fill="#000" font-family="Times,serif" font-size="14" text-anchor="start">* specialize</text></g><g id="edge3" class="edge"><title>NamedType-&gt;SaladRecordSchema</title><path fill="none" stroke="#000" d="M347.3995,-247.4506C330.2763,-211.6732 307.2065,-147.0607 337.5,-104 351.291,-84.3968 403.5704,-66.2331 450.5276,-53.3229"/><polygon fill="#000" stroke="#000" points="451.706 -56.63 460.451 -50.649 449.885 -49.871 451.706 -56.63"/></g><g id="node13" class="node"><title>Documentation</title><polygon fill="none" stroke="#000" points="460.5 -160.477 346.5 -160.477 346.5 -122.477 460.5 -122.477 460.5 -160.477"/><text x="403.5" y="-145.277" fill="#000" font-family="Times,serif" font-size="14" text-anchor="middle">Documentation</text><text x="354.5" y="-130.277" fill="#000" font-family="Times,serif" font-size="14" text-anchor="start">* type</text></g><g id="edge8" class="edge"><title>NamedType-&gt;Documentation</title><path fill="none" stroke="#000" d="M369.9993,-246.8973C377.0667,-224.6577 387.1039,-193.0723 394.3468,-170.2802"/><polygon fill="#000" stroke="#000" points="397.764 -171.082 397.457 -160.492 391.093 -168.962 397.764 -171.082"/></g><g id="node4" class="node"><title>DocType</title><ellipse cx="607.5" cy="-273.643" fill="none" stroke="#000" rx="70.007" ry="58.88"/><text x="607.5" y="-299.943" fill="#000" font-family="Times,serif" font-size="14" text-anchor="middle">DocType</text><text x="566" y="-284.943" fill="#000" font-family="Times,serif" font-size="14" text-anchor="start">* doc</text><text x="566" y="-269.943" fill="#000" font-family="Times,serif" font-size="14" text-anchor="start">* docParent</text><text x="566" y="-254.943" fill="#000" font-family="Times,serif" font-size="14" text-anchor="start">* docChild</text><text x="566" y="-239.943" fill="#000" font-family="Times,serif" font-size="14" text-anchor="start">* docAfter</text></g><g id="node5" class="node"><title>SchemaDefinedType</title><ellipse cx="705.5" cy="-141.477" fill="none" stroke="#000" rx="101.647" ry="37.453"/><text x="705.5" y="-152.777" fill="#000" font-family="Times,serif" font-size="14" text-anchor="middle">SchemaDefinedType</text><text x="641.5" y="-137.777" fill="#000" font-family="Times,serif" font-size="14" text-anchor="start">* jsonldPredicate</text><text x="641.5" y="-122.777" fill="#000" font-family="Times,serif" font-size="14" text-anchor="start">* documentRoot</text></g><g id="edge1" class="edge"><title>DocType-&gt;SchemaDefinedType</title><path fill="none" stroke="#000" d="M644.5496,-223.6767C653.7099,-211.3228 663.4636,-198.1685 672.4209,-186.0883"/><polygon fill="#000" stroke="#000" points="675.333 -188.037 678.478 -177.92 669.71 -183.868 675.333 -188.037"/></g><g id="edge9" class="edge"><title>DocType-&gt;Documentation</title><path fill="none" stroke="#000" d="M552.0256,-237.7027C516.8678,-214.9248 472.3244,-186.0663 441.2291,-165.9204"/><polygon fill="#000" stroke="#000" points="443.13 -162.982 432.834 -160.482 439.324 -168.856 443.13 -162.982"/></g><g id="edge5" class="edge"><title>SchemaDefinedType-&gt;SaladRecordSchema</title><path fill="none" stroke="#000" d="M653.5943,-109.2301C635.4694,-97.97 614.9182,-85.2025 595.9598,-73.4245"/><polygon fill="#000" stroke="#000" points="597.717 -70.396 587.376 -68.092 594.023 -76.342 597.717 -70.396"/></g><g id="node11" class="node"><title>SaladEnumSchema</title><polygon fill="none" stroke="#000" points="853 -53 724 -53 724 -15 853 -15 853 -53"/><text x="788.5" y="-37.8" fill="#000" font-family="Times,serif" font-size="14" text-anchor="middle">SaladEnumSchema</text><text x="732" y="-22.8" fill="#000" font-family="Times,serif" font-size="14" text-anchor="start">* extends</text></g><g id="edge7" class="edge"><title>SchemaDefinedType-&gt;SaladEnumSchema</title><path fill="none" stroke="#000" d="M733.3687,-105.3895C744.5227,-90.9461 757.1547,-74.5891 767.5104,-61.1794"/><polygon fill="#000" stroke="#000" points="770.288 -63.308 773.631 -53.254 764.748 -59.03 770.288 -63.308"/></g><g id="node6" class="node"><title>RecordField</title><polygon fill="none" stroke="#000" points="1057 -307.643 958 -307.643 958 -239.643 1057 -239.643 1057 -307.643"/><text x="1007.5" y="-292.443" fill="#000" font-family="Times,serif" font-size="14" text-anchor="middle">RecordField</text><text x="966" y="-277.443" fill="#000" font-family="Times,serif" font-size="14" text-anchor="start">* name</text><text x="966" y="-262.443" fill="#000" font-family="Times,serif" font-size="14" text-anchor="start">* doc</text><text x="966" y="-247.443" fill="#000" font-family="Times,serif" font-size="14" text-anchor="start">* type</text></g><g id="node7" class="node"><title>SaladRecordField</title><polygon fill="none" stroke="#000" points="1079.5 -160.477 935.5 -160.477 935.5 -122.477 1079.5 -122.477 1079.5 -160.477"/><text x="1007.5" y="-145.277" fill="#000" font-family="Times,serif" font-size="14" text-anchor="middle">SaladRecordField</text><text x="943.5" y="-130.277" fill="#000" font-family="Times,serif" font-size="14" text-anchor="start">* jsonldPredicate</text></g><g id="edge2" class="edge"><title>RecordField-&gt;SaladRecordField</title><path fill="none" stroke="#000" d="M1007.5,-239.607C1007.5,-218.342 1007.5,-191.2352 1007.5,-170.9019"/><polygon fill="#000" stroke="#000" points="1011 -170.668 1007.5 -160.668 1004 -170.668 1011 -170.668"/></g><g id="node8" class="node"><title>RecordSchema</title><polygon fill="none" stroke="#000" points="586 -167.977 479 -167.977 479 -114.977 586 -114.977 586 -167.977"/><text x="532.5" y="-152.777" fill="#000" font-family="Times,serif" font-size="14" text-anchor="middle">RecordSchema</text><text x="487" y="-137.777" fill="#000" font-family="Times,serif" font-size="14" text-anchor="start">* type</text><text x="487" y="-122.777" fill="#000" font-family="Times,serif" font-size="14" text-anchor="start">* fields</text></g><g id="edge4" class="edge"><title>RecordSchema-&gt;SaladRecordSchema</title><path fill="none" stroke="#000" d="M532.5,-114.9094C532.5,-103.9339 532.5,-90.9064 532.5,-78.5474"/><polygon fill="#000" stroke="#000" points="536 -78.383 532.5 -68.383 529 -78.383 536 -78.383"/></g><g id="node10" class="node"><title>EnumSchema</title><polygon fill="none" stroke="#000" points="917.5 -167.977 825.5 -167.977 825.5 -114.977 917.5 -114.977 917.5 -167.977"/><text x="871.5" y="-152.777" fill="#000" font-family="Times,serif" font-size="14" text-anchor="middle">EnumSchema</text><text x="833.5" y="-137.777" fill="#000" font-family="Times,serif" font-size="14" text-anchor="start">* type</text><text x="833.5" y="-122.777" fill="#000" font-family="Times,serif" font-size="14" text-anchor="start">* symbols</text></g><g id="edge6" class="edge"><title>EnumSchema-&gt;SaladEnumSchema</title><path fill="none" stroke="#000" d="M850.9831,-114.9094C838.3923,-98.6055 822.3045,-77.7734 809.6065,-61.3308"/><polygon fill="#000" stroke="#000" points="812.194 -58.955 803.312 -53.18 806.654 -63.234 812.194 -58.955"/></g><g id="node12" class="node"><title>ArraySchema</title><polygon fill="none" stroke="#000" points="1174 -300.143 1075 -300.143 1075 -247.143 1174 -247.143 1174 -300.143"/><text x="1124.5" y="-284.943" fill="#000" font-family="Times,serif" font-size="14" text-anchor="middle">ArraySchema</text><text x="1083" y="-269.943" fill="#000" font-family="Times,serif" font-size="14" text-anchor="start">* type</text><text x="1083" y="-254.943" fill="#000" font-family="Times,serif" font-size="14" text-anchor="start">* items</text></g></g></svg>