<?xml version="1.0" encoding="UTF-8" standalone="no"?>
<!DOCTYPE svg PUBLIC "-//W3C//DTD SVG 1.1//EN"
 "http://www.w3.org/Graphics/SVG/1.1/DTD/svg11.dtd">
<!-- Generated by graphviz version 7.0.2 (20221119.0110)
 -->
<!-- Pages: 1 -->
<svg width="1182pt" height="340pt"
 viewBox="0.00 0.00 1182.00 340.33" xmlns="http://www.w3.org/2000/svg" xmlns:xlink="http://www.w3.org/1999/xlink">
<g id="graph0" class="graph" transform="scale(1 1) rotate(0) translate(4 336.33)">
<polygon fill="white" stroke="none" points="-4,4 -4,-336.33 1178,-336.33 1178,4 -4,4"/>
<!-- JsonldPredicate -->
<g id="node1" class="node">
<title>JsonldPredicate</title>
<polygon fill="none" stroke="black" points="129,-322.64 0,-322.64 0,-224.64 129,-224.64 129,-322.64"/>
<text text-anchor="middle" x="64.5" y="-307.44" font-family="Times,serif" font-size="14.00">JsonldPredicate</text>
<text text-anchor="start" x="8" y="-292.44" font-family="Times,serif" font-size="14.00">* _id</text>
<text text-anchor="start" x="8" y="-277.44" font-family="Times,serif" font-size="14.00">* _type</text>
<text text-anchor="start" x="8" y="-262.44" font-family="Times,serif" font-size="14.00">* _container</text>
<text text-anchor="start" x="8" y="-247.44" font-family="Times,serif" font-size="14.00">* identity</text>
<text text-anchor="start" x="8" y="-232.44" font-family="Times,serif" font-size="14.00">* noLinkCheck</text>
</g>
<!-- SpecializeDef -->
<g id="node2" class="node">
<title>SpecializeDef</title>
<polygon fill="none" stroke="black" points="284,-300.14 147,-300.14 147,-247.14 284,-247.14 284,-300.14"/>
<text text-anchor="middle" x="215.5" y="-284.94" font-family="Times,serif" font-size="14.00">SpecializeDef</text>
<text text-anchor="start" x="155" y="-269.94" font-family="Times,serif" font-size="14.00">* specializeFrom</text>
<text text-anchor="start" x="155" y="-254.94" font-family="Times,serif" font-size="14.00">* specializeTo</text>
</g>
<!-- NamedType -->
<g id="node3" class="node">
<title>NamedType</title>
<ellipse fill="none" stroke="black" cx="361.5" cy="-273.64" rx="59.29" ry="26.74"/>
<text text-anchor="middle" x="361.5" y="-277.44" font-family="Times,serif" font-size="14.00">NamedType</text>
<text text-anchor="start" x="327.5" y="-262.44" font-family="Times,serif" font-size="14.00">* name</text>
</g>
<!-- SaladRecordSchema -->
<g id="node9" class="node">
<title>SaladRecordSchema</title>
<polygon fill="none" stroke="black" points="604.5,-68 460.5,-68 460.5,0 604.5,0 604.5,-68"/>
<text text-anchor="middle" x="532.5" y="-52.8" font-family="Times,serif" font-size="14.00">SaladRecordSchema</text>
<text text-anchor="start" x="468.5" y="-37.8" font-family="Times,serif" font-size="14.00">* abstract</text>
<text text-anchor="start" x="468.5" y="-22.8" font-family="Times,serif" font-size="14.00">* extends</text>
<text text-anchor="start" x="468.5" y="-7.8" font-family="Times,serif" font-size="14.00">* specialize</text>
</g>
<!-- NamedType&#45;&gt;SaladRecordSchema -->
<g id="edge3" class="edge">
<title>NamedType&#45;&gt;SaladRecordSchema</title>
<path fill="none" stroke="black" d="M347.71,-247.19C330.59,-211.73 307.11,-146.98 337.5,-104 362.85,-68.14 408.48,-50.8 449.22,-42.46"/>
<polygon fill="black" stroke="black" points="449.62,-45.95 458.8,-40.66 448.33,-39.07 449.62,-45.95"/>
</g>
<!-- Documentation -->
<g id="node13" class="node">
<title>Documentation</title>
<polygon fill="none" stroke="black" points="460.5,-160.48 346.5,-160.48 346.5,-122.48 460.5,-122.48 460.5,-160.48"/>
<text text-anchor="middle" x="403.5" y="-145.28" font-family="Times,serif" font-size="14.00">Documentation</text>
<text text-anchor="start" x="354.5" y="-130.28" font-family="Times,serif" font-size="14.00">* type</text>
</g>
<!-- NamedType&#45;&gt;Documentation -->
<g id="edge8" class="edge">
<title>NamedType&#45;&gt;Documentation</title>
<path fill="none" stroke="black" d="M369.8,-246.93C376.8,-225.22 386.82,-194.16 394.12,-171.56"/>
<polygon fill="black" stroke="black" points="397.45,-172.63 397.19,-162.04 390.79,-170.48 397.45,-172.63"/>
</g>
<!-- DocType -->
<g id="node4" class="node">
<title>DocType</title>
<ellipse fill="none" stroke="black" cx="607.5" cy="-273.64" rx="70.01" ry="58.88"/>
<text text-anchor="middle" x="607.5" y="-299.94" font-family="Times,serif" font-size="14.00">DocType</text>
<text text-anchor="start" x="566" y="-284.94" font-family="Times,serif" font-size="14.00">* doc</text>
<text text-anchor="start" x="566" y="-269.94" font-family="Times,serif" font-size="14.00">* docParent</text>
<text text-anchor="start" x="566" y="-254.94" font-family="Times,serif" font-size="14.00">* docChild</text>
<text text-anchor="start" x="566" y="-239.94" font-family="Times,serif" font-size="14.00">* docAfter</text>
</g>
<!-- SchemaDefinedType -->
<g id="node5" class="node">
<title>SchemaDefinedType</title>
<ellipse fill="none" stroke="black" cx="705.5" cy="-141.48" rx="101.65" ry="37.45"/>
<text text-anchor="middle" x="705.5" y="-152.78" font-family="Times,serif" font-size="14.00">SchemaDefinedType</text>
<text text-anchor="start" x="641.5" y="-137.78" font-family="Times,serif" font-size="14.00">* jsonldPredicate</text>
<text text-anchor="start" x="641.5" y="-122.78" font-family="Times,serif" font-size="14.00">* documentRoot</text>
</g>
<!-- DocType&#45;&gt;SchemaDefinedType -->
<g id="edge1" class="edge">
<title>DocType&#45;&gt;SchemaDefinedType</title>
<path fill="none" stroke="black" d="M644.55,-223.43C653.53,-211.5 663.08,-198.82 671.9,-187.11"/>
<polygon fill="black" stroke="black" points="674.65,-189.27 677.87,-179.18 669.06,-185.06 674.65,-189.27"/>
</g>
<!-- DocType&#45;&gt;Documentation -->
<g id="edge9" class="edge">
<title>DocType&#45;&gt;Documentation</title>
<path fill="none" stroke="black" d="M552.03,-237.25C517.11,-214.97 472.93,-186.78 441.86,-166.95"/>
<polygon fill="black" stroke="black" points="443.85,-164.07 433.54,-161.65 440.09,-169.97 443.85,-164.07"/>
</g>
<!-- SchemaDefinedType&#45;&gt;SaladRecordSchema -->
<g id="edge5" class="edge">
<title>SchemaDefinedType&#45;&gt;SaladRecordSchema</title>
<path fill="none" stroke="black" d="M653.59,-108.83C635.8,-97.98 615.66,-85.7 596.99,-74.32"/>
<polygon fill="black" stroke="black" points="599.03,-71.46 588.67,-69.25 595.38,-77.44 599.03,-71.46"/>
</g>
<!-- SaladEnumSchema -->
<g id="node11" class="node">
<title>SaladEnumSchema</title>
<polygon fill="none" stroke="black" points="853,-53 724,-53 724,-15 853,-15 853,-53"/>
<text text-anchor="middle" x="788.5" y="-37.8" font-family="Times,serif" font-size="14.00">SaladEnumSchema</text>
<text text-anchor="start" x="732" y="-22.8" font-family="Times,serif" font-size="14.00">* extends</text>
</g>
<!-- SchemaDefinedType&#45;&gt;SaladEnumSchema -->
<g id="edge7" class="edge">
<title>SchemaDefinedType&#45;&gt;SaladEnumSchema</title>
<path fill="none" stroke="black" d="M733.37,-105.06C744.36,-91.09 756.78,-75.31 767.05,-62.26"/>
<polygon fill="black" stroke="black" points="769.73,-64.52 773.16,-54.49 764.23,-60.19 769.73,-64.52"/>
</g>
<!-- RecordField -->
<g id="node6" class="node">
<title>RecordField</title>
<polygon fill="none" stroke="black" points="1057,-307.64 958,-307.64 958,-239.64 1057,-239.64 1057,-307.64"/>
<text text-anchor="middle" x="1007.5" y="-292.44" font-family="Times,serif" font-size="14.00">RecordField</text>
<text text-anchor="start" x="966" y="-277.44" font-family="Times,serif" font-size="14.00">* name</text>
<text text-anchor="start" x="966" y="-262.44" font-family="Times,serif" font-size="14.00">* doc</text>
<text text-anchor="start" x="966" y="-247.44" font-family="Times,serif" font-size="14.00">* type</text>
</g>
<!-- SaladRecordField -->
<g id="node7" class="node">
<title>SaladRecordField</title>
<polygon fill="none" stroke="black" points="1079.5,-160.48 935.5,-160.48 935.5,-122.48 1079.5,-122.48 1079.5,-160.48"/>
<text text-anchor="middle" x="1007.5" y="-145.28" font-family="Times,serif" font-size="14.00">SaladRecordField</text>
<text text-anchor="start" x="943.5" y="-130.28" font-family="Times,serif" font-size="14.00">* jsonldPredicate</text>
</g>
<!-- RecordField&#45;&gt;SaladRecordField -->
<g id="edge2" class="edge">
<title>RecordField&#45;&gt;SaladRecordField</title>
<path fill="none" stroke="black" d="M1007.5,-239.46C1007.5,-218.65 1007.5,-192.07 1007.5,-172"/>
<polygon fill="black" stroke="black" points="1011,-172.25 1007.5,-162.25 1004,-172.25 1011,-172.25"/>
</g>
<!-- RecordSchema -->
<g id="node8" class="node">
<title>RecordSchema</title>
<polygon fill="none" stroke="black" points="586,-167.98 479,-167.98 479,-114.98 586,-114.98 586,-167.98"/>
<text text-anchor="middle" x="532.5" y="-152.78" font-family="Times,serif" font-size="14.00">RecordSchema</text>
<text text-anchor="start" x="487" y="-137.78" font-family="Times,serif" font-size="14.00">* type</text>
<text text-anchor="start" x="487" y="-122.78" font-family="Times,serif" font-size="14.00">* fields</text>
</g>
<!-- RecordSchema&#45;&gt;SaladRecordSchema -->
<g id="edge4" class="edge">
<title>RecordSchema&#45;&gt;SaladRecordSchema</title>
<path fill="none" stroke="black" d="M532.5,-114.67C532.5,-104.04 532.5,-91.42 532.5,-79.39"/>
<polygon fill="black" stroke="black" points="536,-79.63 532.5,-69.63 529,-79.63 536,-79.63"/>
</g>
<!-- EnumSchema -->
<g id="node10" class="node">
<title>EnumSchema</title>
<polygon fill="none" stroke="black" points="917.5,-167.98 825.5,-167.98 825.5,-114.98 917.5,-114.98 917.5,-167.98"/>
<text text-anchor="middle" x="871.5" y="-152.78" font-family="Times,serif" font-size="14.00">EnumSchema</text>
<text text-anchor="start" x="833.5" y="-137.78" font-family="Times,serif" font-size="14.00">* type</text>
<text text-anchor="start" x="833.5" y="-122.78" font-family="Times,serif" font-size="14.00">* symbols</text>
</g>
<!-- EnumSchema&#45;&gt;SaladEnumSchema -->
<g id="edge6" class="edge">
<title>EnumSchema&#45;&gt;SaladEnumSchema</title>
<path fill="none" stroke="black" d="M851.2,-114.67C838.68,-98.77 822.65,-78.39 809.93,-62.23"/>
<polygon fill="black" stroke="black" points="812.74,-60.15 803.81,-54.45 807.24,-64.48 812.74,-60.15"/>
</g>
<!-- ArraySchema -->
<g id="node12" class="node">
<title>ArraySchema</title>
<polygon fill="none" stroke="black" points="1174,-300.14 1075,-300.14 1075,-247.14 1174,-247.14 1174,-300.14"/>
<text text-anchor="middle" x="1124.5" y="-284.94" font-family="Times,serif" font-size="14.00">ArraySchema</text>
<text text-anchor="start" x="1083" y="-269.94" font-family="Times,serif" font-size="14.00">* type</text>
<text text-anchor="start" x="1083" y="-254.94" font-family="Times,serif" font-size="14.00">* items</text>
</g>
</g>
</svg>
