<?xml version="1.0" encoding="UTF-8" standalone="no"?>
<!DOCTYPE svg PUBLIC "-//W3C//DTD SVG 1.1//EN"
 "http://www.w3.org/Graphics/SVG/1.1/DTD/svg11.dtd">
<!-- Generated by graphviz version 3.0.0 (20221109.1736)
 -->
<!-- Pages: 1 -->
<svg width="1182pt" height="340pt"
 viewBox="0.00 0.00 1182.00 340.33" xmlns="http://www.w3.org/2000/svg" xmlns:xlink="http://www.w3.org/1999/xlink">
<g id="graph0" class="graph" transform="scale(1 1) rotate(0) translate(4 336.33)">
<polygon fill="white" stroke="transparent" points="-4,4 -4,-336.33 1178,-336.33 1178,4 -4,4"/>
<!-- JsonldPredicate -->
<g id="node1" class="node">
<title>JsonldPredicate</title>
<polygon fill="none" stroke="black" points="129,-322.64 0,-322.64 0,-224.64 129,-224.64 129,-322.64"/>
<text text-anchor="middle" x="64.5" y="-307.44" font-family="Times,serif" font-size="14.00">JsonldPredicate</text>
<text text-anchor="start" x="8" y="-292.44" font-family="Times,serif" font-size="14.00">* _id</text>
<text text-anchor="start" x="8" y="-277.44" font-family="Times,serif" font-size="14.00">* _type</text>
<text text-anchor="start" x="8" y="-262.44" font-family="Times,serif" font-size="14.00">* _container</text>
<text text-anchor="start" x="8" y="-247.44" font-family="Times,serif" font-size="14.00">* identity</text>
<text text-anchor="start" x="8" y="-232.44" font-family="Times,serif" font-size="14.00">* noLinkCheck</text>
</g>
<!-- SpecializeDef -->
<g id="node2" class="node">
<title>SpecializeDef</title>
<polygon fill="none" stroke="black" points="284,-300.14 147,-300.14 147,-247.14 284,-247.14 284,-300.14"/>
<text text-anchor="middle" x="215.5" y="-284.94" font-family="Times,serif" font-size="14.00">SpecializeDef</text>
<text text-anchor="start" x="155" y="-269.94" font-family="Times,serif" font-size="14.00">* specializeFrom</text>
<text text-anchor="start" x="155" y="-254.94" font-family="Times,serif" font-size="14.00">* specializeTo</text>
</g>
<!-- NamedType -->
<g id="node3" class="node">
<title>NamedType</title>
<ellipse fill="none" stroke="black" cx="361.5" cy="-273.64" rx="59.29" ry="26.74"/>
<text text-anchor="middle" x="361.5" y="-277.44" font-family="Times,serif" font-size="14.00">NamedType</text>
<text text-anchor="start" x="327.5" y="-262.44" font-family="Times,serif" font-size="14.00">* name</text>
</g>
<!-- SaladRecordSchema -->
<g id="node9" class="node">
<title>SaladRecordSchema</title>
<polygon fill="none" stroke="black" points="604.5,-68 460.5,-68 460.5,0 604.5,0 604.5,-68"/>
<text text-anchor="middle" x="532.5" y="-52.8" font-family="Times,serif" font-size="14.00">SaladRecordSchema</text>
<text text-anchor="start" x="468.5" y="-37.8" font-family="Times,serif" font-size="14.00">* abstract</text>
<text text-anchor="start" x="468.5" y="-22.8" font-family="Times,serif" font-size="14.00">* extends</text>
<text text-anchor="start" x="468.5" y="-7.8" font-family="Times,serif" font-size="14.00">* specialize</text>
</g>
<!-- NamedType&#45;&gt;SaladRecordSchema -->
<g id="edge3" class="edge">
<title>NamedType&#45;&gt;SaladRecordSchema</title>
<path fill="none" stroke="black" d="M347.86,-247.49C330.72,-212.09 307.03,-147.11 337.5,-104 363.07,-67.83 409.26,-50.5 450.27,-42.25"/>
<polygon fill="black" stroke="black" points="451.1,-45.65 460.29,-40.39 449.82,-38.77 451.1,-45.65"/>
</g>
<!-- Documentation -->
<g id="node13" class="node">
<title>Documentation</title>
<polygon fill="none" stroke="black" points="460.5,-160.48 346.5,-160.48 346.5,-122.48 460.5,-122.48 460.5,-160.48"/>
<text text-anchor="middle" x="403.5" y="-145.28" font-family="Times,serif" font-size="14.00">Documentation</text>
<text text-anchor="start" x="354.5" y="-130.28" font-family="Times,serif" font-size="14.00">* type</text>
</g>
<!-- NamedType&#45;&gt;Documentation -->
<g id="edge8" class="edge">
<title>NamedType&#45;&gt;Documentation</title>
<path fill="none" stroke="black" d="M369.8,-246.93C376.93,-224.82 387.19,-193.02 394.52,-170.32"/>
<polygon fill="black" stroke="black" points="397.91,-171.19 397.65,-160.6 391.25,-169.04 397.91,-171.19"/>
</g>
<!-- DocType -->
<g id="node4" class="node">
<title>DocType</title>
<ellipse fill="none" stroke="black" cx="607.5" cy="-273.64" rx="70.01" ry="58.88"/>
<text text-anchor="middle" x="607.5" y="-299.94" font-family="Times,serif" font-size="14.00">DocType</text>
<text text-anchor="start" x="566" y="-284.94" font-family="Times,serif" font-size="14.00">* doc</text>
<text text-anchor="start" x="566" y="-269.94" font-family="Times,serif" font-size="14.00">* docParent</text>
<text text-anchor="start" x="566" y="-254.94" font-family="Times,serif" font-size="14.00">* docChild</text>
<text text-anchor="start" x="566" y="-239.94" font-family="Times,serif" font-size="14.00">* docAfter</text>
</g>
<!-- SchemaDefinedType -->
<g id="node5" class="node">
<title>SchemaDefinedType</title>
<ellipse fill="none" stroke="black" cx="705.5" cy="-141.48" rx="101.65" ry="37.45"/>
<text text-anchor="middle" x="705.5" y="-152.78" font-family="Times,serif" font-size="14.00">SchemaDefinedType</text>
<text text-anchor="start" x="641.5" y="-137.78" font-family="Times,serif" font-size="14.00">* jsonldPredicate</text>
<text text-anchor="start" x="641.5" y="-122.78" font-family="Times,serif" font-size="14.00">* documentRoot</text>
</g>
<!-- DocType&#45;&gt;SchemaDefinedType -->
<g id="edge1" class="edge">
<title>DocType&#45;&gt;SchemaDefinedType</title>
<path fill="none" stroke="black" d="M644.55,-223.43C653.8,-211.15 663.65,-198.06 672.68,-186.07"/>
<polygon fill="black" stroke="black" points="675.56,-188.06 678.78,-177.97 669.97,-183.85 675.56,-188.06"/>
</g>
<!-- DocType&#45;&gt;Documentation -->
<g id="edge9" class="edge">
<title>DocType&#45;&gt;Documentation</title>
<path fill="none" stroke="black" d="M552.29,-237.42C516.85,-214.8 471.79,-186.05 440.59,-166.14"/>
<polygon fill="black" stroke="black" points="442.09,-162.95 431.78,-160.52 438.32,-168.85 442.09,-162.95"/>
</g>
<!-- SchemaDefinedType&#45;&gt;SaladRecordSchema -->
<g id="edge5" class="edge">
<title>SchemaDefinedType&#45;&gt;SaladRecordSchema</title>
<path fill="none" stroke="black" d="M654.06,-109.12C635.67,-97.9 614.72,-85.13 595.46,-73.39"/>
<polygon fill="black" stroke="black" points="597.11,-70.29 586.75,-68.07 593.46,-76.27 597.11,-70.29"/>
</g>
<!-- SaladEnumSchema -->
<g id="node11" class="node">
<title>SaladEnumSchema</title>
<polygon fill="none" stroke="black" points="853,-53 724,-53 724,-15 853,-15 853,-53"/>
<text text-anchor="middle" x="788.5" y="-37.8" font-family="Times,serif" font-size="14.00">SaladEnumSchema</text>
<text text-anchor="start" x="732" y="-22.8" font-family="Times,serif" font-size="14.00">* extends</text>
</g>
<!-- SchemaDefinedType&#45;&gt;SaladEnumSchema -->
<g id="edge7" class="edge">
<title>SchemaDefinedType&#45;&gt;SaladEnumSchema</title>
<path fill="none" stroke="black" d="M733.14,-105.35C744.54,-90.86 757.52,-74.37 768.05,-60.99"/>
<polygon fill="black" stroke="black" points="770.81,-63.14 774.25,-53.11 765.31,-58.81 770.81,-63.14"/>
</g>
<!-- RecordField -->
<g id="node6" class="node">
<title>RecordField</title>
<polygon fill="none" stroke="black" points="1057,-307.64 958,-307.64 958,-239.64 1057,-239.64 1057,-307.64"/>
<text text-anchor="middle" x="1007.5" y="-292.44" font-family="Times,serif" font-size="14.00">RecordField</text>
<text text-anchor="start" x="966" y="-277.44" font-family="Times,serif" font-size="14.00">* name</text>
<text text-anchor="start" x="966" y="-262.44" font-family="Times,serif" font-size="14.00">* doc</text>
<text text-anchor="start" x="966" y="-247.44" font-family="Times,serif" font-size="14.00">* type</text>
</g>
<!-- SaladRecordField -->
<g id="node7" class="node">
<title>SaladRecordField</title>
<polygon fill="none" stroke="black" points="1079.5,-160.48 935.5,-160.48 935.5,-122.48 1079.5,-122.48 1079.5,-160.48"/>
<text text-anchor="middle" x="1007.5" y="-145.28" font-family="Times,serif" font-size="14.00">SaladRecordField</text>
<text text-anchor="start" x="943.5" y="-130.28" font-family="Times,serif" font-size="14.00">* jsonldPredicate</text>
</g>
<!-- RecordField&#45;&gt;SaladRecordField -->
<g id="edge2" class="edge">
<title>RecordField&#45;&gt;SaladRecordField</title>
<path fill="none" stroke="black" d="M1007.5,-239.46C1007.5,-218.26 1007.5,-191.07 1007.5,-170.87"/>
<polygon fill="black" stroke="black" points="1011,-170.74 1007.5,-160.74 1004,-170.74 1011,-170.74"/>
</g>
<!-- RecordSchema -->
<g id="node8" class="node">
<title>RecordSchema</title>
<polygon fill="none" stroke="black" points="586,-167.98 479,-167.98 479,-114.98 586,-114.98 586,-167.98"/>
<text text-anchor="middle" x="532.5" y="-152.78" font-family="Times,serif" font-size="14.00">RecordSchema</text>
<text text-anchor="start" x="487" y="-137.78" font-family="Times,serif" font-size="14.00">* type</text>
<text text-anchor="start" x="487" y="-122.78" font-family="Times,serif" font-size="14.00">* fields</text>
</g>
<!-- RecordSchema&#45;&gt;SaladRecordSchema -->
<g id="edge4" class="edge">
<title>RecordSchema&#45;&gt;SaladRecordSchema</title>
<path fill="none" stroke="black" d="M532.5,-114.94C532.5,-103.99 532.5,-90.88 532.5,-78.47"/>
<polygon fill="black" stroke="black" points="536,-78.28 532.5,-68.28 529,-78.28 536,-78.28"/>
</g>
<!-- EnumSchema -->
<g id="node10" class="node">
<title>EnumSchema</title>
<polygon fill="none" stroke="black" points="917.5,-167.98 825.5,-167.98 825.5,-114.98 917.5,-114.98 917.5,-167.98"/>
<text text-anchor="middle" x="871.5" y="-152.78" font-family="Times,serif" font-size="14.00">EnumSchema</text>
<text text-anchor="start" x="833.5" y="-137.78" font-family="Times,serif" font-size="14.00">* type</text>
<text text-anchor="start" x="833.5" y="-122.78" font-family="Times,serif" font-size="14.00">* symbols</text>
</g>
<!-- EnumSchema&#45;&gt;SaladEnumSchema -->
<g id="edge6" class="edge">
<title>EnumSchema&#45;&gt;SaladEnumSchema</title>
<path fill="none" stroke="black" d="M851.41,-114.94C838.58,-98.64 821.99,-77.56 809.07,-61.14"/>
<polygon fill="black" stroke="black" points="811.62,-58.73 802.69,-53.03 806.12,-63.05 811.62,-58.73"/>
</g>
<!-- ArraySchema -->
<g id="node12" class="node">
<title>ArraySchema</title>
<polygon fill="none" stroke="black" points="1174,-300.14 1075,-300.14 1075,-247.14 1174,-247.14 1174,-300.14"/>
<text text-anchor="middle" x="1124.5" y="-284.94" font-family="Times,serif" font-size="14.00">ArraySchema</text>
<text text-anchor="start" x="1083" y="-269.94" font-family="Times,serif" font-size="14.00">* type</text>
<text text-anchor="start" x="1083" y="-254.94" font-family="Times,serif" font-size="14.00">* items</text>
</g>
</g>
</svg>
