<?xml version="1.0" encoding="UTF-8" standalone="no"?>
<!DOCTYPE svg PUBLIC "-//W3C//DTD SVG 1.1//EN"
 "http://www.w3.org/Graphics/SVG/1.1/DTD/svg11.dtd">
<!-- Generated by graphviz version 8.0.5 (20230430.1635)
 -->
<!-- Pages: 1 -->
<svg width="1176pt" height="2571360pt"
 viewBox="0.00 0.00 1175.50 2571359.88" xmlns="http://www.w3.org/2000/svg" xmlns:xlink="http://www.w3.org/1999/xlink">
<g id="graph0" class="graph" transform="scale(1 1) rotate(0) translate(4 2571355.88)">
<polygon fill="white" stroke="none" points="-4,4 -4,-2571355.88 1171.5,-2571355.88 1171.5,4 -4,4"/>
<!-- JsonldPredicate -->
<g id="node1" class="node">
<title>JsonldPredicate</title>
<polygon fill="none" stroke="black" points="128.5,-2235573.26 0,-2235573.26 0,-2235502.26 128.5,-2235502.26 128.5,-2235573.26"/>
<text text-anchor="middle" x="64.25" y="-2235555.96" font-family="Times,serif" font-size="14.00">JsonldPredicate</text>
<text text-anchor="start" x="8" y="-2235545.46" font-family="Times,serif" font-size="14.00">* _id</text>
<text text-anchor="start" x="8" y="-2235534.96" font-family="Times,serif" font-size="14.00">* _type</text>
<text text-anchor="start" x="8" y="-2235524.46" font-family="Times,serif" font-size="14.00">* _container</text>
<text text-anchor="start" x="8" y="-2235513.96" font-family="Times,serif" font-size="14.00">* identity</text>
<text text-anchor="start" x="8" y="-2235503.46" font-family="Times,serif" font-size="14.00">* noLinkCheck</text>
</g>
<!-- SpecializeDef -->
<g id="node2" class="node">
<title>SpecializeDef</title>
<polygon fill="none" stroke="black" points="282.25,-2571265.97 146.25,-2571265.97 146.25,-1899809.55 282.25,-1899809.55 282.25,-2571265.97"/>
<text text-anchor="middle" x="214.25" y="-2571248.67" font-family="Times,serif" font-size="14.00">SpecializeDef</text>
<text text-anchor="start" x="154.25" y="-1899828.75" font-family="Times,serif" font-size="14.00">* specializeFrom</text>
<text text-anchor="start" x="154.25" y="-1899810.75" font-family="Times,serif" font-size="14.00">* specializeTo</text>
</g>
<!-- NamedType -->
<g id="node3" class="node">
<title>NamedType</title>
<ellipse fill="none" stroke="black" cx="359.25" cy="-2235537.76" rx="59.04" ry="25.81"/>
<text text-anchor="middle" x="359.25" y="-2235538.71" font-family="Times,serif" font-size="14.00">NamedType</text>
<text text-anchor="start" x="325.5" y="-2235528.21" font-family="Times,serif" font-size="14.00">* name</text>
</g>
<!-- SaladRecordSchema -->
<g id="node9" class="node">
<title>SaladRecordSchema</title>
<polygon fill="none" stroke="black" points="601,-57.5 457.5,-57.5 457.5,0 601,0 601,-57.5"/>
<text text-anchor="middle" x="529.25" y="-40.2" font-family="Times,serif" font-size="14.00">SaladRecordSchema</text>
<text text-anchor="start" x="465.5" y="-22.2" font-family="Times,serif" font-size="14.00">* abstract</text>
<text text-anchor="start" x="465.5" y="-11.7" font-family="Times,serif" font-size="14.00">* extends</text>
<text text-anchor="start" x="465.5" y="-1.2" font-family="Times,serif" font-size="14.00">* specialize</text>
</g>
<!-- NamedType&#45;&gt;SaladRecordSchema -->
<g id="edge3" class="edge">
<title>NamedType&#45;&gt;SaladRecordSchema</title>
<path fill="none" stroke="black" d="M359.25,-2235511.59C359,-2233033.05 340.55,-2047951.76 335.25,-1899687.64 335.25,-1899687.64 335.25,-93.5 335.25,-93.5 360.63,-58.44 405.93,-42.32 446.37,-35.05"/>
<polygon fill="black" stroke="black" points="446.77,-38.37 456.08,-33.31 445.65,-31.46 446.77,-38.37"/>
</g>
<!-- Documentation -->
<g id="node13" class="node">
<title>Documentation</title>
<polygon fill="none" stroke="black" points="458,-949908.57 344.5,-949908.57 344.5,-949872.57 458,-949872.57 458,-949908.57"/>
<text text-anchor="middle" x="401.25" y="-949887.77" font-family="Times,serif" font-size="14.00">Documentation</text>
<text text-anchor="start" x="352.5" y="-949877.27" font-family="Times,serif" font-size="14.00">* type</text>
</g>
<!-- NamedType&#45;&gt;Documentation -->
<g id="edge8" class="edge">
<title>NamedType&#45;&gt;Documentation</title>
<path fill="none" stroke="black" d="M359.25,-2235511.45C359.46,-2228971.57 401.02,-956827.05 401.25,-949919.8"/>
<polygon fill="black" stroke="black" points="404.75,-949920.05 401.25,-949910.05 397.75,-949920.05 404.75,-949920.05"/>
</g>
<!-- DocType -->
<g id="node4" class="node">
<title>DocType</title>
<ellipse fill="none" stroke="black" cx="604.25" cy="-2235537.76" rx="69.65" ry="42.84"/>
<text text-anchor="middle" x="604.25" y="-2235550.75" font-family="Times,serif" font-size="14.00">DocType</text>
<text text-anchor="start" x="563" y="-2235540.25" font-family="Times,serif" font-size="14.00">* doc</text>
<text text-anchor="start" x="563" y="-2235529.75" font-family="Times,serif" font-size="14.00">* docParent</text>
<text text-anchor="start" x="563" y="-2235519.16" font-family="Times,serif" font-size="14.00">* docChild</text>
<text text-anchor="start" x="563" y="-2235508.66" font-family="Times,serif" font-size="14.00">* docAfter</text>
</g>
<!-- SchemaDefinedType -->
<g id="node5" class="node">
<title>SchemaDefinedType</title>
<ellipse fill="none" stroke="black" cx="701.25" cy="-949890.57" rx="101.47" ry="949797.07"/>
<text text-anchor="middle" x="701.25" y="-1621481.21" font-family="Times,serif" font-size="14.00">SchemaDefinedType</text>
<text text-anchor="start" x="637.5" y="-1621470.71" font-family="Times,serif" font-size="14.00">* jsonldPredicate</text>
<text text-anchor="start" x="637.5" y="-949853.88" font-family="Times,serif" font-size="14.00">* documentRoot</text>
</g>
<!-- DocType&#45;&gt;SchemaDefinedType -->
<g id="edge1" class="edge">
<title>DocType&#45;&gt;SchemaDefinedType</title>
<path fill="none" stroke="black" d="M604.25,-2235494.56C604.53,-2231874.55 622.34,-1995833.93 642.62,-1726995.33"/>
<polygon fill="black" stroke="black" points="646.12,-1726995.56 642.62,-1726985.56 639.12,-1726995.56 646.12,-1726995.56"/>
</g>
<!-- DocType&#45;&gt;Documentation -->
<g id="edge9" class="edge">
<title>DocType&#45;&gt;Documentation</title>
<path fill="none" stroke="black" d="M604.23,-2235494.56C602.49,-2232293.97 502.57,-2047655.67 467.25,-1899687.64 366.91,-1479345.43 400.96,-954363.1 401.25,-949919.96"/>
<polygon fill="black" stroke="black" points="404.75,-949920.06 401.25,-949910.06 397.75,-949920.06 404.75,-949920.06"/>
</g>
<!-- SchemaDefinedType&#45;&gt;SaladRecordSchema -->
<g id="edge5" class="edge">
<title>SchemaDefinedType&#45;&gt;SaladRecordSchema</title>
<path fill="none" stroke="black" d="M675.24,-31517.41C652.66,-11463.37 624.97,-176.53 591.25,-93.5 587.15,-83.42 580.61,-74.05 573.28,-65.77"/>
<polygon fill="black" stroke="black" points="576.18,-63.7 566.75,-58.87 571.12,-68.53 576.18,-63.7"/>
</g>
<!-- SaladEnumSchema -->
<g id="node11" class="node">
<title>SaladEnumSchema</title>
<polygon fill="none" stroke="black" points="847.5,-46.75 719,-46.75 719,-10.75 847.5,-10.75 847.5,-46.75"/>
<text text-anchor="middle" x="783.25" y="-25.95" font-family="Times,serif" font-size="14.00">SaladEnumSchema</text>
<text text-anchor="start" x="727" y="-15.45" font-family="Times,serif" font-size="14.00">* extends</text>
</g>
<!-- SchemaDefinedType&#45;&gt;SaladEnumSchema -->
<g id="edge7" class="edge">
<title>SchemaDefinedType&#45;&gt;SaladEnumSchema</title>
<path fill="none" stroke="black" d="M765.15,-209708.13C775.58,-88933.93 783.09,-1848.93 783.25,-57.9"/>
<polygon fill="black" stroke="black" points="786.75,-58.05 783.25,-48.05 779.75,-58.05 786.75,-58.05"/>
</g>
<!-- RecordField -->
<g id="node6" class="node">
<title>RecordField</title>
<polygon fill="none" stroke="black" points="1050.5,-2571351.88 952,-2571351.88 952,-1899723.64 1050.5,-1899723.64 1050.5,-2571351.88"/>
<text text-anchor="middle" x="1001.25" y="-2571334.58" font-family="Times,serif" font-size="14.00">RecordField</text>
<text text-anchor="start" x="960" y="-1899753.34" font-family="Times,serif" font-size="14.00">* name</text>
<text text-anchor="start" x="960" y="-1899742.84" font-family="Times,serif" font-size="14.00">* doc</text>
<text text-anchor="start" x="960" y="-1899724.84" font-family="Times,serif" font-size="14.00">* type</text>
</g>
<!-- SaladRecordField -->
<g id="node7" class="node">
<title>SaladRecordField</title>
<polygon fill="none" stroke="black" points="1073,-949908.57 929.5,-949908.57 929.5,-949872.57 1073,-949872.57 1073,-949908.57"/>
<text text-anchor="middle" x="1001.25" y="-949887.77" font-family="Times,serif" font-size="14.00">SaladRecordField</text>
<text text-anchor="start" x="937.5" y="-949877.27" font-family="Times,serif" font-size="14.00">* jsonldPredicate</text>
</g>
<!-- RecordField&#45;&gt;SaladRecordField -->
<g id="edge2" class="edge">
<title>RecordField&#45;&gt;SaladRecordField</title>
<path fill="none" stroke="black" d="M1001.25,-1899723.26C1001.25,-1520353.46 1001.25,-954538.11 1001.25,-949920.02"/>
<polygon fill="black" stroke="black" points="1004.75,-949920.07 1001.25,-949910.07 997.75,-949920.07 1004.75,-949920.07"/>
</g>
<!-- RecordSchema -->
<g id="node8" class="node">
<title>RecordSchema</title>
<polygon fill="none" stroke="black" points="582.25,-949926.01 476.25,-949926.01 476.25,-949855.12 582.25,-949855.12 582.25,-949926.01"/>
<text text-anchor="middle" x="529.25" y="-949908.71" font-family="Times,serif" font-size="14.00">RecordSchema</text>
<text text-anchor="start" x="484.25" y="-949898.21" font-family="Times,serif" font-size="14.00">* type</text>
<text text-anchor="start" x="484.25" y="-949863.82" font-family="Times,serif" font-size="14.00">* fields</text>
</g>
<!-- RecordSchema&#45;&gt;SaladRecordSchema -->
<g id="edge4" class="edge">
<title>RecordSchema&#45;&gt;SaladRecordSchema</title>
<path fill="none" stroke="black" d="M529.25,-949854.86C529.25,-943287.58 529.25,-7037 529.25,-68.84"/>
<polygon fill="black" stroke="black" points="532.75,-68.92 529.25,-58.92 525.75,-68.92 532.75,-68.92"/>
</g>
<!-- EnumSchema -->
<g id="node10" class="node">
<title>EnumSchema</title>
<polygon fill="none" stroke="black" points="911.75,-949922.26 820.75,-949922.26 820.75,-949858.87 911.75,-949858.87 911.75,-949922.26"/>
<text text-anchor="middle" x="866.25" y="-949904.96" font-family="Times,serif" font-size="14.00">EnumSchema</text>
<text text-anchor="start" x="828.75" y="-949894.46" font-family="Times,serif" font-size="14.00">* type</text>
<text text-anchor="start" x="828.75" y="-949860.07" font-family="Times,serif" font-size="14.00">* symbols</text>
</g>
<!-- EnumSchema&#45;&gt;SaladEnumSchema -->
<g id="edge6" class="edge">
<title>EnumSchema&#45;&gt;SaladEnumSchema</title>
<path fill="none" stroke="black" d="M866.25,-949858.42C867,-943615.46 980.1,-897.71 811.25,-93.5 808.63,-81.04 803.43,-68.04 798.21,-57.05"/>
<polygon fill="black" stroke="black" points="800.89,-55.6 793.29,-48.22 794.64,-58.73 800.89,-55.6"/>
</g>
<!-- ArraySchema -->
<g id="node12" class="node">
<title>ArraySchema</title>
<polygon fill="none" stroke="black" points="1167.5,-2235569.45 1069,-2235569.45 1069,-2235506.06 1167.5,-2235506.06 1167.5,-2235569.45"/>
<text text-anchor="middle" x="1118.25" y="-2235552.15" font-family="Times,serif" font-size="14.00">ArraySchema</text>
<text text-anchor="start" x="1077" y="-2235541.65" font-family="Times,serif" font-size="14.00">* type</text>
<text text-anchor="start" x="1077" y="-2235507.26" font-family="Times,serif" font-size="14.00">* items</text>
</g>
</g>
</svg>
