<?xml version="1.0" encoding="UTF-8" standalone="no"?>
<!DOCTYPE svg PUBLIC "-//W3C//DTD SVG 1.1//EN"
 "http://www.w3.org/Graphics/SVG/1.1/DTD/svg11.dtd">
<!-- Generated by graphviz version 2.38.0 (20140413.2041)
 -->
<!-- Title: %3 Pages: 1 -->
<svg width="1182pt" height="340pt"
 viewBox="0.00 0.00 1182.00 340.33" xmlns="http://www.w3.org/2000/svg" xmlns:xlink="http://www.w3.org/1999/xlink">
<g id="graph0" class="graph" transform="scale(1 1) rotate(0) translate(4 336.333)">
<title>%3</title>
<polygon fill="white" stroke="none" points="-4,4 -4,-336.333 1178,-336.333 1178,4 -4,4"/>
<!-- JsonldPredicate -->
<g id="node1" class="node"><title>JsonldPredicate</title>
<polygon fill="none" stroke="black" points="129,-322.643 0,-322.643 0,-224.643 129,-224.643 129,-322.643"/>
<text text-anchor="middle" x="64.5" y="-307.443" font-family="Times,serif" font-size="14.00">JsonldPredicate</text>
<text text-anchor="start" x="8" y="-292.443" font-family="Times,serif" font-size="14.00">* _id</text>
<text text-anchor="start" x="8" y="-277.443" font-family="Times,serif" font-size="14.00">* _type</text>
<text text-anchor="start" x="8" y="-262.443" font-family="Times,serif" font-size="14.00">* _container</text>
<text text-anchor="start" x="8" y="-247.443" font-family="Times,serif" font-size="14.00">* identity</text>
<text text-anchor="start" x="8" y="-232.443" font-family="Times,serif" font-size="14.00">* noLinkCheck</text>
</g>
<!-- SpecializeDef -->
<g id="node2" class="node"><title>SpecializeDef</title>
<polygon fill="none" stroke="black" points="284,-300.143 147,-300.143 147,-247.143 284,-247.143 284,-300.143"/>
<text text-anchor="middle" x="215.5" y="-284.943" font-family="Times,serif" font-size="14.00">SpecializeDef</text>
<text text-anchor="start" x="155" y="-269.943" font-family="Times,serif" font-size="14.00">* specializeFrom</text>
<text text-anchor="start" x="155" y="-254.943" font-family="Times,serif" font-size="14.00">* specializeTo</text>
</g>
<!-- NamedType -->
<g id="node3" class="node"><title>NamedType</title>
<ellipse fill="none" stroke="black" cx="361.5" cy="-273.643" rx="59.2941" ry="26.7407"/>
<text text-anchor="middle" x="361.5" y="-277.443" font-family="Times,serif" font-size="14.00">NamedType</text>
<text text-anchor="start" x="327.5" y="-262.443" font-family="Times,serif" font-size="14.00">* name</text>
</g>
<!-- SaladRecordSchema -->
<g id="node9" class="node"><title>SaladRecordSchema</title>
<polygon fill="none" stroke="black" points="604.5,-68 460.5,-68 460.5,-0 604.5,-0 604.5,-68"/>
<text text-anchor="middle" x="532.5" y="-52.8" font-family="Times,serif" font-size="14.00">SaladRecordSchema</text>
<text text-anchor="start" x="468.5" y="-37.8" font-family="Times,serif" font-size="14.00">* abstract</text>
<text text-anchor="start" x="468.5" y="-22.8" font-family="Times,serif" font-size="14.00">* extends</text>
<text text-anchor="start" x="468.5" y="-7.8" font-family="Times,serif" font-size="14.00">* specialize</text>
</g>
<!-- NamedType&#45;&gt;SaladRecordSchema -->
<g id="edge3" class="edge"><title>NamedType&#45;&gt;SaladRecordSchema</title>
<path fill="none" stroke="black" d="M347.855,-247.485C330.719,-212.09 307.028,-147.106 337.5,-104 363.066,-67.8344 409.257,-50.5007 450.266,-42.2478"/>
<polygon fill="black" stroke="black" points="451.098,-45.6534 460.29,-40.3861 449.819,-38.771 451.098,-45.6534"/>
</g>
<!-- Documentation -->
<g id="node13" class="node"><title>Documentation</title>
<polygon fill="none" stroke="black" points="460.5,-160.477 346.5,-160.477 346.5,-122.477 460.5,-122.477 460.5,-160.477"/>
<text text-anchor="middle" x="403.5" y="-145.277" font-family="Times,serif" font-size="14.00">Documentation</text>
<text text-anchor="start" x="354.5" y="-130.277" font-family="Times,serif" font-size="14.00">* type</text>
</g>
<!-- NamedType&#45;&gt;Documentation -->
<g id="edge8" class="edge"><title>NamedType&#45;&gt;Documentation</title>
<path fill="none" stroke="black" d="M369.798,-246.926C376.929,-224.824 387.192,-193.02 394.515,-170.322"/>
<polygon fill="black" stroke="black" points="397.912,-171.193 397.652,-160.601 391.25,-169.044 397.912,-171.193"/>
</g>
<!-- DocType -->
<g id="node4" class="node"><title>DocType</title>
<ellipse fill="none" stroke="black" cx="607.5" cy="-273.643" rx="70.0071" ry="58.8803"/>
<text text-anchor="middle" x="607.5" y="-299.943" font-family="Times,serif" font-size="14.00">DocType</text>
<text text-anchor="start" x="566" y="-284.943" font-family="Times,serif" font-size="14.00">* doc</text>
<text text-anchor="start" x="566" y="-269.943" font-family="Times,serif" font-size="14.00">* docParent</text>
<text text-anchor="start" x="566" y="-254.943" font-family="Times,serif" font-size="14.00">* docChild</text>
<text text-anchor="start" x="566" y="-239.943" font-family="Times,serif" font-size="14.00">* docAfter</text>
</g>
<!-- SchemaDefinedType -->
<g id="node5" class="node"><title>SchemaDefinedType</title>
<ellipse fill="none" stroke="black" cx="705.5" cy="-141.477" rx="101.647" ry="37.4533"/>
<text text-anchor="middle" x="705.5" y="-152.777" font-family="Times,serif" font-size="14.00">SchemaDefinedType</text>
<text text-anchor="start" x="641.5" y="-137.777" font-family="Times,serif" font-size="14.00">* jsonldPredicate</text>
<text text-anchor="start" x="641.5" y="-122.777" font-family="Times,serif" font-size="14.00">* documentRoot</text>
</g>
<!-- DocType&#45;&gt;SchemaDefinedType -->
<g id="edge1" class="edge"><title>DocType&#45;&gt;SchemaDefinedType</title>
<path fill="none" stroke="black" d="M644.55,-223.433C653.798,-211.149 663.651,-198.061 672.679,-186.07"/>
<polygon fill="black" stroke="black" points="675.561,-188.061 678.78,-177.967 669.969,-183.851 675.561,-188.061"/>
</g>
<!-- DocType&#45;&gt;Documentation -->
<g id="edge9" class="edge"><title>DocType&#45;&gt;Documentation</title>
<path fill="none" stroke="black" d="M552.295,-237.418C516.853,-214.804 471.789,-186.05 440.588,-166.142"/>
<polygon fill="black" stroke="black" points="442.089,-162.948 431.777,-160.519 438.324,-168.849 442.089,-162.948"/>
</g>
<!-- SchemaDefinedType&#45;&gt;SaladRecordSchema -->
<g id="edge5" class="edge"><title>SchemaDefinedType&#45;&gt;SaladRecordSchema</title>
<path fill="none" stroke="black" d="M654.063,-109.116C635.665,-97.899 614.721,-85.1293 595.461,-73.3869"/>
<polygon fill="black" stroke="black" points="597.106,-70.2907 586.746,-68.0733 593.462,-76.2674 597.106,-70.2907"/>
</g>
<!-- SaladEnumSchema -->
<g id="node11" class="node"><title>SaladEnumSchema</title>
<polygon fill="none" stroke="black" points="853,-53 724,-53 724,-15 853,-15 853,-53"/>
<text text-anchor="middle" x="788.5" y="-37.8" font-family="Times,serif" font-size="14.00">SaladEnumSchema</text>
<text text-anchor="start" x="732" y="-22.8" font-family="Times,serif" font-size="14.00">* extends</text>
</g>
<!-- SchemaDefinedType&#45;&gt;SaladEnumSchema -->
<g id="edge7" class="edge"><title>SchemaDefinedType&#45;&gt;SaladEnumSchema</title>
<path fill="none" stroke="black" d="M733.138,-105.354C744.541,-90.8631 757.522,-74.3669 768.047,-60.9919"/>
<polygon fill="black" stroke="black" points="770.813,-63.1364 774.247,-53.1133 765.312,-58.8076 770.813,-63.1364"/>
</g>
<!-- RecordField -->
<g id="node6" class="node"><title>RecordField</title>
<polygon fill="none" stroke="black" points="1057,-307.643 958,-307.643 958,-239.643 1057,-239.643 1057,-307.643"/>
<text text-anchor="middle" x="1007.5" y="-292.443" font-family="Times,serif" font-size="14.00">RecordField</text>
<text text-anchor="start" x="966" y="-277.443" font-family="Times,serif" font-size="14.00">* name</text>
<text text-anchor="start" x="966" y="-262.443" font-family="Times,serif" font-size="14.00">* doc</text>
<text text-anchor="start" x="966" y="-247.443" font-family="Times,serif" font-size="14.00">* type</text>
</g>
<!-- SaladRecordField -->
<g id="node7" class="node"><title>SaladRecordField</title>
<polygon fill="none" stroke="black" points="1079.5,-160.477 935.5,-160.477 935.5,-122.477 1079.5,-122.477 1079.5,-160.477"/>
<text text-anchor="middle" x="1007.5" y="-145.277" font-family="Times,serif" font-size="14.00">SaladRecordField</text>
<text text-anchor="start" x="943.5" y="-130.277" font-family="Times,serif" font-size="14.00">* jsonldPredicate</text>
</g>
<!-- RecordField&#45;&gt;SaladRecordField -->
<g id="edge2" class="edge"><title>RecordField&#45;&gt;SaladRecordField</title>
<path fill="none" stroke="black" d="M1007.5,-239.46C1007.5,-218.262 1007.5,-191.067 1007.5,-170.872"/>
<polygon fill="black" stroke="black" points="1011,-170.736 1007.5,-160.736 1004,-170.736 1011,-170.736"/>
</g>
<!-- RecordSchema -->
<g id="node8" class="node"><title>RecordSchema</title>
<polygon fill="none" stroke="black" points="586,-167.977 479,-167.977 479,-114.977 586,-114.977 586,-167.977"/>
<text text-anchor="middle" x="532.5" y="-152.777" font-family="Times,serif" font-size="14.00">RecordSchema</text>
<text text-anchor="start" x="487" y="-137.777" font-family="Times,serif" font-size="14.00">* type</text>
<text text-anchor="start" x="487" y="-122.777" font-family="Times,serif" font-size="14.00">* fields</text>
</g>
<!-- RecordSchema&#45;&gt;SaladRecordSchema -->
<g id="edge4" class="edge"><title>RecordSchema&#45;&gt;SaladRecordSchema</title>
<path fill="none" stroke="black" d="M532.5,-114.944C532.5,-103.988 532.5,-90.8761 532.5,-78.4703"/>
<polygon fill="black" stroke="black" points="536,-78.2784 532.5,-68.2784 529,-78.2785 536,-78.2784"/>
</g>
<!-- EnumSchema -->
<g id="node10" class="node"><title>EnumSchema</title>
<polygon fill="none" stroke="black" points="917.5,-167.977 825.5,-167.977 825.5,-114.977 917.5,-114.977 917.5,-167.977"/>
<text text-anchor="middle" x="871.5" y="-152.777" font-family="Times,serif" font-size="14.00">EnumSchema</text>
<text text-anchor="start" x="833.5" y="-137.777" font-family="Times,serif" font-size="14.00">* type</text>
<text text-anchor="start" x="833.5" y="-122.777" font-family="Times,serif" font-size="14.00">* symbols</text>
</g>
<!-- EnumSchema&#45;&gt;SaladEnumSchema -->
<g id="edge6" class="edge"><title>EnumSchema&#45;&gt;SaladEnumSchema</title>
<path fill="none" stroke="black" d="M851.408,-114.944C838.579,-98.6412 821.993,-77.5625 809.072,-61.1428"/>
<polygon fill="black" stroke="black" points="811.623,-58.7252 802.689,-53.0309 806.122,-63.054 811.623,-58.7252"/>
</g>
<!-- ArraySchema -->
<g id="node12" class="node"><title>ArraySchema</title>
<polygon fill="none" stroke="black" points="1174,-300.143 1075,-300.143 1075,-247.143 1174,-247.143 1174,-300.143"/>
<text text-anchor="middle" x="1124.5" y="-284.943" font-family="Times,serif" font-size="14.00">ArraySchema</text>
<text text-anchor="start" x="1083" y="-269.943" font-family="Times,serif" font-size="14.00">* type</text>
<text text-anchor="start" x="1083" y="-254.943" font-family="Times,serif" font-size="14.00">* items</text>
</g>
</g>
</svg>
